<?xml version="1.0" encoding="UTF-8" standalone="no"?>
<svg
   version="1.2"
   width="185.59062mm"
   height="153.49818mm"
   viewBox="0 0 18559.063 15349.819"
   preserveAspectRatio="xMidYMid"
   fill-rule="evenodd"
   stroke-width="28.222"
   stroke-linejoin="round"
   xml:space="preserve"
   id="svg377"
   sodipodi:docname="rasant_diagram_2.svg"
   inkscape:version="1.4.4 (dcaf3e7d9e, 2026-05-05)"
   xmlns:inkscape="http://www.inkscape.org/namespaces/inkscape"
   xmlns:sodipodi="http://sodipodi.sourceforge.net/DTD/sodipodi-0.dtd"
   xmlns="http://www.w3.org/2000/svg"
   xmlns:svg="http://www.w3.org/2000/svg"><sodipodi:namedview
   id="namedview377"
   pagecolor="#ffffff"
   bordercolor="#000000"
   borderopacity="0.25"
   inkscape:showpageshadow="2"
   inkscape:pageopacity="0.0"
   inkscape:pagecheckerboard="0"
   inkscape:deskcolor="#d1d1d1"
   inkscape:document-units="mm"
   inkscape:zoom="1.2983485"
   inkscape:cx="228.75214"
   inkscape:cy="117.0718"
   inkscape:window-width="3072"
   inkscape:window-height="1659"
   inkscape:window-x="0"
   inkscape:window-y="0"
   inkscape:window-maximized="1"
   inkscape:current-layer="svg377" />
  <rect
     style="fill:#ffffff;"
     id="rect_bg"
     width="100%"
     height="100%"
     x="0"
     y="0" />
 <defs
   id="defs30">
  <font
   id="EmbeddedFont_1"
   horiz-adv-x="2048"
   horiz-origin-x="0"
   horiz-origin-y="0"
   vert-origin-x="512"
   vert-origin-y="768"
   vert-adv-y="1024">
   <font-face
   font-family="Fira Sans Compressed embedded"
   units-per-em="2048"
   font-weight="normal"
   font-style="normal"
   ascent="1905"
   descent="529"
   id="font-face1" />
   <missing-glyph
   horiz-adv-x="2048"
   d="M 0,0 L 2047,0 2047,2047 0,2047 0,0 Z "
   id="missing-glyph1" />
   <glyph
   unicode="…"
   horiz-adv-x="1116"
   d="M 641,245 C 681,245 713,232 737,205 762,179 774,147 774,110 774,73 762,42 737,15 713,-12 681,-25 641,-25 603,-25 571,-12 547,15 522,42 510,73 510,110 510,147 522,179 547,205 571,232 603,245 641,245 Z M 1069,245 C 1109,245 1141,232 1165,205 1190,179 1202,147 1202,110 1202,73 1190,42 1165,15 1141,-12 1109,-25 1069,-25 1031,-25 999,-12 975,15 950,42 938,73 938,110 938,147 950,179 975,205 999,232 1031,245 1069,245 Z M 213,245 C 253,245 285,232 309,205 334,179 346,147 346,110 346,73 334,42 309,15 285,-12 253,-25 213,-25 175,-25 143,-12 119,15 94,42 82,73 82,110 82,147 94,179 119,205 143,232 175,245 213,245 Z "
   id="glyph1" />
   <glyph
   unicode="y"
   horiz-adv-x="813"
   d="M 541,-6 C 507,-130 456,-229 389,-301 322,-373 229,-418 111,-434 L 90,-297 C 176,-278 239,-246 279,-203 318,-159 352,-91 379,0 L 311,0 20,1080 205,1080 430,131 653,1080 836,1080 541,-6 Z "
   id="glyph2" />
   <glyph
   unicode="x"
   horiz-adv-x="817"
   d="M 829,0 L 635,0 416,465 197,0 10,0 315,569 43,1079 233,1079 420,676 606,1079 791,1079 524,578 829,0 Z "
   id="glyph3" />
   <glyph
   unicode="w"
   horiz-adv-x="1157"
   d="M 1006,0 L 766,0 621,912 477,0 242,0 41,1080 217,1080 365,133 520,1080 731,1080 883,133 1034,1080 1202,1080 1006,0 Z "
   id="glyph4" />
   <glyph
   unicode="u"
   horiz-adv-x="689"
   d="M 831,0 L 676,0 664,151 C 629,92 591,48 548,19 505,-10 455,-25 397,-25 319,-25 257,2 211,55 165,108 141,178 141,264 L 141,1079 322,1079 322,282 C 322,172 360,116 438,116 483,116 523,132 557,164 591,197 623,241 651,299 L 651,1079 831,1079 831,0 Z "
   id="glyph5" />
   <glyph
   unicode="t"
   horiz-adv-x="605"
   d="M 627,49 C 565,0 496,-25 420,-25 339,-25 277,-1 232,47 188,94 166,159 166,239 L 166,938 20,938 20,1079 166,1079 166,1323 346,1345 346,1079 555,1079 537,938 346,938 346,237 C 346,162 378,125 442,125 464,125 483,127 500,133 516,138 535,148 557,161 L 627,49 Z "
   id="glyph6" />
   <glyph
   unicode="s"
   horiz-adv-x="701"
   d="M 412,1101 C 530,1101 632,1061 717,980 L 639,876 C 601,905 564,926 528,941 493,955 455,962 416,962 368,962 330,949 302,922 274,895 260,859 260,813 260,767 274,732 301,706 328,680 380,653 457,626 555,591 627,548 674,499 720,450 743,383 743,299 743,196 709,117 640,60 571,3 485,-25 383,-25 246,-25 132,22 41,116 L 135,217 C 212,150 293,116 379,116 433,116 477,131 510,161 543,191 559,234 559,288 559,325 553,355 541,378 528,402 507,423 477,442 447,461 403,481 346,501 251,537 182,579 141,627 100,676 80,735 80,806 80,861 94,911 122,956 150,1001 189,1036 240,1062 290,1088 347,1101 412,1101 Z "
   id="glyph7" />
   <glyph
   unicode="r"
   horiz-adv-x="495"
   d="M 563,1102 C 593,1102 621,1098 645,1090 L 614,916 C 587,922 563,926 541,926 487,926 444,902 410,854 375,806 349,733 330,635 L 330,0 150,0 150,1079 305,1079 319,879 C 370,1028 451,1102 563,1102 Z "
   id="glyph8" />
   <glyph
   unicode="o"
   horiz-adv-x="807"
   d="M 498,1101 C 626,1101 725,1054 796,959 866,864 901,725 901,540 901,367 865,229 794,128 722,26 623,-25 496,-25 369,-25 270,25 199,125 128,224 92,362 92,538 92,720 128,859 199,956 270,1053 369,1101 498,1101 Z M 498,956 C 425,956 371,924 336,859 300,794 283,687 283,538 283,391 300,284 336,219 371,153 425,120 496,120 568,120 622,153 657,219 693,284 711,391 711,540 711,688 693,794 657,859 622,924 569,956 498,956 Z "
   id="glyph9" />
   <glyph
   unicode="n"
   horiz-adv-x="695"
   d="M 590,1102 C 668,1102 730,1074 776,1018 823,962 846,887 846,793 L 846,0 666,0 666,768 C 666,838 656,887 636,917 616,946 586,961 547,961 469,961 397,894 330,760 L 330,0 150,0 150,1079 305,1079 319,918 C 355,978 394,1023 436,1055 479,1086 530,1102 590,1102 Z "
   id="glyph10" />
   <glyph
   unicode="l"
   horiz-adv-x="330"
   d="M 340,-25 C 280,-25 232,-6 196,32 159,71 141,122 141,188 L 141,1513 322,1534 322,192 C 322,147 341,125 379,125 397,125 414,128 430,135 L 471,12 C 431,-13 388,-25 340,-25 Z "
   id="glyph11" />
   <glyph
   unicode="k"
   horiz-adv-x="732"
   d="M 330,0 L 150,0 150,1514 330,1534 330,0 Z M 526,600 L 883,0 682,0 340,590 666,1079 850,1079 526,600 Z "
   id="glyph12" />
   <glyph
   unicode="i"
   horiz-adv-x="242"
   d="M 238,1592 C 274,1592 304,1580 326,1557 347,1534 358,1504 358,1467 358,1433 347,1404 325,1381 302,1358 273,1346 238,1346 202,1346 173,1358 151,1381 128,1404 117,1433 117,1467 117,1502 128,1532 151,1556 173,1580 202,1592 238,1592 Z M 330,0 L 150,0 150,1079 330,1079 330,0 Z "
   id="glyph13" />
   <glyph
   unicode="g"
   horiz-adv-x="846"
   d="M 885,1032 C 853,1019 818,1010 779,1006 740,1002 691,1000 631,1000 736,942 788,851 788,725 788,615 758,526 696,460 635,394 550,361 442,361 403,361 367,368 334,381 320,371 310,356 302,337 295,319 291,299 291,279 291,249 299,225 315,208 332,191 361,182 403,182 L 522,182 C 589,182 648,169 698,143 749,118 787,82 814,38 841,-6 854,-55 854,-108 854,-207 817,-286 744,-345 671,-404 566,-434 428,-434 286,-434 185,-406 126,-351 67,-296 37,-215 37,-108 L 197,-108 C 197,-175 213,-223 246,-251 279,-279 340,-293 430,-293 517,-293 580,-278 619,-249 657,-219 676,-177 676,-121 676,-14 613,39 487,39 L 412,39 C 313,39 242,57 197,93 152,130 129,178 129,240 129,306 165,367 236,425 130,489 78,590 78,727 78,841 111,931 178,1000 245,1068 332,1102 438,1102 534,1102 609,1110 664,1125 718,1140 774,1163 831,1194 L 885,1032 Z M 436,973 C 376,973 331,953 301,914 271,874 256,812 256,727 256,654 272,594 303,549 335,504 378,482 434,482 494,482 539,501 567,539 596,577 610,641 610,729 610,892 552,973 436,973 Z "
   id="glyph14" />
   <glyph
   unicode="f"
   horiz-adv-x="660"
   d="M 477,1389 C 433,1389 401,1378 381,1356 360,1334 350,1299 350,1251 L 350,1079 567,1079 547,938 350,938 350,0 170,0 170,938 20,938 20,1079 170,1079 170,1249 C 170,1334 196,1403 247,1455 298,1508 370,1534 463,1534 538,1534 611,1516 682,1479 L 629,1352 C 578,1376 528,1389 477,1389 Z "
   id="glyph15" />
   <glyph
   unicode="e"
   horiz-adv-x="754"
   d="M 848,571 C 848,541 847,510 844,477 L 279,477 C 284,347 305,256 343,202 381,149 434,122 504,122 549,122 589,130 625,144 660,158 697,181 735,213 L 815,104 C 725,18 619,-25 498,-25 369,-25 270,22 199,117 128,212 92,349 92,528 92,707 126,847 194,949 261,1050 356,1101 479,1101 598,1101 689,1057 753,967 816,878 848,746 848,571 Z M 674,624 C 674,742 658,827 627,880 595,933 546,960 479,960 419,960 372,933 338,879 304,825 284,736 279,610 L 674,610 674,624 Z "
   id="glyph16" />
   <glyph
   unicode="d"
   horiz-adv-x="762"
   d="M 856,1513 L 856,0 696,0 684,137 C 620,29 538,-25 438,-25 326,-25 241,24 181,123 122,222 92,359 92,534 92,647 107,747 137,833 167,919 209,985 262,1032 315,1078 376,1101 444,1101 539,1101 616,1060 676,976 L 676,1534 856,1513 Z M 473,118 C 551,118 619,170 676,272 L 676,819 C 620,912 555,958 481,958 418,958 370,924 335,856 300,787 283,682 283,538 283,258 346,118 473,118 Z "
   id="glyph17" />
   <glyph
   unicode="c"
   horiz-adv-x="677"
   d="M 496,1101 C 550,1101 599,1093 643,1075 687,1057 729,1028 770,987 L 688,880 C 657,906 626,925 597,938 568,950 536,956 502,956 357,956 285,815 285,534 285,388 303,284 340,221 377,158 430,127 500,127 534,127 565,133 593,145 621,157 652,176 686,202 L 770,94 C 688,15 597,-25 498,-25 369,-25 270,21 199,114 128,207 92,346 92,530 92,710 128,851 201,951 273,1051 371,1101 496,1101 Z "
   id="glyph18" />
   <glyph
   unicode="b"
   horiz-adv-x="756"
   d="M 578,1101 C 681,1101 762,1054 820,960 878,866 907,726 907,540 907,423 893,322 864,237 836,153 795,88 742,43 690,-2 629,-25 559,-25 513,-25 469,-13 428,11 387,35 352,69 322,112 L 309,0 150,0 150,1511 330,1529 330,948 C 394,1050 477,1101 578,1101 Z M 520,118 C 651,118 717,259 717,540 717,695 701,803 670,865 638,927 593,958 535,958 458,958 390,903 330,792 L 330,258 C 354,215 383,182 415,156 447,131 482,118 520,118 Z "
   id="glyph19" />
   <glyph
   unicode="a"
   horiz-adv-x="768"
   d="M 762,229 C 762,191 767,162 778,144 789,126 807,111 831,100 L 793,-25 C 742,-17 702,-1 673,23 643,47 623,83 610,131 552,27 466,-25 352,-25 264,-25 193,5 140,64 88,123 61,202 61,301 61,415 97,503 168,564 239,625 342,655 477,655 L 584,655 584,753 C 584,824 570,876 542,909 514,942 470,958 412,958 342,958 261,940 168,903 L 123,1030 C 233,1078 337,1101 434,1101 545,1101 627,1072 681,1012 735,953 762,869 762,761 L 762,229 Z M 389,110 C 474,110 539,168 584,282 L 584,534 498,534 C 412,534 349,516 308,479 268,442 248,385 248,309 248,243 260,194 285,160 309,127 344,110 389,110 Z "
   id="glyph20" />
   <glyph
   unicode="S"
   horiz-adv-x="825"
   d="M 463,1434 C 538,1434 605,1420 663,1394 721,1367 774,1326 823,1272 L 725,1165 C 683,1206 641,1236 600,1254 559,1273 514,1282 465,1282 406,1282 359,1263 323,1226 286,1188 268,1139 268,1077 268,1017 286,968 321,930 355,891 421,854 518,817 630,775 715,722 772,659 829,596 858,507 858,391 858,316 841,246 806,183 771,119 722,69 657,31 593,-6 519,-25 434,-25 350,-25 274,-9 209,22 143,54 84,99 31,157 L 131,264 C 179,220 226,187 273,163 321,140 373,129 430,129 501,129 558,152 600,198 642,245 664,308 664,387 664,455 646,510 612,551 578,592 515,629 422,663 303,708 216,763 161,827 105,891 78,972 78,1069 78,1136 94,1197 127,1253 160,1309 205,1353 264,1385 323,1418 389,1434 463,1434 Z "
   id="glyph21" />
   <glyph
   unicode="O"
   horiz-adv-x="990"
   d="M 590,1434 C 745,1434 867,1373 954,1252 1042,1131 1085,949 1085,704 1085,463 1042,281 954,158 867,36 745,-25 590,-25 434,-25 312,35 224,155 136,275 92,458 92,702 92,944 137,1126 225,1249 314,1372 436,1434 590,1434 Z M 590,1282 C 492,1282 417,1237 366,1147 314,1057 289,908 289,702 289,497 315,351 367,262 418,173 493,129 590,129 688,129 763,173 813,261 864,349 889,497 889,704 889,911 864,1058 813,1148 763,1237 688,1282 590,1282 Z "
   id="glyph22" />
   <glyph
   unicode="N"
   horiz-adv-x="827"
   d="M 985,0 L 737,0 303,1202 C 311,1107 318,1021 323,946 327,871 330,777 330,664 L 330,0 156,0 156,1411 403,1411 838,207 C 832,227 826,283 820,375 814,466 811,552 811,631 L 811,1411 985,1411 985,0 Z "
   id="glyph23" />
   <glyph
   unicode="J"
   horiz-adv-x="368"
   d="M 369,194 C 369,59 342,-43 289,-112 236,-181 156,-236 49,-277 L 0,-146 C 52,-118 90,-91 116,-63 141,-35 158,-1 168,39 177,78 182,133 182,202 L 182,1411 369,1411 369,194 Z "
   id="glyph24" />
   <glyph
   unicode="I"
   horiz-adv-x="188"
   d="M 342,0 L 156,0 156,1411 342,1411 342,0 Z "
   id="glyph25" />
   <glyph
   unicode="F"
   horiz-adv-x="632"
   d="M 156,1412 L 788,1412 768,1262 342,1262 342,772 711,772 711,625 342,625 342,1 156,1 156,1412 Z "
   id="glyph26" />
   <glyph
   unicode="/"
   horiz-adv-x="546"
   d="M 711,1622 L 311,-211 164,-182 563,1651 711,1622 Z "
   id="glyph27" />
   <glyph
   unicode=")"
   horiz-adv-x="429"
   d="M 172,1729 C 240,1617 296,1516 339,1428 382,1339 417,1236 445,1118 473,1001 487,867 487,717 487,567 473,433 445,315 417,198 382,95 339,6 296,-83 240,-183 172,-295 L 57,-219 C 117,-111 164,-17 198,62 231,142 257,235 276,340 296,445 305,571 305,717 305,863 296,989 276,1094 257,1199 231,1291 198,1371 164,1451 117,1545 57,1653 L 172,1729 Z "
   id="glyph28" />
   <glyph
   unicode="("
   horiz-adv-x="429"
   d="M 487,1653 C 427,1545 380,1451 346,1371 312,1291 285,1199 266,1095 247,990 238,864 238,717 238,571 247,445 266,340 285,235 312,142 346,62 380,-17 427,-111 487,-219 L 373,-295 C 304,-183 249,-83 206,6 163,95 127,198 99,315 71,433 57,567 57,717 57,867 71,1001 99,1118 127,1236 163,1339 206,1428 249,1516 304,1617 373,1729 L 487,1653 Z "
   id="glyph29" />
   <glyph
   unicode=" "
   horiz-adv-x="432"
   id="glyph30" />
  </font>
 </defs>
 <defs
   id="defs38">
  <font
   id="EmbeddedFont_2"
   horiz-adv-x="2048"
   horiz-origin-x="0"
   horiz-origin-y="0"
   vert-origin-x="512"
   vert-origin-y="768"
   vert-adv-y="1024">
   <font-face
   font-family="Fira Sans Compressed embedded"
   units-per-em="2048"
   font-weight="bold"
   font-style="normal"
   ascent="1905"
   descent="529"
   id="font-face30" />
   <missing-glyph
   horiz-adv-x="2048"
   d="M 0,0 L 2047,0 2047,2047 0,2047 0,0 Z "
   id="missing-glyph30" />
   <glyph
   unicode="r"
   horiz-adv-x="611"
   d="M 619,1118 C 647,1118 676,1113 705,1102 L 653,805 C 629,813 603,817 578,817 527,817 489,798 464,759 439,720 418,661 401,584 L 401,0 92,0 92,1087 360,1087 383,909 C 435,1048 513,1118 619,1118 Z "
   id="glyph31" />
   <glyph
   unicode="o"
   horiz-adv-x="903"
   d="M 506,1122 C 648,1122 759,1074 839,977 919,880 958,735 958,542 958,358 919,216 839,116 759,15 648,-35 506,-35 364,-35 253,14 173,111 93,209 53,353 53,545 53,732 93,875 173,974 253,1073 364,1122 506,1122 Z M 506,893 C 458,893 424,866 402,814 381,761 371,672 371,545 371,413 381,322 402,270 424,218 458,192 506,192 554,192 588,219 609,271 630,324 641,414 641,542 641,672 630,763 609,815 588,867 554,893 506,893 Z "
   id="glyph32" />
   <glyph
   unicode="g"
   horiz-adv-x="944"
   d="M 942,1027 C 892,999 807,986 688,986 748,958 793,922 821,876 850,830 864,773 864,703 864,595 829,508 759,441 688,374 593,340 471,340 433,340 400,344 373,353 351,338 340,314 340,283 340,260 347,242 361,229 376,217 402,211 440,211 L 551,211 C 668,211 760,182 826,125 893,68 926,-6 926,-96 926,-204 884,-290 800,-355 716,-420 596,-452 440,-452 272,-452 156,-423 92,-364 28,-305 -4,-219 -4,-104 L 270,-104 C 270,-156 282,-193 306,-216 330,-238 375,-249 442,-249 560,-249 619,-206 619,-118 619,-79 607,-49 585,-30 562,-10 528,0 481,0 L 399,0 C 292,0 213,19 164,56 115,94 90,146 90,211 90,251 100,288 121,323 141,358 169,387 205,412 146,449 103,492 77,541 50,590 37,652 37,725 37,848 74,945 150,1014 225,1084 327,1119 457,1119 543,1119 615,1130 675,1151 734,1173 798,1205 866,1248 L 942,1027 Z M 459,918 C 419,918 389,903 370,874 350,845 340,796 340,730 340,603 379,539 457,539 495,539 524,553 543,582 562,611 571,661 571,734 571,799 562,846 544,875 525,904 497,918 459,918 Z "
   id="glyph33" />
   <glyph
   unicode="e"
   horiz-adv-x="864"
   d="M 920,565 C 920,521 918,483 913,452 L 360,452 C 367,354 385,286 415,249 444,211 487,192 543,192 580,192 615,199 649,214 683,228 720,250 760,280 L 887,112 C 786,14 664,-35 520,-35 367,-35 251,15 172,115 93,216 53,356 53,536 53,716 91,859 167,964 243,1069 351,1122 492,1122 625,1122 730,1074 806,979 882,885 920,746 920,565 Z M 619,653 C 619,746 609,813 591,855 572,896 540,917 494,917 453,917 422,897 400,857 379,816 366,744 360,638 L 619,638 619,653 Z "
   id="glyph34" />
   <glyph
   unicode="L"
   horiz-adv-x="766"
   d="M 416,254 L 862,254 829,0 94,0 94,1419 416,1419 416,254 Z "
   id="glyph35" />
   <glyph
   unicode="2"
   horiz-adv-x="844"
   d="M 391,1413 C 479,1413 553,1396 615,1361 678,1327 724,1281 756,1223 787,1165 803,1101 803,1030 803,955 791,884 766,817 741,750 698,672 635,582 572,493 479,379 356,240 L 827,240 795,0 27,0 27,221 C 156,381 253,506 317,596 382,686 426,761 451,822 475,883 487,945 487,1009 487,1064 476,1105 454,1132 431,1159 399,1173 356,1173 318,1173 285,1163 258,1143 231,1124 198,1090 160,1042 L -18,1175 C 85,1333 222,1413 391,1413 Z "
   id="glyph36" />
   <glyph
   unicode="#"
   horiz-adv-x="907"
   d="M 827,903 L 774,504 872,504 872,301 748,301 707,0 467,0 506,301 348,301 309,0 68,0 107,301 25,301 25,504 133,504 186,903 86,903 86,1106 213,1106 250,1384 492,1384 455,1106 612,1106 649,1384 891,1384 854,1106 934,1106 934,903 827,903 Z M 586,903 L 428,903 375,504 532,504 586,903 Z "
   id="glyph37" />
   <glyph
   unicode=" "
   horiz-adv-x="377"
   id="glyph38" />
  </font>
 </defs>
 <defs
   class="EmbeddedBulletChars"
   id="defs47">
  <g
   id="bullet-char-template-57356"
   transform="matrix(4.8828125e-4,0,0,-4.8828125e-4,0,0)">
   <path
   d="M 580,1141 1163,571 580,0 -4,571 Z"
   id="path38" />
  </g>
  <g
   id="bullet-char-template-57354"
   transform="matrix(4.8828125e-4,0,0,-4.8828125e-4,0,0)">
   <path
   d="M 8,1128 H 1137 V 0 H 8 Z"
   id="path39" />
  </g>
  <g
   id="bullet-char-template-10146"
   transform="matrix(4.8828125e-4,0,0,-4.8828125e-4,0,0)">
   <path
   d="M 174,0 602,739 174,1481 1456,739 Z M 1358,739 309,1346 659,739 Z"
   id="path40" />
  </g>
  <g
   id="bullet-char-template-10132"
   transform="matrix(4.8828125e-4,0,0,-4.8828125e-4,0,0)">
   <path
   d="M 2015,739 1276,0 H 717 l 543,543 H 174 v 393 h 1086 l -543,545 h 557 z"
   id="path41" />
  </g>
  <g
   id="bullet-char-template-10007"
   transform="matrix(4.8828125e-4,0,0,-4.8828125e-4,0,0)">
   <path
   d="m 0,-2 c -7,16 -16,29 -25,39 l 381,530 c -94,256 -141,385 -141,387 0,25 13,38 40,38 9,0 21,-2 34,-5 21,4 42,12 65,25 l 27,-13 111,-251 280,301 64,-25 24,25 c 21,-10 41,-24 62,-43 C 886,937 835,863 770,784 769,783 710,716 594,584 L 774,223 c 0,-27 -21,-55 -63,-84 l 16,-20 C 717,90 699,76 672,76 641,76 570,178 457,381 L 164,-76 c -22,-34 -53,-51 -92,-51 -42,0 -63,17 -64,51 -7,9 -10,24 -10,44 0,9 1,19 2,30 z"
   id="path42" />
  </g>
  <g
   id="bullet-char-template-10004"
   transform="matrix(4.8828125e-4,0,0,-4.8828125e-4,0,0)">
   <path
   d="M 285,-33 C 182,-33 111,30 74,156 52,228 41,333 41,471 c 0,78 14,145 41,201 34,71 87,106 158,106 53,0 88,-31 106,-94 l 23,-176 c 8,-64 28,-97 59,-98 l 735,706 c 11,11 33,17 66,17 42,0 63,-15 63,-46 V 965 c 0,-36 -10,-64 -30,-84 L 442,47 C 390,-6 338,-33 285,-33 Z"
   id="path43" />
  </g>
  <g
   id="bullet-char-template-9679"
   transform="matrix(4.8828125e-4,0,0,-4.8828125e-4,0,0)">
   <path
   d="M 813,0 C 632,0 489,54 383,161 276,268 223,411 223,592 c 0,181 53,324 160,431 106,107 249,161 430,161 179,0 323,-54 432,-161 108,-107 162,-251 162,-431 0,-180 -54,-324 -162,-431 C 1136,54 992,0 813,0 Z"
   id="path44" />
  </g>
  <g
   id="bullet-char-template-8226"
   transform="matrix(4.8828125e-4,0,0,-4.8828125e-4,0,0)">
   <path
   d="m 346,457 c -73,0 -137,26 -191,78 -54,51 -81,114 -81,188 0,73 27,136 81,188 54,52 118,78 191,78 73,0 134,-26 185,-79 51,-51 77,-114 77,-187 0,-75 -25,-137 -76,-188 -50,-52 -112,-78 -186,-78 z"
   id="path45" />
  </g>
  <g
   id="bullet-char-template-8211"
   transform="matrix(4.8828125e-4,0,0,-4.8828125e-4,0,0)">
   <path
   d="M -4,459 H 1135 V 606 H -4 Z"
   id="path46" />
  </g>
  <g
   id="bullet-char-template-61548"
   transform="matrix(4.8828125e-4,0,0,-4.8828125e-4,0,0)">
   <path
   d="m 173,740 c 0,163 58,303 173,419 116,115 255,173 419,173 163,0 302,-58 418,-173 116,-116 174,-256 174,-419 0,-163 -58,-303 -174,-418 C 1067,206 928,148 765,148 601,148 462,206 346,322 231,437 173,577 173,740 Z"
   id="path47" />
  </g>
 </defs>
 <g
   class="Page"
   id="g377"
   transform="translate(-1220.9691,-6450.5907)">
  <g
   class="com.sun.star.drawing.CustomShape"
   id="g53">
   <g
   id="id3">
    <rect
   class="BoundingBox"
   stroke="none"
   fill="none"
   x="2499"
   y="11999"
   width="2754"
   height="2495"
   id="rect47" />
    <path
   fill="#ffb66c"
   stroke="none"
   d="m 2500,12416 h 191 v -208 h 191 v -208 h 2369 v 1668 h -192 v 208 h -191 v 209 c -890,-14 -907,327 -1753,407 -303,-48 -413,-86 -615,-142 z"
   id="path48" />
    <path
   fill="none"
   stroke="#000000"
   d="m 2500,12416 h 191 v -208 h 191 v -208 h 2369 v 1668 h -192 v 208 h -191 v 209 c -890,-14 -907,327 -1753,407 -303,-48 -413,-86 -615,-142 z"
   id="path49" />
    <path
   fill="none"
   stroke="#000000"
   d="m 2691,12416 h 2177 v 1460"
   id="path50" />
    <path
   fill="none"
   stroke="#000000"
   d="m 2882,12208 h 2177 v 1460"
   id="path51" />
    <text
   class="SVGTextShape"
   id="text53"><tspan
     class="TextParagraph"
     id="tspan53"><tspan
       class="TextPosition"
       x="3036"
       y="13439"
       id="tspan52"><tspan
         font-family="'Fira Sans Compressed', sans-serif"
         font-size="564px"
         font-weight="400"
         lengthAdjust="spacingAndGlyphs"
         fill="#000000"
         stroke="none"
         style="white-space:pre"
         id="tspan51">Filters</tspan></tspan></tspan></text>
   </g>
  </g>
  <g
   class="com.sun.star.drawing.CustomShape"
   id="g58">
   <g
   id="id4">
    <rect
   class="BoundingBox"
   stroke="none"
   fill="none"
   x="7499"
   y="11999"
   width="3004"
   height="2495"
   id="rect53" />
    <path
   fill="#ffb66c"
   stroke="none"
   d="m 7500,12416 h 208 v -208 h 208 v -208 h 2585 v 1668 h -209 v 208 h -208 v 209 c -971,-14 -991,327 -1913,407 -331,-48 -450,-86 -671,-142 z"
   id="path53" />
    <path
   fill="none"
   stroke="#000000"
   d="m 7500,12416 h 208 v -208 h 208 v -208 h 2585 v 1668 h -209 v 208 h -208 v 209 c -971,-14 -991,327 -1913,407 -331,-48 -450,-86 -671,-142 z"
   id="path54" />
    <path
   fill="none"
   stroke="#000000"
   d="m 7708,12416 h 2376 v 1460"
   id="path55" />
    <path
   fill="none"
   stroke="#000000"
   d="m 7916,12208 h 2376 v 1460"
   id="path56" />
    <text
   class="SVGTextShape"
   id="text58"><tspan
     class="TextParagraph"
     id="tspan58"><tspan
       class="TextPosition"
       x="8234"
       y="13439"
       id="tspan57"><tspan
         font-family="'Fira Sans Compressed', sans-serif"
         font-size="564px"
         font-weight="400"
         lengthAdjust="spacingAndGlyphs"
         fill="#000000"
         stroke="none"
         style="white-space:pre"
         id="tspan56">Sinks</tspan></tspan></tspan></text>
   </g>
  </g>
  <g
   class="com.sun.star.drawing.CustomShape"
   id="g61">
   <g
   id="id5">
    <rect
   class="BoundingBox"
   stroke="none"
   fill="none"
   x="2499"
   y="16749"
   width="5254"
   height="4754"
   id="rect58" />
    <path
   fill="#dddddd"
   stroke="none"
   d="m 2500,17541 v 1 c 0,-139 37,-276 106,-396 70,-120 170,-220 290,-290 120,-69 257,-106 396,-106 h 3667 v 0 c 139,0 276,37 396,106 120,70 220,170 290,290 69,120 106,257 106,396 v 0 l -1,3167 h 1 c 0,139 -37,276 -106,396 -70,120 -170,220 -290,290 -120,69 -257,106 -396,106 h -3668 1 c -139,0 -276,-37 -396,-106 -120,-70 -220,-170 -290,-290 -69,-120 -106,-257 -106,-396 z"
   id="path58" />
    <path
   fill="none"
   stroke="#3465a4"
   d="m 2500,17541 v 1 c 0,-139 37,-276 106,-396 70,-120 170,-220 290,-290 120,-69 257,-106 396,-106 h 3667 v 0 c 139,0 276,37 396,106 120,70 220,170 290,290 69,120 106,257 106,396 v 0 l -1,3167 h 1 c 0,139 -37,276 -106,396 -70,120 -170,220 -290,290 -120,69 -257,106 -396,106 h -3668 1 c -139,0 -276,-37 -396,-106 -120,-70 -220,-170 -290,-290 -69,-120 -106,-257 -106,-396 z"
   id="path59" />
    <text
   class="SVGTextShape"
   id="text61"><tspan
     class="TextParagraph"
     id="tspan61"><tspan
       class="TextPosition"
       x="4295"
       y="18385"
       id="tspan60"><tspan
         font-family="'Fira Sans Compressed', sans-serif"
         font-size="635px"
         font-weight="700"
         lengthAdjust="spacingAndGlyphs"
         fill="#000000"
         stroke="none"
         style="white-space:pre"
         id="tspan59">Logger</tspan></tspan></tspan></text>
   </g>
  </g>
  <g
   class="com.sun.star.drawing.CustomShape"
   id="g64">
   <g
   id="id6">
    <rect
   class="BoundingBox"
   stroke="none"
   fill="none"
   x="2999"
   y="19749"
   width="4254"
   height="1504"
   id="rect61" />
    <path
   fill="#afd095"
   stroke="none"
   d="m 3000,20000 v 0 c 0,-44 12,-87 34,-125 21,-38 53,-70 91,-91 38,-22 81,-34 125,-34 h 3750 1 c 44,0 87,12 125,34 38,21 70,53 91,91 22,38 34,81 34,125 v 0 1000 1 c 0,44 -12,87 -34,125 -21,38 -53,70 -91,91 -38,22 -81,34 -125,34 H 3250 v 0 c -44,0 -87,-12 -125,-34 -38,-21 -70,-53 -91,-91 -22,-38 -34,-81 -34,-125 z"
   id="path61" />
    <path
   fill="none"
   stroke="#3465a4"
   d="m 3000,20000 v 0 c 0,-44 12,-87 34,-125 21,-38 53,-70 91,-91 38,-22 81,-34 125,-34 h 3750 1 c 44,0 87,12 125,34 38,21 70,53 91,91 22,38 34,81 34,125 v 0 1000 1 c 0,44 -12,87 -34,125 -21,38 -53,70 -91,91 -38,22 -81,34 -125,34 H 3250 v 0 c -44,0 -87,-12 -125,-34 -38,-21 -70,-53 -91,-91 -22,-38 -34,-81 -34,-125 z"
   id="path62" />
    <text
   class="SVGTextShape"
   id="text64"><tspan
     class="TextParagraph"
     id="tspan64"><tspan
       class="TextPosition"
       x="3469"
       y="20689"
       id="tspan63"><tspan
         font-family="'Fira Sans Compressed', sans-serif"
         font-size="564px"
         font-weight="400"
         lengthAdjust="spacingAndGlyphs"
         fill="#000000"
         stroke="none"
         style="white-space:pre"
         id="tspan62">Fixed attributes</tspan></tspan></tspan></text>
   </g>
  </g>
  <g
   class="com.sun.star.drawing.CustomShape"
   id="g76">
   <g
   id="id7">
    <rect
   class="BoundingBox"
   stroke="none"
   fill="none"
   x="1499"
   y="6749"
   width="3754"
   height="2254"
   id="rect64" />
    <path
   fill="#729fcf"
   stroke="none"
   d="m 1835,7496 c -70,-279 255,-541 580,-541 102,-2 208,25 295,65 83,-126 238,-203 411,-203 116,4 238,42 325,110 63,-112 195,-177 337,-177 120,0 229,47 299,120 80,-75 199,-120 325,-120 203,0 375,117 411,282 196,46 339,195 339,366 0,52 -11,102 -40,150 83,83 134,186 134,292 0,238 -225,439 -513,474 0,228 -222,407 -500,407 -95,0 -186,-22 -266,-63 -73,201 -304,343 -562,343 -193,0 -375,-85 -485,-218 -102,51 -48,81 -342,81 -241,0 -464,-105 -580,-276 -278,-4 -420,-140 -420,-311 0,-79 36,-151 102,-210 -120,-50 -185,-149 -185,-263 0,-159 145,-291 335,-308 z"
   id="path64" />
    <path
   fill="none"
   stroke="#3465a4"
   d="m 1835,7496 c -70,-279 255,-541 580,-541 102,-2 208,25 295,65 83,-126 238,-203 411,-203 116,4 238,42 325,110 63,-112 195,-177 337,-177 120,0 229,47 299,120 80,-75 199,-120 325,-120 203,0 375,117 411,282 196,46 339,195 339,366 0,52 -11,102 -40,150 83,83 134,186 134,292 0,238 -225,439 -513,474 0,228 -222,407 -500,407 -95,0 -186,-22 -266,-63 -73,201 -304,343 -562,343 -193,0 -375,-85 -485,-218 -102,51 -48,81 -342,81 -241,0 -464,-105 -580,-276 -278,-4 -420,-140 -420,-311 0,-79 36,-151 102,-210 -120,-50 -185,-149 -185,-263 0,-159 145,-291 335,-308 z"
   id="path65" />
    <path
   fill="none"
   stroke="#3465a4"
   d="m 1835,7496 c 3,26 19,55 27,79"
   id="path66" />
    <path
   fill="none"
   stroke="#3465a4"
   d="m 2710,7020 c 40,20 88,47 121,74"
   id="path67" />
    <path
   fill="none"
   stroke="#3465a4"
   d="m 3446,6927 c -14,22 -22,48 -31,73"
   id="path68" />
    <path
   fill="none"
   stroke="#3465a4"
   d="m 4082,6870 c -26,25 -40,59 -58,89"
   id="path69" />
    <path
   fill="none"
   stroke="#3465a4"
   d="m 4818,7032 c 4,19 21,60 14,70"
   id="path70" />
    <path
   fill="none"
   stroke="#3465a4"
   d="m 5117,7548 c -30,53 -70,100 -125,138"
   id="path71" />
    <path
   fill="none"
   stroke="#3465a4"
   d="m 4740,8314 c 14,-85 -66,-293 -288,-371"
   id="path72" />
    <path
   fill="none"
   stroke="#3465a4"
   d="m 3972,8658 c 14,-35 19,-66 23,-99"
   id="path73" />
    <path
   fill="none"
   stroke="#3465a4"
   d="m 2927,8783 c -28,-27 -45,-59 -63,-91"
   id="path74" />
    <path
   fill="none"
   stroke="#3465a4"
   d="m 2003,8588 c 33,-4 66,-11 97,-20"
   id="path75" />
    <path
   fill="none"
   stroke="#3465a4"
   d="m 1685,8067 c 58,27 124,51 219,41"
   id="path76" />
   </g>
  </g>
  <g
   class="com.sun.star.drawing.CustomShape"
   id="g91">
   <g
   id="id8">
    <rect
   class="BoundingBox"
   stroke="none"
   fill="none"
   x="1499"
   y="6749"
   width="3754"
   height="2254"
   id="rect76" />
    <path
   fill="#729fcf"
   stroke="none"
   d="m 1835,7496 c -70,-279 255,-541 580,-541 102,-2 208,25 295,65 83,-126 238,-203 411,-203 116,4 238,42 325,110 63,-112 195,-177 337,-177 120,0 229,47 299,120 80,-75 199,-120 325,-120 203,0 375,117 411,282 196,46 339,195 339,366 0,52 -11,102 -40,150 83,83 134,186 134,292 0,238 -225,439 -513,474 0,228 -222,407 -500,407 -95,0 -186,-22 -266,-63 -73,201 -304,343 -562,343 -193,0 -375,-85 -485,-218 -102,51 -48,81 -342,81 -241,0 -464,-105 -580,-276 -278,-4 -420,-140 -420,-311 0,-79 36,-151 102,-210 -120,-50 -185,-149 -185,-263 0,-159 145,-291 335,-308 z"
   id="path77" />
    <path
   fill="none"
   stroke="#3465a4"
   d="m 1835,7496 c -70,-279 255,-541 580,-541 102,-2 208,25 295,65 83,-126 238,-203 411,-203 116,4 238,42 325,110 63,-112 195,-177 337,-177 120,0 229,47 299,120 80,-75 199,-120 325,-120 203,0 375,117 411,282 196,46 339,195 339,366 0,52 -11,102 -40,150 83,83 134,186 134,292 0,238 -225,439 -513,474 0,228 -222,407 -500,407 -95,0 -186,-22 -266,-63 -73,201 -304,343 -562,343 -193,0 -375,-85 -485,-218 -102,51 -48,81 -342,81 -241,0 -464,-105 -580,-276 -278,-4 -420,-140 -420,-311 0,-79 36,-151 102,-210 -120,-50 -185,-149 -185,-263 0,-159 145,-291 335,-308 z"
   id="path78" />
    <path
   fill="none"
   stroke="#3465a4"
   d="m 1835,7496 c 3,26 19,55 27,79"
   id="path79" />
    <path
   fill="none"
   stroke="#3465a4"
   d="m 2710,7020 c 40,20 88,47 121,74"
   id="path80" />
    <path
   fill="none"
   stroke="#3465a4"
   d="m 3446,6927 c -14,22 -22,48 -31,73"
   id="path81" />
    <path
   fill="none"
   stroke="#3465a4"
   d="m 4082,6870 c -26,25 -40,59 -58,89"
   id="path82" />
    <path
   fill="none"
   stroke="#3465a4"
   d="m 4818,7032 c 4,19 21,60 14,70"
   id="path83" />
    <path
   fill="none"
   stroke="#3465a4"
   d="m 5117,7548 c -30,53 -70,100 -125,138"
   id="path84" />
    <path
   fill="none"
   stroke="#3465a4"
   d="m 4740,8314 c 14,-85 -66,-293 -288,-371"
   id="path85" />
    <path
   fill="none"
   stroke="#3465a4"
   d="m 3972,8658 c 14,-35 19,-66 23,-99"
   id="path86" />
    <path
   fill="none"
   stroke="#3465a4"
   d="m 2927,8783 c -28,-27 -45,-59 -63,-91"
   id="path87" />
    <path
   fill="none"
   stroke="#3465a4"
   d="m 2003,8588 c 33,-4 66,-11 97,-20"
   id="path88" />
    <path
   fill="none"
   stroke="#3465a4"
   d="m 1685,8067 c 58,27 124,51 219,41"
   id="path89" />
    <text
   class="SVGTextShape"
   id="text91"><tspan
     class="TextParagraph"
     id="tspan91"><tspan
       class="TextPosition"
       x="2901"
       y="8014"
       id="tspan90"><tspan
         font-family="'Fira Sans Compressed', sans-serif"
         font-size="564px"
         font-weight="400"
         lengthAdjust="spacingAndGlyphs"
         fill="#000000"
         stroke="none"
         style="white-space:pre"
         id="tspan89">I/O</tspan></tspan></tspan></text>
   </g>
  </g>
  <g
   class="com.sun.star.drawing.CustomShape"
   id="g105">
   <g
   id="id9">
    <rect
   class="BoundingBox"
   stroke="none"
   fill="none"
   x="6249"
   y="6749"
   width="3754"
   height="2254"
   id="rect91" />
    <path
   fill="#729fcf"
   stroke="none"
   d="m 6585,7496 c -70,-279 255,-541 580,-541 102,-2 208,25 295,65 83,-126 238,-203 411,-203 116,4 238,42 325,110 63,-112 195,-177 337,-177 120,0 229,47 299,120 80,-75 199,-120 325,-120 203,0 375,117 411,282 196,46 339,195 339,366 0,52 -11,102 -40,150 83,83 134,186 134,292 0,238 -225,439 -513,474 0,228 -222,407 -500,407 -95,0 -186,-22 -266,-63 -73,201 -304,343 -562,343 -193,0 -375,-85 -485,-218 -102,51 -48,81 -342,81 -241,0 -464,-105 -580,-276 -278,-4 -420,-140 -420,-311 0,-79 36,-151 102,-210 -120,-50 -185,-149 -185,-263 0,-159 145,-291 335,-308 z"
   id="path91" />
    <path
   fill="none"
   stroke="#3465a4"
   d="m 6585,7496 c -70,-279 255,-541 580,-541 102,-2 208,25 295,65 83,-126 238,-203 411,-203 116,4 238,42 325,110 63,-112 195,-177 337,-177 120,0 229,47 299,120 80,-75 199,-120 325,-120 203,0 375,117 411,282 196,46 339,195 339,366 0,52 -11,102 -40,150 83,83 134,186 134,292 0,238 -225,439 -513,474 0,228 -222,407 -500,407 -95,0 -186,-22 -266,-63 -73,201 -304,343 -562,343 -193,0 -375,-85 -485,-218 -102,51 -48,81 -342,81 -241,0 -464,-105 -580,-276 -278,-4 -420,-140 -420,-311 0,-79 36,-151 102,-210 -120,-50 -185,-149 -185,-263 0,-159 145,-291 335,-308 z"
   id="path92" />
    <path
   fill="none"
   stroke="#3465a4"
   d="m 6585,7496 c 3,26 19,55 27,79"
   id="path93" />
    <path
   fill="none"
   stroke="#3465a4"
   d="m 7460,7020 c 40,20 88,47 121,74"
   id="path94" />
    <path
   fill="none"
   stroke="#3465a4"
   d="m 8196,6927 c -14,22 -22,48 -31,73"
   id="path95" />
    <path
   fill="none"
   stroke="#3465a4"
   d="m 8832,6870 c -26,25 -40,59 -58,89"
   id="path96" />
    <path
   fill="none"
   stroke="#3465a4"
   d="m 9568,7032 c 4,19 21,60 14,70"
   id="path97" />
    <path
   fill="none"
   stroke="#3465a4"
   d="m 9867,7548 c -30,53 -70,100 -125,138"
   id="path98" />
    <path
   fill="none"
   stroke="#3465a4"
   d="m 9490,8314 c 14,-85 -66,-293 -288,-371"
   id="path99" />
    <path
   fill="none"
   stroke="#3465a4"
   d="m 8722,8658 c 14,-35 19,-66 23,-99"
   id="path100" />
    <path
   fill="none"
   stroke="#3465a4"
   d="m 7677,8783 c -28,-27 -45,-59 -63,-91"
   id="path101" />
    <path
   fill="none"
   stroke="#3465a4"
   d="m 6753,8588 c 33,-4 66,-11 97,-20"
   id="path102" />
    <path
   fill="none"
   stroke="#3465a4"
   d="m 6435,8067 c 58,27 124,51 219,41"
   id="path103" />
    <text
   class="SVGTextShape"
   id="text105"><tspan
     class="TextParagraph"
     id="tspan105"><tspan
       class="TextPosition"
       x="7316"
       y="8014"
       id="tspan104"><tspan
         font-family="'Fira Sans Compressed', sans-serif"
         font-size="564px"
         font-weight="400"
         lengthAdjust="spacingAndGlyphs"
         fill="#000000"
         stroke="none"
         style="white-space:pre"
         id="tspan103">Syslog</tspan></tspan></tspan></text>
   </g>
  </g>
  <g
   class="com.sun.star.drawing.CustomShape"
   id="g119">
   <g
   id="id10">
    <rect
   class="BoundingBox"
   stroke="none"
   fill="none"
   x="10999"
   y="6749"
   width="3754"
   height="2254"
   id="rect105" />
    <path
   fill="#729fcf"
   stroke="none"
   d="m 11335,7496 c -70,-279 255,-541 580,-541 102,-2 208,25 295,65 83,-126 238,-203 411,-203 116,4 238,42 325,110 63,-112 195,-177 337,-177 120,0 229,47 299,120 80,-75 199,-120 325,-120 203,0 375,117 411,282 196,46 339,195 339,366 0,52 -11,102 -40,150 83,83 134,186 134,292 0,238 -225,439 -513,474 0,228 -222,407 -500,407 -95,0 -186,-22 -266,-63 -73,201 -304,343 -562,343 -193,0 -375,-85 -485,-218 -102,51 -48,81 -342,81 -241,0 -464,-105 -580,-276 -278,-4 -420,-140 -420,-311 0,-79 36,-151 102,-210 -120,-50 -185,-149 -185,-263 0,-159 145,-291 335,-308 z"
   id="path105" />
    <path
   fill="none"
   stroke="#3465a4"
   d="m 11335,7496 c -70,-279 255,-541 580,-541 102,-2 208,25 295,65 83,-126 238,-203 411,-203 116,4 238,42 325,110 63,-112 195,-177 337,-177 120,0 229,47 299,120 80,-75 199,-120 325,-120 203,0 375,117 411,282 196,46 339,195 339,366 0,52 -11,102 -40,150 83,83 134,186 134,292 0,238 -225,439 -513,474 0,228 -222,407 -500,407 -95,0 -186,-22 -266,-63 -73,201 -304,343 -562,343 -193,0 -375,-85 -485,-218 -102,51 -48,81 -342,81 -241,0 -464,-105 -580,-276 -278,-4 -420,-140 -420,-311 0,-79 36,-151 102,-210 -120,-50 -185,-149 -185,-263 0,-159 145,-291 335,-308 z"
   id="path106" />
    <path
   fill="none"
   stroke="#3465a4"
   d="m 11335,7496 c 3,26 19,55 27,79"
   id="path107" />
    <path
   fill="none"
   stroke="#3465a4"
   d="m 12210,7020 c 40,20 88,47 121,74"
   id="path108" />
    <path
   fill="none"
   stroke="#3465a4"
   d="m 12946,6927 c -14,22 -22,48 -31,73"
   id="path109" />
    <path
   fill="none"
   stroke="#3465a4"
   d="m 13582,6870 c -26,25 -40,59 -58,89"
   id="path110" />
    <path
   fill="none"
   stroke="#3465a4"
   d="m 14318,7032 c 4,19 21,60 14,70"
   id="path111" />
    <path
   fill="none"
   stroke="#3465a4"
   d="m 14617,7548 c -30,53 -70,100 -125,138"
   id="path112" />
    <path
   fill="none"
   stroke="#3465a4"
   d="m 14240,8314 c 14,-85 -66,-293 -288,-371"
   id="path113" />
    <path
   fill="none"
   stroke="#3465a4"
   d="m 13472,8658 c 14,-35 19,-66 23,-99"
   id="path114" />
    <path
   fill="none"
   stroke="#3465a4"
   d="m 12427,8783 c -28,-27 -45,-59 -63,-91"
   id="path115" />
    <path
   fill="none"
   stroke="#3465a4"
   d="m 11503,8588 c 33,-4 66,-11 97,-20"
   id="path116" />
    <path
   fill="none"
   stroke="#3465a4"
   d="m 11185,8067 c 58,27 124,51 219,41"
   id="path117" />
    <text
   class="SVGTextShape"
   id="text119"><tspan
     class="TextParagraph"
     id="tspan119"><tspan
       class="TextPosition"
       x="11845"
       y="8014"
       id="tspan118"><tspan
         font-family="'Fira Sans Compressed', sans-serif"
         font-size="564px"
         font-weight="400"
         lengthAdjust="spacingAndGlyphs"
         fill="#000000"
         stroke="none"
         style="white-space:pre"
         id="tspan117">Journald</tspan></tspan></tspan></text>
   </g>
  </g>
  <g
   class="com.sun.star.drawing.CustomShape"
   id="g133">
   <g
   id="id11">
    <rect
   class="BoundingBox"
   stroke="none"
   fill="none"
   x="15749"
   y="6749"
   width="3754"
   height="2254"
   id="rect119" />
    <path
   fill="#729fcf"
   stroke="none"
   d="m 16085,7496 c -70,-279 255,-541 580,-541 102,-2 208,25 295,65 83,-126 238,-203 411,-203 116,4 238,42 325,110 63,-112 195,-177 337,-177 120,0 229,47 299,120 80,-75 199,-120 325,-120 203,0 375,117 411,282 196,46 339,195 339,366 0,52 -11,102 -40,150 83,83 134,186 134,292 0,238 -225,439 -513,474 0,228 -222,407 -500,407 -95,0 -186,-22 -266,-63 -73,201 -304,343 -562,343 -193,0 -375,-85 -485,-218 -102,51 -48,81 -342,81 -241,0 -464,-105 -580,-276 -278,-4 -420,-140 -420,-311 0,-79 36,-151 102,-210 -120,-50 -185,-149 -185,-263 0,-159 145,-291 335,-308 z"
   id="path119" />
    <path
   fill="none"
   stroke="#3465a4"
   d="m 16085,7496 c -70,-279 255,-541 580,-541 102,-2 208,25 295,65 83,-126 238,-203 411,-203 116,4 238,42 325,110 63,-112 195,-177 337,-177 120,0 229,47 299,120 80,-75 199,-120 325,-120 203,0 375,117 411,282 196,46 339,195 339,366 0,52 -11,102 -40,150 83,83 134,186 134,292 0,238 -225,439 -513,474 0,228 -222,407 -500,407 -95,0 -186,-22 -266,-63 -73,201 -304,343 -562,343 -193,0 -375,-85 -485,-218 -102,51 -48,81 -342,81 -241,0 -464,-105 -580,-276 -278,-4 -420,-140 -420,-311 0,-79 36,-151 102,-210 -120,-50 -185,-149 -185,-263 0,-159 145,-291 335,-308 z"
   id="path120" />
    <path
   fill="none"
   stroke="#3465a4"
   d="m 16085,7496 c 3,26 19,55 27,79"
   id="path121" />
    <path
   fill="none"
   stroke="#3465a4"
   d="m 16960,7020 c 40,20 88,47 121,74"
   id="path122" />
    <path
   fill="none"
   stroke="#3465a4"
   d="m 17696,6927 c -14,22 -22,48 -31,73"
   id="path123" />
    <path
   fill="none"
   stroke="#3465a4"
   d="m 18332,6870 c -26,25 -40,59 -58,89"
   id="path124" />
    <path
   fill="none"
   stroke="#3465a4"
   d="m 19068,7032 c 4,19 21,60 14,70"
   id="path125" />
    <path
   fill="none"
   stroke="#3465a4"
   d="m 19367,7548 c -30,53 -70,100 -125,138"
   id="path126" />
    <path
   fill="none"
   stroke="#3465a4"
   d="m 18990,8314 c 14,-85 -66,-293 -288,-371"
   id="path127" />
    <path
   fill="none"
   stroke="#3465a4"
   d="m 18222,8658 c 14,-35 19,-66 23,-99"
   id="path128" />
    <path
   fill="none"
   stroke="#3465a4"
   d="m 17177,8783 c -28,-27 -45,-59 -63,-91"
   id="path129" />
    <path
   fill="none"
   stroke="#3465a4"
   d="m 16253,8588 c 33,-4 66,-11 97,-20"
   id="path130" />
    <path
   fill="none"
   stroke="#3465a4"
   d="m 15935,8067 c 58,27 124,51 219,41"
   id="path131" />
    <text
   class="SVGTextShape"
   id="text133"><tspan
     class="TextParagraph"
     id="tspan133"><tspan
       class="TextPosition"
       x="17319"
       y="8014"
       id="tspan132"><tspan
         font-family="'Fira Sans Compressed', sans-serif"
         font-size="564px"
         font-weight="400"
         lengthAdjust="spacingAndGlyphs"
         fill="#000000"
         stroke="none"
         style="white-space:pre"
         id="tspan131">…</tspan></tspan></tspan></text>
   </g>
  </g>
  <g
   class="com.sun.star.drawing.LineShape"
   id="g134">
   <g
   id="id12">
    <rect
   class="BoundingBox"
   stroke="none"
   fill="none"
   x="3250"
   y="8999"
   width="5792"
   height="3043"
   id="rect133" />
    <path
   fill="none"
   stroke="#808080"
   stroke-width="81"
   stroke-linejoin="round"
   stroke-linecap="round"
   stroke-dasharray="162.81, 161.19"
   d="M 9000,12000 3516,9139"
   id="path133" />
    <path
   fill="#808080"
   stroke="none"
   d="m 3460,9291 -210,-291 359,6 z"
   id="path134" />
   </g>
  </g>
  <g
   class="com.sun.star.drawing.LineShape"
   id="g136">
   <g
   id="id13">
    <rect
   class="BoundingBox"
   stroke="none"
   fill="none"
   x="7949"
   y="9000"
   width="1093"
   height="3042"
   id="rect134" />
    <path
   fill="none"
   stroke="#808080"
   stroke-width="81"
   stroke-linejoin="round"
   stroke-linecap="round"
   stroke-dasharray="162.81, 161.19"
   d="M 9000,12000 8095,9284"
   id="path135" />
    <path
   fill="#808080"
   stroke="none"
   d="m 7949,9355 51,-355 254,254 z"
   id="path136" />
   </g>
  </g>
  <g
   class="com.sun.star.drawing.LineShape"
   id="g138">
   <g
   id="id14">
    <rect
   class="BoundingBox"
   stroke="none"
   fill="none"
   x="8959"
   y="9000"
   width="3792"
   height="3042"
   id="rect136" />
    <path
   fill="none"
   stroke="#808080"
   stroke-width="81"
   stroke-linejoin="round"
   stroke-linecap="round"
   stroke-dasharray="162.81, 161.19"
   d="M 9000,12000 12516,9187"
   id="path137" />
    <path
   fill="#808080"
   stroke="none"
   d="m 12399,9075 351,-75 -150,326 z"
   id="path138" />
   </g>
  </g>
  <g
   class="com.sun.star.drawing.LineShape"
   id="g140">
   <g
   id="id15">
    <rect
   class="BoundingBox"
   stroke="none"
   fill="none"
   x="8959"
   y="8952"
   width="8792"
   height="3090"
   id="rect138" />
    <path
   fill="none"
   stroke="#808080"
   stroke-width="81"
   stroke-linejoin="round"
   stroke-linecap="round"
   stroke-dasharray="162.81, 161.19"
   d="M 9000,12000 17467,9097"
   id="path139" />
    <path
   fill="#808080"
   stroke="none"
   d="m 17394,8952 356,48 -252,256 z"
   id="path140" />
   </g>
  </g>
  <g
   class="com.sun.star.drawing.LineShape"
   id="g143">
   <g
   id="id16">
    <rect
   class="BoundingBox"
   stroke="none"
   fill="none"
   x="3749"
   y="14250"
   width="1752"
   height="2501"
   id="rect140" />
    <path
   fill="none"
   stroke="#000000"
   stroke-width="53"
   stroke-linejoin="round"
   d="M 5351,16537 3899,14463"
   id="path141" />
    <path
   fill="#000000"
   stroke="none"
   d="m 5454,16441 46,309 -274,-149 z"
   id="path142" />
    <path
   fill="#000000"
   stroke="none"
   d="m 3796,14559 -46,-309 274,149 z"
   id="path143" />
   </g>
  </g>
  <g
   class="com.sun.star.drawing.LineShape"
   id="g146">
   <g
   id="id17">
    <rect
   class="BoundingBox"
   stroke="none"
   fill="none"
   x="5250"
   y="14250"
   width="3751"
   height="2501"
   id="rect143" />
    <path
   fill="none"
   stroke="#000000"
   stroke-width="53"
   stroke-linejoin="round"
   d="M 5467,16606 8783,14394"
   id="path144" />
    <path
   fill="#000000"
   stroke="none"
   d="m 5560,16711 -310,39 155,-271 z"
   id="path145" />
    <path
   fill="#000000"
   stroke="none"
   d="m 8690,14289 310,-39 -155,271 z"
   id="path146" />
   </g>
  </g>
  <g
   class="com.sun.star.drawing.CustomShape"
   id="g150">
   <g
   id="id18">
    <rect
   class="BoundingBox"
   stroke="none"
   fill="none"
   x="13999"
   y="16749"
   width="5254"
   height="4754"
   id="rect146" />
    <path
   fill="#dddddd"
   stroke="none"
   d="m 14000,17541 v 1 c 0,-139 37,-276 106,-396 70,-120 170,-220 290,-290 120,-69 257,-106 396,-106 h 3667 v 0 c 139,0 276,37 396,106 120,70 220,170 290,290 69,120 106,257 106,396 v 0 l -1,3167 h 1 c 0,139 -37,276 -106,396 -70,120 -170,220 -290,290 -120,69 -257,106 -396,106 h -3668 1 c -139,0 -276,-37 -396,-106 -120,-70 -220,-170 -290,-290 -69,-120 -106,-257 -106,-396 z"
   id="path147" />
    <path
   fill="none"
   stroke="#3465a4"
   d="m 14000,17541 v 1 c 0,-139 37,-276 106,-396 70,-120 170,-220 290,-290 120,-69 257,-106 396,-106 h 3667 v 0 c 139,0 276,37 396,106 120,70 220,170 290,290 69,120 106,257 106,396 v 0 l -1,3167 h 1 c 0,139 -37,276 -106,396 -70,120 -170,220 -290,290 -120,69 -257,106 -396,106 h -3668 1 c -139,0 -276,-37 -396,-106 -120,-70 -220,-170 -290,-290 -69,-120 -106,-257 -106,-396 z"
   id="path148" />
    <text
   class="SVGTextShape"
   id="text150"><tspan
     class="TextParagraph"
     id="tspan150"><tspan
       class="TextPosition"
       x="15455"
       y="18385"
       id="tspan149"><tspan
         font-family="'Fira Sans Compressed', sans-serif"
         font-size="635px"
         font-weight="700"
         lengthAdjust="spacingAndGlyphs"
         fill="#000000"
         stroke="none"
         style="white-space:pre"
         id="tspan148">Logger #2</tspan></tspan></tspan></text>
   </g>
  </g>
  <g
   class="com.sun.star.drawing.CustomShape"
   id="g153">
   <g
   id="id19">
    <rect
   class="BoundingBox"
   stroke="none"
   fill="none"
   x="14499"
   y="19749"
   width="4254"
   height="1504"
   id="rect150" />
    <path
   fill="#afd095"
   stroke="none"
   d="m 14500,20000 v 0 c 0,-44 12,-87 34,-125 21,-38 53,-70 91,-91 38,-22 81,-34 125,-34 h 3750 1 c 44,0 87,12 125,34 38,21 70,53 91,91 22,38 34,81 34,125 v 0 1000 1 c 0,44 -12,87 -34,125 -21,38 -53,70 -91,91 -38,22 -81,34 -125,34 h -3751 v 0 c -44,0 -87,-12 -125,-34 -38,-21 -70,-53 -91,-91 -22,-38 -34,-81 -34,-125 z"
   id="path150" />
    <path
   fill="none"
   stroke="#3465a4"
   d="m 14500,20000 v 0 c 0,-44 12,-87 34,-125 21,-38 53,-70 91,-91 38,-22 81,-34 125,-34 h 3750 1 c 44,0 87,12 125,34 38,21 70,53 91,91 22,38 34,81 34,125 v 0 1000 1 c 0,44 -12,87 -34,125 -21,38 -53,70 -91,91 -38,22 -81,34 -125,34 h -3751 v 0 c -44,0 -87,-12 -125,-34 -38,-21 -70,-53 -91,-91 -22,-38 -34,-81 -34,-125 z"
   id="path151" />
    <text
   class="SVGTextShape"
   id="text153"><tspan
     class="TextParagraph"
     id="tspan153"><tspan
       class="TextPosition"
       x="14969"
       y="20689"
       id="tspan152"><tspan
         font-family="'Fira Sans Compressed', sans-serif"
         font-size="564px"
         font-weight="400"
         lengthAdjust="spacingAndGlyphs"
         fill="#000000"
         stroke="none"
         style="white-space:pre"
         id="tspan151">Fixed attributes</tspan></tspan></tspan></text>
   </g>
  </g>
  <g
   class="com.sun.star.drawing.CustomShape"
   id="g251">
   <g
   id="id20">
    <rect
   class="BoundingBox"
   stroke="none"
   fill="none"
   x="11749"
   y="11999"
   width="2754"
   height="2495"
   id="rect153" />
    <path
   fill="#ffdbb6"
   stroke="none"
   d="m 11750,12416 h 191 v -208 h 191 v -208 h 2369 v 1668 h -192 v 208 h -191 v 209 c -890,-14 -907,327 -1753,407 -303,-48 -413,-86 -615,-142 z"
   id="path153" />
    <path
   fill="none"
   stroke="#000000"
   d="m 11750,12416 h 108"
   id="path154" />
    <path
   fill="none"
   stroke="#000000"
   d="m 11939,12416 h 2 v -105"
   id="path155" />
    <path
   fill="none"
   stroke="#000000"
   d="m 11941,12230 v -22 h 86"
   id="path156" />
    <path
   fill="none"
   stroke="#000000"
   d="m 12108,12208 h 24 v -84"
   id="path157" />
    <path
   fill="none"
   stroke="#000000"
   d="m 12132,12043 v -43 h 64"
   id="path158" />
    <path
   fill="none"
   stroke="#000000"
   d="m 12277,12000 h 108"
   id="path159" />
    <path
   fill="none"
   stroke="#000000"
   d="m 12466,12000 h 108"
   id="path160" />
    <path
   fill="none"
   stroke="#000000"
   d="m 12655,12000 h 107"
   id="path161" />
    <path
   fill="none"
   stroke="#000000"
   d="m 12843,12000 h 108"
   id="path162" />
    <path
   fill="none"
   stroke="#000000"
   d="m 13032,12000 h 108"
   id="path163" />
    <path
   fill="none"
   stroke="#000000"
   d="m 13220,12000 h 108"
   id="path164" />
    <path
   fill="none"
   stroke="#000000"
   d="m 13409,12000 h 108"
   id="path165" />
    <path
   fill="none"
   stroke="#000000"
   d="m 13598,12000 h 108"
   id="path166" />
    <path
   fill="none"
   stroke="#000000"
   d="m 13786,12000 h 108"
   id="path167" />
    <path
   fill="none"
   stroke="#000000"
   d="m 13975,12000 h 108"
   id="path168" />
    <path
   fill="none"
   stroke="#000000"
   d="m 14164,12000 h 108"
   id="path169" />
    <path
   fill="none"
   stroke="#000000"
   d="m 14352,12000 h 108"
   id="path170" />
    <path
   fill="none"
   stroke="#000000"
   d="m 14501,12040 v 108"
   id="path171" />
    <path
   fill="none"
   stroke="#000000"
   d="m 14501,12229 v 107"
   id="path172" />
    <path
   fill="none"
   stroke="#000000"
   d="m 14501,12417 v 108"
   id="path173" />
    <path
   fill="none"
   stroke="#000000"
   d="m 14501,12606 v 108"
   id="path174" />
    <path
   fill="none"
   stroke="#000000"
   d="m 14501,12795 v 107"
   id="path175" />
    <path
   fill="none"
   stroke="#000000"
   d="m 14501,12983 v 108"
   id="path176" />
    <path
   fill="none"
   stroke="#000000"
   d="m 14501,13172 v 108"
   id="path177" />
    <path
   fill="none"
   stroke="#000000"
   d="m 14501,13361 v 107"
   id="path178" />
    <path
   fill="none"
   stroke="#000000"
   d="m 14501,13549 v 108"
   id="path179" />
    <path
   fill="none"
   stroke="#000000"
   d="m 14431,13668 h -108"
   id="path180" />
    <path
   fill="none"
   stroke="#000000"
   d="m 14309,13735 v 107"
   id="path181" />
    <path
   fill="none"
   stroke="#000000"
   d="m 14262,13876 h -108"
   id="path182" />
    <path
   fill="none"
   stroke="#000000"
   d="m 14118,13921 v 108"
   id="path183" />
    <path
   fill="none"
   stroke="#000000"
   d="m 14091,14085 c -38,-1 -76,0 -111,1"
   id="path184" />
    <path
   fill="none"
   stroke="#000000"
   d="m 13902,14089 c -38,2 -74,5 -109,9"
   id="path185" />
    <path
   fill="none"
   stroke="#000000"
   d="m 13714,14108 c -37,6 -72,12 -106,19"
   id="path186" />
    <path
   fill="none"
   stroke="#000000"
   d="m 13531,14145 c -36,10 -71,20 -104,31"
   id="path187" />
    <path
   fill="none"
   stroke="#000000"
   d="m 13352,14202 c -34,13 -67,26 -100,40"
   id="path188" />
    <path
   fill="none"
   stroke="#000000"
   d="m 13178,14273 c -32,14 -65,28 -99,42"
   id="path189" />
    <path
   fill="none"
   stroke="#000000"
   d="m 13005,14345 c -32,13 -66,25 -101,37"
   id="path190" />
    <path
   fill="none"
   stroke="#000000"
   d="m 12827,14406 c -33,10 -67,19 -103,28"
   id="path191" />
    <path
   fill="none"
   stroke="#000000"
   d="m 12645,14451 c -34,7 -69,13 -105,19"
   id="path192" />
    <path
   fill="none"
   stroke="#000000"
   d="m 12461,14481 c -31,4 -63,8 -96,11 -6,-1 -12,-2 -17,-3"
   id="path193" />
    <path
   fill="none"
   stroke="#000000"
   d="m 12268,14476 c -38,-7 -73,-13 -106,-20"
   id="path194" />
    <path
   fill="none"
   stroke="#000000"
   d="m 12084,14439 c -38,-8 -72,-17 -105,-25"
   id="path195" />
    <path
   fill="none"
   stroke="#000000"
   d="m 11901,14393 c -33,-10 -67,-19 -103,-30"
   id="path196" />
    <path
   fill="none"
   stroke="#000000"
   d="m 11750,14318 v -107"
   id="path197" />
    <path
   fill="none"
   stroke="#000000"
   d="m 11750,14130 v -108"
   id="path198" />
    <path
   fill="none"
   stroke="#000000"
   d="m 11750,13941 v -108"
   id="path199" />
    <path
   fill="none"
   stroke="#000000"
   d="m 11750,13752 v -107"
   id="path200" />
    <path
   fill="none"
   stroke="#000000"
   d="m 11750,13564 v -108"
   id="path201" />
    <path
   fill="none"
   stroke="#000000"
   d="m 11750,13375 v -108"
   id="path202" />
    <path
   fill="none"
   stroke="#000000"
   d="m 11750,13186 v -107"
   id="path203" />
    <path
   fill="none"
   stroke="#000000"
   d="m 11750,12998 v -108"
   id="path204" />
    <path
   fill="none"
   stroke="#000000"
   d="m 11750,12809 v -108"
   id="path205" />
    <path
   fill="none"
   stroke="#000000"
   d="m 11750,12620 v -107"
   id="path206" />
    <path
   fill="none"
   stroke="#000000"
   d="m 11750,12432 v -16"
   id="path207" />
    <path
   fill="none"
   stroke="#000000"
   d="m 11941,12416 h 108"
   id="path208" />
    <path
   fill="none"
   stroke="#000000"
   d="m 12130,12416 h 107"
   id="path209" />
    <path
   fill="none"
   stroke="#000000"
   d="m 12318,12416 h 108"
   id="path210" />
    <path
   fill="none"
   stroke="#000000"
   d="m 12507,12416 h 108"
   id="path211" />
    <path
   fill="none"
   stroke="#000000"
   d="m 12696,12416 h 107"
   id="path212" />
    <path
   fill="none"
   stroke="#000000"
   d="m 12884,12416 h 108"
   id="path213" />
    <path
   fill="none"
   stroke="#000000"
   d="m 13073,12416 h 108"
   id="path214" />
    <path
   fill="none"
   stroke="#000000"
   d="m 13262,12416 h 107"
   id="path215" />
    <path
   fill="none"
   stroke="#000000"
   d="m 13450,12416 h 108"
   id="path216" />
    <path
   fill="none"
   stroke="#000000"
   d="m 13639,12416 h 108"
   id="path217" />
    <path
   fill="none"
   stroke="#000000"
   d="m 13828,12416 h 107"
   id="path218" />
    <path
   fill="none"
   stroke="#000000"
   d="m 14016,12416 h 102 v 6"
   id="path219" />
    <path
   fill="none"
   stroke="#000000"
   d="m 14118,12503 v 108"
   id="path220" />
    <path
   fill="none"
   stroke="#000000"
   d="m 14118,12691 v 108"
   id="path221" />
    <path
   fill="none"
   stroke="#000000"
   d="m 14118,12880 v 108"
   id="path222" />
    <path
   fill="none"
   stroke="#000000"
   d="m 14118,13069 v 108"
   id="path223" />
    <path
   fill="none"
   stroke="#000000"
   d="m 14118,13257 v 108"
   id="path224" />
    <path
   fill="none"
   stroke="#000000"
   d="m 14118,13446 v 108"
   id="path225" />
    <path
   fill="none"
   stroke="#000000"
   d="m 14118,13635 v 108"
   id="path226" />
    <path
   fill="none"
   stroke="#000000"
   d="m 14118,13823 v 53"
   id="path227" />
    <path
   fill="none"
   stroke="#000000"
   d="m 12132,12208 h 108"
   id="path228" />
    <path
   fill="none"
   stroke="#000000"
   d="m 12321,12208 h 107"
   id="path229" />
    <path
   fill="none"
   stroke="#000000"
   d="m 12509,12208 h 108"
   id="path230" />
    <path
   fill="none"
   stroke="#000000"
   d="m 12698,12208 h 108"
   id="path231" />
    <path
   fill="none"
   stroke="#000000"
   d="m 12887,12208 h 107"
   id="path232" />
    <path
   fill="none"
   stroke="#000000"
   d="m 13075,12208 h 108"
   id="path233" />
    <path
   fill="none"
   stroke="#000000"
   d="m 13264,12208 h 108"
   id="path234" />
    <path
   fill="none"
   stroke="#000000"
   d="m 13453,12208 h 107"
   id="path235" />
    <path
   fill="none"
   stroke="#000000"
   d="m 13641,12208 h 108"
   id="path236" />
    <path
   fill="none"
   stroke="#000000"
   d="m 13830,12208 h 108"
   id="path237" />
    <path
   fill="none"
   stroke="#000000"
   d="m 14019,12208 h 107"
   id="path238" />
    <path
   fill="none"
   stroke="#000000"
   d="m 14207,12208 h 102 v 6"
   id="path239" />
    <path
   fill="none"
   stroke="#000000"
   d="m 14309,12295 v 108"
   id="path240" />
    <path
   fill="none"
   stroke="#000000"
   d="m 14309,12483 v 108"
   id="path241" />
    <path
   fill="none"
   stroke="#000000"
   d="m 14309,12672 v 108"
   id="path242" />
    <path
   fill="none"
   stroke="#000000"
   d="m 14309,12861 v 108"
   id="path243" />
    <path
   fill="none"
   stroke="#000000"
   d="m 14309,13049 v 108"
   id="path244" />
    <path
   fill="none"
   stroke="#000000"
   d="m 14309,13238 v 108"
   id="path245" />
    <path
   fill="none"
   stroke="#000000"
   d="m 14309,13427 v 108"
   id="path246" />
    <path
   fill="none"
   stroke="#000000"
   d="m 14309,13615 v 53"
   id="path247" />
    <text
   class="SVGTextShape"
   id="text251"><tspan
     class="TextParagraph"
     id="tspan251"><tspan
       class="TextPosition"
       x="12479"
       y="13103"
       id="tspan248"><tspan
         font-family="'Fira Sans Compressed', sans-serif"
         font-size="564px"
         font-weight="400"
         lengthAdjust="spacingAndGlyphs"
         fill="#000000"
         stroke="none"
         style="white-space:pre"
         id="tspan247">New </tspan></tspan><tspan
       class="TextPosition"
       x="12321"
       y="13776"
       id="tspan250"><tspan
         font-family="'Fira Sans Compressed', sans-serif"
         font-size="564px"
         font-weight="400"
         lengthAdjust="spacingAndGlyphs"
         fill="#000000"
         stroke="none"
         style="white-space:pre"
         id="tspan249">filters</tspan></tspan></tspan></text>
   </g>
  </g>
  <g
   class="com.sun.star.drawing.CustomShape"
   id="g353">
   <g
   id="id21">
    <rect
   class="BoundingBox"
   stroke="none"
   fill="none"
   x="16499"
   y="11999"
   width="3004"
   height="2495"
   id="rect251" />
    <path
   fill="#ffdbb6"
   stroke="none"
   d="m 16500,12416 h 208 v -208 h 208 v -208 h 2585 v 1668 h -209 v 208 h -208 v 209 c -971,-14 -991,327 -1913,407 -331,-48 -450,-86 -671,-142 z"
   id="path251" />
    <path
   fill="none"
   stroke="#000000"
   d="m 16500,12416 h 108"
   id="path252" />
    <path
   fill="none"
   stroke="#000000"
   d="m 16689,12416 h 19 v -88"
   id="path253" />
    <path
   fill="none"
   stroke="#000000"
   d="m 16708,12247 v -39 h 69"
   id="path254" />
    <path
   fill="none"
   stroke="#000000"
   d="m 16858,12208 h 58 v -50"
   id="path255" />
    <path
   fill="none"
   stroke="#000000"
   d="m 16916,12077 v -77 h 30"
   id="path256" />
    <path
   fill="none"
   stroke="#000000"
   d="m 17027,12000 h 108"
   id="path257" />
    <path
   fill="none"
   stroke="#000000"
   d="m 17216,12000 h 108"
   id="path258" />
    <path
   fill="none"
   stroke="#000000"
   d="m 17405,12000 h 107"
   id="path259" />
    <path
   fill="none"
   stroke="#000000"
   d="m 17593,12000 h 108"
   id="path260" />
    <path
   fill="none"
   stroke="#000000"
   d="m 17782,12000 h 108"
   id="path261" />
    <path
   fill="none"
   stroke="#000000"
   d="m 17970,12000 h 108"
   id="path262" />
    <path
   fill="none"
   stroke="#000000"
   d="m 18159,12000 h 108"
   id="path263" />
    <path
   fill="none"
   stroke="#000000"
   d="m 18348,12000 h 108"
   id="path264" />
    <path
   fill="none"
   stroke="#000000"
   d="m 18536,12000 h 108"
   id="path265" />
    <path
   fill="none"
   stroke="#000000"
   d="m 18725,12000 h 108"
   id="path266" />
    <path
   fill="none"
   stroke="#000000"
   d="m 18914,12000 h 108"
   id="path267" />
    <path
   fill="none"
   stroke="#000000"
   d="m 19102,12000 h 108"
   id="path268" />
    <path
   fill="none"
   stroke="#000000"
   d="m 19291,12000 h 108"
   id="path269" />
    <path
   fill="none"
   stroke="#000000"
   d="m 19480,12000 h 21 v 86"
   id="path270" />
    <path
   fill="none"
   stroke="#000000"
   d="m 19501,12167 v 108"
   id="path271" />
    <path
   fill="none"
   stroke="#000000"
   d="m 19501,12356 v 108"
   id="path272" />
    <path
   fill="none"
   stroke="#000000"
   d="m 19501,12545 v 107"
   id="path273" />
    <path
   fill="none"
   stroke="#000000"
   d="m 19501,12733 v 108"
   id="path274" />
    <path
   fill="none"
   stroke="#000000"
   d="m 19501,12922 v 108"
   id="path275" />
    <path
   fill="none"
   stroke="#000000"
   d="m 19501,13111 v 107"
   id="path276" />
    <path
   fill="none"
   stroke="#000000"
   d="m 19501,13299 v 108"
   id="path277" />
    <path
   fill="none"
   stroke="#000000"
   d="m 19501,13488 v 108"
   id="path278" />
    <path
   fill="none"
   stroke="#000000"
   d="m 19492,13668 h -107"
   id="path279" />
    <path
   fill="none"
   stroke="#000000"
   d="m 19304,13668 h -12 v 96"
   id="path280" />
    <path
   fill="none"
   stroke="#000000"
   d="m 19292,13845 v 31 h -77"
   id="path281" />
    <path
   fill="none"
   stroke="#000000"
   d="m 19135,13876 h -51 v 57"
   id="path282" />
    <path
   fill="none"
   stroke="#000000"
   d="m 19084,14014 v 71 c -14,0 -27,0 -40,0"
   id="path283" />
    <path
   fill="none"
   stroke="#000000"
   d="m 18960,14085 c -36,1 -71,2 -105,4"
   id="path284" />
    <path
   fill="none"
   stroke="#000000"
   d="m 18775,14094 c -38,3 -74,7 -109,11"
   id="path285" />
    <path
   fill="none"
   stroke="#000000"
   d="m 18590,14116 c -38,6 -74,13 -109,20"
   id="path286" />
    <path
   fill="none"
   stroke="#000000"
   d="m 18405,14155 c -36,9 -71,19 -104,30"
   id="path287" />
    <path
   fill="none"
   stroke="#000000"
   d="m 18225,14210 c -34,12 -68,25 -101,37"
   id="path288" />
    <path
   fill="none"
   stroke="#000000"
   d="m 18049,14277 c -33,13 -66,26 -100,39"
   id="path289" />
    <path
   fill="none"
   stroke="#000000"
   d="m 17874,14343 c -33,12 -66,23 -102,35"
   id="path290" />
    <path
   fill="none"
   stroke="#000000"
   d="m 17696,14400 c -34,10 -68,19 -105,27"
   id="path291" />
    <path
   fill="none"
   stroke="#000000"
   d="m 17514,14444 c -35,7 -71,14 -109,20"
   id="path292" />
    <path
   fill="none"
   stroke="#000000"
   d="m 17329,14475 c -35,4 -72,9 -109,12"
   id="path293" />
    <path
   fill="none"
   stroke="#000000"
   d="m 17134,14487 c -38,-6 -73,-12 -106,-17"
   id="path294" />
    <path
   fill="none"
   stroke="#000000"
   d="m 16949,14456 c -38,-7 -73,-14 -105,-21"
   id="path295" />
    <path
   fill="none"
   stroke="#000000"
   d="m 16765,14417 c -36,-8 -70,-17 -104,-26"
   id="path296" />
    <path
   fill="none"
   stroke="#000000"
   d="m 16583,14371 c -27,-7 -54,-14 -83,-21 v -23"
   id="path297" />
    <path
   fill="none"
   stroke="#000000"
   d="m 16500,14246 v -108"
   id="path298" />
    <path
   fill="none"
   stroke="#000000"
   d="m 16500,14058 v -108"
   id="path299" />
    <path
   fill="none"
   stroke="#000000"
   d="m 16500,13869 v -108"
   id="path300" />
    <path
   fill="none"
   stroke="#000000"
   d="m 16500,13680 v -108"
   id="path301" />
    <path
   fill="none"
   stroke="#000000"
   d="m 16500,13492 v -108"
   id="path302" />
    <path
   fill="none"
   stroke="#000000"
   d="m 16500,13303 v -108"
   id="path303" />
    <path
   fill="none"
   stroke="#000000"
   d="m 16500,13114 v -108"
   id="path304" />
    <path
   fill="none"
   stroke="#000000"
   d="m 16500,12926 v -108"
   id="path305" />
    <path
   fill="none"
   stroke="#000000"
   d="m 16500,12737 v -108"
   id="path306" />
    <path
   fill="none"
   stroke="#000000"
   d="m 16500,12548 v -107"
   id="path307" />
    <path
   fill="none"
   stroke="#000000"
   d="m 16708,12416 h 108"
   id="path308" />
    <path
   fill="none"
   stroke="#000000"
   d="m 16897,12416 h 107"
   id="path309" />
    <path
   fill="none"
   stroke="#000000"
   d="m 17085,12416 h 108"
   id="path310" />
    <path
   fill="none"
   stroke="#000000"
   d="m 17274,12416 h 108"
   id="path311" />
    <path
   fill="none"
   stroke="#000000"
   d="m 17463,12416 h 107"
   id="path312" />
    <path
   fill="none"
   stroke="#000000"
   d="m 17651,12416 h 108"
   id="path313" />
    <path
   fill="none"
   stroke="#000000"
   d="m 17840,12416 h 108"
   id="path314" />
    <path
   fill="none"
   stroke="#000000"
   d="m 18029,12416 h 107"
   id="path315" />
    <path
   fill="none"
   stroke="#000000"
   d="m 18217,12416 h 108"
   id="path316" />
    <path
   fill="none"
   stroke="#000000"
   d="m 18406,12416 h 108"
   id="path317" />
    <path
   fill="none"
   stroke="#000000"
   d="m 18595,12416 h 107"
   id="path318" />
    <path
   fill="none"
   stroke="#000000"
   d="m 18783,12416 h 108"
   id="path319" />
    <path
   fill="none"
   stroke="#000000"
   d="m 18972,12416 h 108"
   id="path320" />
    <path
   fill="none"
   stroke="#000000"
   d="m 19084,12492 v 108"
   id="path321" />
    <path
   fill="none"
   stroke="#000000"
   d="m 19084,12681 v 108"
   id="path322" />
    <path
   fill="none"
   stroke="#000000"
   d="m 19084,12870 v 108"
   id="path323" />
    <path
   fill="none"
   stroke="#000000"
   d="m 19084,13058 v 108"
   id="path324" />
    <path
   fill="none"
   stroke="#000000"
   d="m 19084,13247 v 108"
   id="path325" />
    <path
   fill="none"
   stroke="#000000"
   d="m 19084,13436 v 108"
   id="path326" />
    <path
   fill="none"
   stroke="#000000"
   d="m 19084,13624 v 108"
   id="path327" />
    <path
   fill="none"
   stroke="#000000"
   d="m 19084,13813 v 63"
   id="path328" />
    <path
   fill="none"
   stroke="#000000"
   d="m 16916,12208 h 108"
   id="path329" />
    <path
   fill="none"
   stroke="#000000"
   d="m 17105,12208 h 107"
   id="path330" />
    <path
   fill="none"
   stroke="#000000"
   d="m 17293,12208 h 108"
   id="path331" />
    <path
   fill="none"
   stroke="#000000"
   d="m 17482,12208 h 108"
   id="path332" />
    <path
   fill="none"
   stroke="#000000"
   d="m 17671,12208 h 107"
   id="path333" />
    <path
   fill="none"
   stroke="#000000"
   d="m 17859,12208 h 108"
   id="path334" />
    <path
   fill="none"
   stroke="#000000"
   d="m 18048,12208 h 108"
   id="path335" />
    <path
   fill="none"
   stroke="#000000"
   d="m 18237,12208 h 107"
   id="path336" />
    <path
   fill="none"
   stroke="#000000"
   d="m 18425,12208 h 108"
   id="path337" />
    <path
   fill="none"
   stroke="#000000"
   d="m 18614,12208 h 108"
   id="path338" />
    <path
   fill="none"
   stroke="#000000"
   d="m 18803,12208 h 107"
   id="path339" />
    <path
   fill="none"
   stroke="#000000"
   d="m 18991,12208 h 108"
   id="path340" />
    <path
   fill="none"
   stroke="#000000"
   d="m 19180,12208 h 108"
   id="path341" />
    <path
   fill="none"
   stroke="#000000"
   d="m 19292,12284 v 108"
   id="path342" />
    <path
   fill="none"
   stroke="#000000"
   d="m 19292,12473 v 108"
   id="path343" />
    <path
   fill="none"
   stroke="#000000"
   d="m 19292,12662 v 108"
   id="path344" />
    <path
   fill="none"
   stroke="#000000"
   d="m 19292,12850 v 108"
   id="path345" />
    <path
   fill="none"
   stroke="#000000"
   d="m 19292,13039 v 108"
   id="path346" />
    <path
   fill="none"
   stroke="#000000"
   d="m 19292,13228 v 108"
   id="path347" />
    <path
   fill="none"
   stroke="#000000"
   d="m 19292,13416 v 108"
   id="path348" />
    <path
   fill="none"
   stroke="#000000"
   d="m 19292,13605 v 63"
   id="path349" />
    <text
   class="SVGTextShape"
   id="text353"><tspan
     class="TextParagraph"
     id="tspan353"><tspan
       class="TextPosition"
       x="17337"
       y="13103"
       id="tspan350"><tspan
         font-family="'Fira Sans Compressed', sans-serif"
         font-size="564px"
         font-weight="400"
         lengthAdjust="spacingAndGlyphs"
         fill="#000000"
         stroke="none"
         style="white-space:pre"
         id="tspan349">New </tspan></tspan><tspan
       class="TextPosition"
       x="17250"
       y="13776"
       id="tspan352"><tspan
         font-family="'Fira Sans Compressed', sans-serif"
         font-size="564px"
         font-weight="400"
         lengthAdjust="spacingAndGlyphs"
         fill="#000000"
         stroke="none"
         style="white-space:pre"
         id="tspan351">sinks</tspan></tspan></tspan></text>
   </g>
  </g>
  <g
   class="com.sun.star.drawing.ConnectorShape"
   id="g355">
   <g
   id="id22">
    <rect
   class="BoundingBox"
   stroke="none"
   fill="none"
   x="13125"
   y="14303"
   width="3501"
   height="2448"
   id="rect353" />
    <path
   fill="none"
   stroke="#000000"
   stroke-width="53"
   stroke-linejoin="round"
   stroke-dasharray="159, 53"
   d="M 16412,16601 13338,14452"
   id="path353" />
    <path
   fill="#000000"
   stroke="none"
   d="m 16476,16476 149,274 -309,-46 z"
   id="path354" />
    <path
   fill="#000000"
   stroke="none"
   d="m 13274,14577 -149,-274 309,46 z"
   id="path355" />
   </g>
  </g>
  <g
   class="com.sun.star.drawing.ConnectorShape"
   id="g358">
   <g
   id="id23">
    <rect
   class="BoundingBox"
   stroke="none"
   fill="none"
   x="16625"
   y="14303"
   width="1376"
   height="2448"
   id="rect355" />
    <path
   fill="none"
   stroke="#000000"
   stroke-width="53"
   stroke-linejoin="round"
   stroke-dasharray="159, 53"
   d="m 16753,16523 1119,-1993"
   id="path356" />
    <path
   fill="#000000"
   stroke="none"
   d="m 16883,16575 -258,175 15,-312 z"
   id="path357" />
    <path
   fill="#000000"
   stroke="none"
   d="m 17742,14478 258,-175 -15,312 z"
   id="path358" />
   </g>
  </g>
  <g
   class="com.sun.star.drawing.LineShape"
   id="g360">
   <g
   id="id24">
    <rect
   class="BoundingBox"
   stroke="none"
   fill="none"
   x="17616"
   y="9000"
   width="426"
   height="3042"
   id="rect358" />
    <path
   fill="none"
   stroke="#808080"
   stroke-width="81"
   stroke-linejoin="round"
   stroke-linecap="round"
   stroke-dasharray="162.81, 161.19"
   d="M 18000,12000 17775,9299"
   id="path359" />
    <path
   fill="#808080"
   stroke="none"
   d="m 17617,9333 133,-333 187,307 z"
   id="path360" />
   </g>
  </g>
  <g
   class="com.sun.star.drawing.LineShape"
   id="g362">
   <g
   id="id25">
    <rect
   class="BoundingBox"
   stroke="none"
   fill="none"
   x="12750"
   y="9000"
   width="5292"
   height="3042"
   id="rect360" />
    <path
   fill="none"
   stroke="#808080"
   stroke-width="81"
   stroke-linejoin="round"
   stroke-linecap="round"
   stroke-dasharray="162.81, 161.19"
   d="M 18000,12000 13010,9149"
   id="path361" />
    <path
   fill="#808080"
   stroke="none"
   d="m 12949,9299 -199,-299 358,20 z"
   id="path362" />
   </g>
  </g>
  <g
   class="com.sun.star.drawing.LineShape"
   id="g364">
   <g
   id="id26">
    <rect
   class="BoundingBox"
   stroke="none"
   fill="none"
   x="8000"
   y="8938"
   width="10042"
   height="3104"
   id="rect362" />
    <path
   fill="none"
   stroke="#808080"
   stroke-width="81"
   stroke-linejoin="round"
   stroke-linecap="round"
   stroke-dasharray="162.81, 161.19"
   d="M 18000,12000 8287,9086"
   id="path363" />
    <path
   fill="#808080"
   stroke="none"
   d="m 8261,9246 -261,-246 354,-61 z"
   id="path364" />
   </g>
  </g>
  <g
   class="com.sun.star.drawing.LineShape"
   id="g366">
   <g
   id="id27">
    <rect
   class="BoundingBox"
   stroke="none"
   fill="none"
   x="3249"
   y="8906"
   width="14793"
   height="3136"
   id="rect364" />
    <path
   fill="none"
   stroke="#808080"
   stroke-width="81"
   stroke-linejoin="round"
   stroke-linecap="round"
   stroke-dasharray="162.81, 161.19"
   d="M 18000,12000 3544,9060"
   id="path365" />
    <path
   fill="#808080"
   stroke="none"
   d="m 3533,9221 -283,-221 347,-93 z"
   id="path366" />
   </g>
  </g>
  <g
   class="com.sun.star.drawing.LineShape"
   id="g369">
   <g
   id="id28">
    <rect
   class="BoundingBox"
   stroke="none"
   fill="none"
   x="3750"
   y="14165"
   width="13001"
   height="2671"
   id="rect366" />
    <path
   fill="none"
   stroke="#000000"
   stroke-width="53"
   stroke-linejoin="round"
   d="M 16494,16701 4006,14299"
   id="path367" />
    <path
   fill="#000000"
   stroke="none"
   d="m 16502,16560 248,190 -300,84 z"
   id="path368" />
    <path
   fill="#000000"
   stroke="none"
   d="m 3998,14440 -248,-190 300,-84 z"
   id="path369" />
   </g>
  </g>
  <g
   class="com.sun.star.drawing.LineShape"
   id="g372">
   <g
   id="id29">
    <rect
   class="BoundingBox"
   stroke="none"
   fill="none"
   x="9000"
   y="14202"
   width="7751"
   height="2597"
   id="rect369" />
    <path
   fill="none"
   stroke="#000000"
   stroke-width="53"
   stroke-linejoin="round"
   d="M 16502,16670 9248,14330"
   id="path370" />
    <path
   fill="#000000"
   stroke="none"
   d="m 16527,16532 223,218 -308,47 z"
   id="path371" />
    <path
   fill="#000000"
   stroke="none"
   d="m 9223,14468 -223,-218 308,-47 z"
   id="path372" />
   </g>
  </g>
  <g
   class="com.sun.star.drawing.CustomShape"
   id="g376">
   <g
   id="id30">
    <rect
   class="BoundingBox"
   stroke="none"
   fill="none"
   x="8499"
   y="18249"
   width="5004"
   height="1754"
   id="rect372" />
    <path
   fill="#e0c2cd"
   stroke="none"
   d="m 8500,18687 h 3750 v -437 l 1251,875 -1251,876 v -438 H 8500 Z"
   id="path373" />
    <path
   fill="none"
   stroke="#3465a4"
   d="m 8500,18687 h 3750 v -437 l 1251,875 -1251,876 v -438 H 8500 Z"
   id="path374" />
    <text
   class="SVGTextShape"
   id="text376"><tspan
     class="TextParagraph"
     id="tspan376"><tspan
       class="TextPosition"
       x="10002"
       y="19303"
       id="tspan375"><tspan
         font-family="'Fira Sans Compressed', sans-serif"
         font-size="529px"
         font-weight="400"
         lengthAdjust="spacingAndGlyphs"
         fill="#000000"
         stroke="none"
         style="white-space:pre"
         id="tspan374">clone()</tspan></tspan></tspan></text>
   </g>
  </g>
 </g>
</svg>
