<?xml version="1.0" encoding="UTF-8" standalone="no"?>
<svg
   width="1097.0291"
   height="250.903"
   viewBox="0 0 1097.029 250.903"
   version="1.1"
   id="svg29"
   sodipodi:docname="violin-3.svg"
   inkscape:version="1.4.4 (dcaf3e7d9e, 2026-05-05)"
   xmlns:inkscape="http://www.inkscape.org/namespaces/inkscape"
   xmlns:sodipodi="http://sodipodi.sourceforge.net/DTD/sodipodi-0.dtd"
   xmlns="http://www.w3.org/2000/svg"
   xmlns:svg="http://www.w3.org/2000/svg">
  <defs
     id="defs29" />
  <sodipodi:namedview
     id="namedview29"
     pagecolor="#ffffff"
     bordercolor="#000000"
     borderopacity="0.25"
     inkscape:showpageshadow="2"
     inkscape:pageopacity="0.0"
     inkscape:pagecheckerboard="0"
     inkscape:deskcolor="#d1d1d1"
     inkscape:zoom="1.5234375"
     inkscape:cx="510.03077"
     inkscape:cy="210.70769"
     inkscape:window-width="3072"
     inkscape:window-height="1659"
     inkscape:window-x="0"
     inkscape:window-y="0"
     inkscape:window-maximized="1"
     inkscape:current-layer="svg29" />
  <rect
     style="fill:#ffffff;"
     id="rect_bg"
     width="100%"
     height="100%"
     x="0"
     y="0" />
  <text
     x="625.02893"
     y="4.9998641"
     dy="12.258064"
     text-anchor="middle"
     font-family="sans-serif"
     font-size="16.129px"
     opacity="1"
     fill="#000000"
     id="text1">Rasant Modes Comparison (INFO): Violin plot</text>
  <text
     x="-117.99986"
     y="4.5549483"
     dy="7.3548388"
     text-anchor="middle"
     font-family="sans-serif"
     font-size="9.67742px"
     opacity="1"
     fill="#000000"
     transform="rotate(-90)"
     id="text2">Input</text>
  <text
     x="673.02893"
     y="245.99986"
     dy="-2.4193549"
     text-anchor="middle"
     font-family="sans-serif"
     font-size="9.67742px"
     opacity="1"
     fill="#000000"
     id="text3">Average time (ns)</text>
  <polyline
     fill="none"
     opacity="1"
     stroke="#000000"
     stroke-width="1"
     points="107,38 107,197 "
     id="polyline3"
     transform="translate(145.02893,-1.3581789e-4)" />
  <text
     x="243.02893"
     y="183.99986"
     dy="2.016129"
     text-anchor="end"
     font-family="sans-serif"
     font-size="8.06452px"
     opacity="1"
     fill="#000000"
     id="text4">Rasant Modes Comparison (INFO)/no args</text>
  <polyline
     fill="none"
     opacity="1"
     stroke="#000000"
     stroke-width="1"
     points="102,184 107,184 "
     id="polyline4"
     transform="translate(145.02893,-1.3581789e-4)" />
  <text
     x="243.02893"
     y="157.99986"
     dy="2.016129"
     text-anchor="end"
     font-family="sans-serif"
     font-size="8.06452px"
     opacity="1"
     fill="#000000"
     id="text5">Rasant Modes Comparison (INFO)/fixed args</text>
  <polyline
     fill="none"
     opacity="1"
     stroke="#000000"
     stroke-width="1"
     points="102,158 107,158 "
     id="polyline5"
     transform="translate(145.02893,-1.3581789e-4)" />
  <text
     x="243.02893"
     y="130.99986"
     dy="2.016129"
     text-anchor="end"
     font-family="sans-serif"
     font-size="8.06452px"
     opacity="1"
     fill="#000000"
     id="text6">Rasant Modes Comparison (INFO)/async, no args</text>
  <polyline
     fill="none"
     opacity="1"
     stroke="#000000"
     stroke-width="1"
     points="102,131 107,131 "
     id="polyline6"
     transform="translate(145.02893,-1.3581789e-4)" />
  <text
     x="243.02893"
     y="104.99986"
     dy="2.016129"
     text-anchor="end"
     font-family="sans-serif"
     font-size="8.06452px"
     opacity="1"
     fill="#000000"
     id="text7">Rasant Modes Comparison (INFO)/async, fixed args</text>
  <polyline
     fill="none"
     opacity="1"
     stroke="#000000"
     stroke-width="1"
     points="102,105 107,105 "
     id="polyline7"
     transform="translate(145.02893,-1.3581789e-4)" />
  <text
     x="243.02893"
     y="77.999863"
     dy="2.016129"
     text-anchor="end"
     font-family="sans-serif"
     font-size="8.06452px"
     opacity="1"
     fill="#000000"
     id="text8">Rasant Modes Comparison (INFO)/async, args in request</text>
  <polyline
     fill="none"
     opacity="1"
     stroke="#000000"
     stroke-width="1"
     points="102,78 107,78 "
     id="polyline8"
     transform="translate(145.02893,-1.3581789e-4)" />
  <text
     x="243.02893"
     y="51.999863"
     dy="2.016129"
     text-anchor="end"
     font-family="sans-serif"
     font-size="8.06452px"
     opacity="1"
     fill="#000000"
     id="text9">Rasant Modes Comparison (INFO)/args in request</text>
  <polyline
     fill="none"
     opacity="1"
     stroke="#000000"
     stroke-width="1"
     points="102,52 107,52 "
     id="polyline9"
     transform="translate(145.02893,-1.3581789e-4)" />
  <polyline
     fill="none"
     opacity="1"
     stroke="#000000"
     stroke-width="1"
     points="108,198 947,198 "
     id="polyline10"
     transform="translate(145.02893,-1.3581789e-4)" />
  <text
     x="253.02893"
     y="207.99986"
     dy="7.3548388"
     text-anchor="middle"
     font-family="sans-serif"
     font-size="9.67742px"
     opacity="1"
     fill="#000000"
     id="text10">0.0</text>
  <polyline
     fill="none"
     opacity="1"
     stroke="#000000"
     stroke-width="1"
     points="108,198 108,203 "
     id="polyline11"
     transform="translate(145.02893,-1.3581789e-4)" />
  <text
     x="370.02893"
     y="207.99986"
     dy="7.3548388"
     text-anchor="middle"
     font-family="sans-serif"
     font-size="9.67742px"
     opacity="1"
     fill="#000000"
     id="text11">100.0</text>
  <polyline
     fill="none"
     opacity="1"
     stroke="#000000"
     stroke-width="1"
     points="225,198 225,203 "
     id="polyline12"
     transform="translate(145.02893,-1.3581789e-4)" />
  <text
     x="488.02893"
     y="207.99986"
     dy="7.3548388"
     text-anchor="middle"
     font-family="sans-serif"
     font-size="9.67742px"
     opacity="1"
     fill="#000000"
     id="text12">200.0</text>
  <polyline
     fill="none"
     opacity="1"
     stroke="#000000"
     stroke-width="1"
     points="343,198 343,203 "
     id="polyline13"
     transform="translate(145.02893,-1.3581789e-4)" />
  <text
     x="606.02893"
     y="207.99986"
     dy="7.3548388"
     text-anchor="middle"
     font-family="sans-serif"
     font-size="9.67742px"
     opacity="1"
     fill="#000000"
     id="text13">300.0</text>
  <polyline
     fill="none"
     opacity="1"
     stroke="#000000"
     stroke-width="1"
     points="461,198 461,203 "
     id="polyline14"
     transform="translate(145.02893,-1.3581789e-4)" />
  <text
     x="723.02893"
     y="207.99986"
     dy="7.3548388"
     text-anchor="middle"
     font-family="sans-serif"
     font-size="9.67742px"
     opacity="1"
     fill="#000000"
     id="text14">400.0</text>
  <polyline
     fill="none"
     opacity="1"
     stroke="#000000"
     stroke-width="1"
     points="578,198 578,203 "
     id="polyline15"
     transform="translate(145.02893,-1.3581789e-4)" />
  <text
     x="841.02893"
     y="207.99986"
     dy="7.3548388"
     text-anchor="middle"
     font-family="sans-serif"
     font-size="9.67742px"
     opacity="1"
     fill="#000000"
     id="text15">500.0</text>
  <polyline
     fill="none"
     opacity="1"
     stroke="#000000"
     stroke-width="1"
     points="696,198 696,203 "
     id="polyline16"
     transform="translate(145.02893,-1.3581789e-4)" />
  <text
     x="959.02893"
     y="207.99986"
     dy="7.3548388"
     text-anchor="middle"
     font-family="sans-serif"
     font-size="9.67742px"
     opacity="1"
     fill="#000000"
     id="text16">600.0</text>
  <polyline
     fill="none"
     opacity="1"
     stroke="#000000"
     stroke-width="1"
     points="814,198 814,203 "
     id="polyline17"
     transform="translate(145.02893,-1.3581789e-4)" />
  <text
     x="1076.0289"
     y="207.99986"
     dy="7.3548388"
     text-anchor="middle"
     font-family="sans-serif"
     font-size="9.67742px"
     opacity="1"
     fill="#000000"
     id="text17">700.0</text>
  <polyline
     fill="none"
     opacity="1"
     stroke="#000000"
     stroke-width="1"
     points="931,198 931,203 "
     id="polyline18"
     transform="translate(145.02893,-1.3581789e-4)" />
  <polygon
     opacity="1"
     fill="#1f78b4"
     points="322,184 322,184 322,184 322,184 322,184 322,184 322,184 322,184 322,184 322,184 323,184 323,184 323,184 323,184 323,184 323,184 323,184 323,184 323,184 323,184 324,184 324,184 324,184 324,184 324,184 324,184 324,184 324,184 324,184 324,184 324,184 325,184 325,184 325,184 325,184 325,183 325,183 325,183 325,183 325,183 325,183 325,183 326,183 326,183 326,183 326,183 326,183 326,183 326,183 326,183 326,182 326,182 326,182 327,182 327,182 327,182 327,182 327,182 327,182 327,181 327,181 327,181 327,181 328,181 328,181 328,181 328,181 328,180 328,180 328,180 328,180 328,180 328,180 328,179 329,179 329,179 329,179 329,179 329,179 329,178 329,178 329,178 329,178 329,178 329,177 330,177 330,177 330,177 330,177 330,176 330,176 330,176 330,176 330,176 330,175 331,175 331,175 331,175 331,175 331,174 331,174 331,174 331,174 331,174 331,174 331,173 332,173 332,173 332,173 332,173 332,173 332,173 332,172 332,172 332,172 332,172 332,172 333,172 333,172 333,172 333,172 333,172 333,172 333,172 333,171 333,171 333,171 333,171 334,171 334,171 334,171 334,171 334,171 334,172 334,172 334,172 334,172 334,172 335,172 335,172 335,172 335,172 335,172 335,172 335,172 335,173 335,173 335,173 335,173 336,173 336,173 336,173 336,173 336,174 336,174 336,174 336,174 336,174 336,174 336,175 337,175 337,175 337,175 337,175 337,176 337,176 337,176 337,176 337,176 337,176 338,177 338,177 338,177 338,177 338,177 338,177 338,178 338,178 338,178 338,178 338,178 339,178 339,179 339,179 339,179 339,179 339,179 339,179 339,179 339,179 339,180 339,180 340,180 340,180 340,180 340,180 340,180 340,180 340,180 340,180 340,180 340,180 341,180 341,180 341,180 341,180 341,180 341,180 341,180 341,180 341,180 341,180 341,180 342,180 342,180 342,180 342,180 342,180 342,180 342,180 342,180 342,180 342,180 342,180 343,180 343,179 343,179 343,179 343,179 343,179 343,179 343,179 343,179 343,178 343,178 344,178 344,178 344,178 344,178 344,178 344,177 344,177 344,177 344,177 344,177 345,177 345,176 345,176 345,176 345,176 345,176 345,175 345,175 345,175 345,175 345,175 346,174 346,174 346,174 346,174 346,174 346,174 346,173 346,173 346,173 346,173 346,173 347,173 347,173 347,172 347,172 347,172 347,172 347,172 347,172 347,172 347,172 348,172 348,171 348,171 348,171 348,171 348,171 348,171 348,171 348,171 348,171 348,171 349,171 349,171 349,171 349,171 349,171 349,171 349,171 349,171 349,171 349,171 349,171 350,171 350,171 350,172 350,172 350,172 350,172 350,172 350,172 350,172 350,172 350,172 351,173 351,173 351,173 351,173 351,173 351,173 351,174 351,174 351,174 351,174 352,174 352,174 352,175 352,175 352,175 352,175 352,175 352,176 352,176 352,176 352,176 353,176 353,176 353,177 353,177 353,177 353,177 353,177 353,178 353,178 353,178 353,178 354,178 354,178 354,179 354,179 354,179 354,179 354,179 354,179 354,180 354,180 355,180 355,180 355,180 355,180 355,180 355,181 355,181 355,181 355,181 355,181 355,181 356,181 356,181 356,182 356,182 356,182 356,182 356,182 356,182 356,182 356,182 356,182 357,182 357,182 357,182 357,183 357,183 357,183 357,183 357,183 357,183 357,183 358,183 358,183 358,183 358,183 358,183 358,183 358,183 358,183 358,183 358,183 358,183 359,183 359,183 359,183 359,184 359,184 359,184 359,184 359,184 359,184 359,184 359,184 360,184 360,184 360,184 360,184 360,184 360,184 360,184 360,184 360,184 360,184 360,184 361,184 361,184 361,184 361,184 361,184 361,184 361,184 361,184 361,184 361,184 362,184 362,184 362,184 362,184 362,184 362,184 362,184 362,184 362,184 362,184 362,184 363,184 363,184 363,184 363,184 363,184 363,184 363,184 363,184 363,184 363,184 363,184 364,184 364,184 364,184 364,184 364,184 364,184 364,184 364,184 364,184 364,184 365,184 365,184 365,184 365,184 365,184 365,184 365,184 365,184 365,184 365,184 365,184 366,184 366,184 366,184 366,184 366,184 366,184 366,184 366,184 366,184 366,184 366,184 367,184 367,184 367,184 367,184 367,184 367,184 367,184 320,184 321,184 322,184 "
     id="polygon18"
     transform="translate(145.02893,-1.3581789e-4)" />
  <polygon
     opacity="1"
     fill="#1f78b4"
     points="322,184 322,184 322,184 322,184 322,184 322,184 322,184 322,184 322,184 322,184 323,184 323,184 323,184 323,184 323,184 323,184 323,184 323,184 323,184 323,185 324,185 324,185 324,185 324,185 324,185 324,185 324,185 324,185 324,185 324,185 324,185 325,185 325,185 325,185 325,185 325,185 325,185 325,185 325,185 325,185 325,185 325,185 326,185 326,185 326,186 326,186 326,186 326,186 326,186 326,186 326,186 326,186 326,186 327,186 327,186 327,187 327,187 327,187 327,187 327,187 327,187 327,187 327,187 328,188 328,188 328,188 328,188 328,188 328,188 328,188 328,189 328,189 328,189 328,189 329,189 329,189 329,190 329,190 329,190 329,190 329,190 329,191 329,191 329,191 329,191 330,191 330,192 330,192 330,192 330,192 330,192 330,193 330,193 330,193 330,193 331,193 331,193 331,194 331,194 331,194 331,194 331,194 331,195 331,195 331,195 331,195 332,195 332,195 332,196 332,196 332,196 332,196 332,196 332,196 332,196 332,196 332,196 333,197 333,197 333,197 333,197 333,197 333,197 333,197 333,197 333,197 333,197 333,197 334,197 334,197 334,197 334,197 334,197 334,197 334,197 334,197 334,197 334,197 335,197 335,197 335,197 335,196 335,196 335,196 335,196 335,196 335,196 335,196 335,196 336,195 336,195 336,195 336,195 336,195 336,195 336,195 336,194 336,194 336,194 336,194 337,194 337,193 337,193 337,193 337,193 337,193 337,193 337,192 337,192 337,192 338,192 338,192 338,192 338,191 338,191 338,191 338,191 338,191 338,191 338,190 338,190 339,190 339,190 339,190 339,190 339,190 339,189 339,189 339,189 339,189 339,189 339,189 340,189 340,189 340,189 340,189 340,188 340,188 340,188 340,188 340,188 340,188 341,188 341,188 341,188 341,188 341,188 341,188 341,188 341,188 341,188 341,188 341,188 342,188 342,188 342,188 342,188 342,188 342,188 342,188 342,189 342,189 342,189 342,189 343,189 343,189 343,189 343,189 343,189 343,189 343,190 343,190 343,190 343,190 343,190 344,190 344,190 344,191 344,191 344,191 344,191 344,191 344,191 344,192 344,192 345,192 345,192 345,192 345,193 345,193 345,193 345,193 345,193 345,193 345,194 345,194 346,194 346,194 346,194 346,195 346,195 346,195 346,195 346,195 346,195 346,196 346,196 347,196 347,196 347,196 347,196 347,196 347,196 347,197 347,197 347,197 347,197 348,197 348,197 348,197 348,197 348,197 348,197 348,197 348,197 348,197 348,197 348,197 349,197 349,197 349,197 349,197 349,197 349,197 349,197 349,197 349,197 349,197 349,197 350,197 350,197 350,197 350,197 350,197 350,197 350,197 350,196 350,196 350,196 350,196 351,196 351,196 351,196 351,195 351,195 351,195 351,195 351,195 351,195 351,194 352,194 352,194 352,194 352,194 352,194 352,193 352,193 352,193 352,193 352,193 352,192 353,192 353,192 353,192 353,192 353,191 353,191 353,191 353,191 353,191 353,191 353,190 354,190 354,190 354,190 354,190 354,190 354,189 354,189 354,189 354,189 354,189 355,189 355,188 355,188 355,188 355,188 355,188 355,188 355,188 355,188 355,187 355,187 356,187 356,187 356,187 356,187 356,187 356,187 356,187 356,187 356,186 356,186 356,186 357,186 357,186 357,186 357,186 357,186 357,186 357,186 357,186 357,186 357,186 358,186 358,186 358,185 358,185 358,185 358,185 358,185 358,185 358,185 358,185 358,185 359,185 359,185 359,185 359,185 359,185 359,185 359,185 359,185 359,185 359,185 359,185 360,185 360,185 360,185 360,185 360,185 360,185 360,185 360,185 360,185 360,185 360,185 361,185 361,185 361,185 361,185 361,185 361,184 361,184 361,184 361,184 361,184 362,184 362,184 362,184 362,184 362,184 362,184 362,184 362,184 362,184 362,184 362,184 363,184 363,184 363,184 363,184 363,184 363,184 363,184 363,184 363,184 363,184 363,184 364,184 364,184 364,184 364,184 364,184 364,184 364,184 364,184 364,184 364,184 365,184 365,184 365,184 365,184 365,184 365,184 365,184 365,184 365,184 365,184 365,184 366,184 366,184 366,184 366,184 366,184 366,184 366,184 366,184 366,184 366,184 366,184 367,184 367,184 367,184 367,184 367,184 367,184 367,184 320,184 321,184 322,184 "
     id="polygon19"
     transform="translate(145.02893,-1.3581789e-4)" />
  <polygon
     opacity="1"
     fill="#1f78b4"
     points="422,158 423,158 423,158 423,158 423,158 423,158 424,158 424,158 424,158 424,158 424,158 425,158 425,158 425,157 425,157 425,157 426,157 426,157 426,157 426,157 426,157 427,157 427,157 427,157 427,157 427,157 428,157 428,157 428,157 428,157 429,157 429,157 429,157 429,157 429,157 430,157 430,157 430,157 430,157 430,157 431,157 431,157 431,157 431,157 431,157 432,157 432,157 432,157 432,157 432,157 433,157 433,157 433,157 433,157 433,157 434,157 434,157 434,157 434,157 434,157 435,157 435,157 435,157 435,157 435,157 436,157 436,157 436,157 436,157 436,157 437,157 437,157 437,157 437,156 437,156 438,156 438,156 438,156 438,156 438,156 439,156 439,155 439,155 439,155 440,155 440,154 440,154 440,154 440,154 441,153 441,153 441,153 441,152 441,152 442,151 442,151 442,151 442,150 442,150 443,149 443,149 443,149 443,148 443,148 444,147 444,147 444,147 444,146 444,146 445,146 445,146 445,145 445,145 445,145 446,145 446,145 446,145 446,145 446,144 447,145 447,145 447,145 447,145 447,145 448,145 448,145 448,145 448,146 448,146 449,146 449,146 449,147 449,147 449,147 450,148 450,148 450,148 450,149 450,149 451,150 451,150 451,150 451,151 452,151 452,151 452,152 452,152 452,152 453,153 453,153 453,153 453,154 453,154 454,154 454,154 454,155 454,155 454,155 455,155 455,155 455,156 455,156 455,156 456,156 456,156 456,156 456,156 456,156 457,157 457,157 457,157 457,157 457,157 458,157 458,157 458,157 458,157 458,157 459,157 459,157 459,157 459,157 459,157 460,157 460,157 460,157 460,158 460,158 461,158 461,158 461,158 461,158 461,158 462,158 462,158 462,158 462,158 462,158 463,158 463,158 463,158 463,158 464,158 464,158 464,158 464,158 464,158 465,158 465,158 465,158 465,158 465,158 466,158 466,158 466,158 466,158 466,158 467,158 467,158 467,158 467,158 467,158 468,158 468,158 468,158 468,158 468,158 469,158 469,158 469,158 469,158 469,158 470,158 470,158 470,158 470,158 470,158 471,158 471,158 471,158 471,158 471,158 472,158 472,158 472,158 472,158 472,158 473,158 473,158 473,158 473,158 473,158 474,158 474,158 474,158 474,158 474,158 475,158 475,158 475,158 475,158 476,158 476,158 476,158 476,158 476,158 477,158 477,158 477,158 477,158 477,158 478,158 478,158 478,158 478,158 478,158 479,158 479,158 479,158 479,158 479,158 480,158 480,158 480,158 480,158 480,158 481,158 481,158 481,158 481,158 481,158 482,158 482,158 482,158 482,158 482,158 483,158 483,158 483,158 483,158 483,158 484,158 484,158 484,158 484,158 484,158 485,158 485,158 485,158 485,158 485,158 486,158 486,158 486,158 486,158 487,158 487,158 487,158 487,158 487,158 488,158 488,158 488,158 488,158 488,158 489,158 489,158 489,158 489,158 489,158 490,158 490,158 490,158 490,158 490,158 491,158 491,158 491,158 491,158 491,158 492,158 492,158 492,158 492,158 492,158 493,158 493,158 493,158 493,158 493,158 494,158 494,158 494,158 494,158 494,158 495,158 495,158 495,158 495,158 495,158 496,158 496,158 496,158 496,158 496,158 497,158 497,158 497,158 497,158 497,158 498,158 498,158 498,158 498,158 499,158 499,158 499,158 499,158 499,158 500,158 500,158 500,158 500,158 500,158 501,158 501,158 501,158 501,158 501,158 502,158 502,158 502,158 502,158 502,158 503,158 503,158 503,158 503,158 503,158 504,158 504,158 504,158 504,158 504,158 505,158 505,158 505,158 505,158 505,158 506,158 506,158 506,158 506,158 506,158 507,158 507,158 507,158 507,158 507,158 508,158 508,158 508,158 508,158 508,158 509,158 509,158 509,158 509,158 509,158 510,158 510,158 510,158 510,158 511,158 511,158 511,158 511,158 511,158 512,158 512,158 512,158 512,158 512,158 513,158 513,158 513,158 513,158 513,158 514,158 514,158 514,158 514,158 514,158 515,158 515,158 515,158 515,158 515,158 516,158 516,158 516,158 516,158 516,158 517,158 517,158 517,158 517,158 517,158 518,158 518,158 518,158 518,158 518,158 519,158 519,158 519,158 519,158 519,158 520,158 520,158 520,158 520,158 520,158 521,158 521,158 521,158 521,158 521,158 420,158 421,158 422,158 "
     id="polygon20"
     transform="translate(145.02893,-1.3581789e-4)" />
  <polygon
     opacity="1"
     fill="#1f78b4"
     points="422,158 423,158 423,158 423,158 423,158 423,158 424,158 424,158 424,158 424,158 424,158 425,158 425,158 425,158 425,158 425,158 426,158 426,158 426,158 426,158 426,158 427,158 427,158 427,158 427,158 427,158 428,158 428,158 428,159 428,159 429,159 429,159 429,159 429,159 429,159 430,159 430,159 430,159 430,159 430,159 431,159 431,159 431,159 431,159 431,159 432,159 432,159 432,159 432,159 432,159 433,159 433,159 433,159 433,159 433,159 434,159 434,159 434,159 434,159 434,159 435,159 435,159 435,159 435,159 435,159 436,159 436,159 436,159 436,159 436,159 437,159 437,159 437,159 437,159 437,159 438,159 438,159 438,160 438,160 438,160 439,160 439,160 439,160 439,161 440,161 440,161 440,161 440,162 440,162 441,162 441,163 441,163 441,163 441,164 442,164 442,164 442,165 442,165 442,166 443,166 443,166 443,167 443,167 443,168 444,168 444,168 444,169 444,169 444,169 445,170 445,170 445,170 445,170 445,171 446,171 446,171 446,171 446,171 446,171 447,171 447,171 447,171 447,171 447,171 448,170 448,170 448,170 448,170 448,170 449,169 449,169 449,169 449,168 449,168 450,168 450,167 450,167 450,167 450,166 451,166 451,166 451,165 451,165 452,165 452,164 452,164 452,163 452,163 453,163 453,163 453,162 453,162 453,162 454,161 454,161 454,161 454,161 454,161 455,160 455,160 455,160 455,160 455,160 456,160 456,159 456,159 456,159 456,159 457,159 457,159 457,159 457,159 457,159 458,159 458,158 458,158 458,158 458,158 459,158 459,158 459,158 459,158 459,158 460,158 460,158 460,158 460,158 460,158 461,158 461,158 461,158 461,158 461,158 462,158 462,158 462,158 462,158 462,158 463,158 463,158 463,158 463,158 464,158 464,158 464,158 464,158 464,158 465,158 465,158 465,158 465,158 465,158 466,158 466,158 466,158 466,158 466,158 467,158 467,158 467,158 467,158 467,158 468,158 468,158 468,158 468,158 468,158 469,158 469,158 469,158 469,158 469,158 470,158 470,158 470,158 470,158 470,158 471,158 471,158 471,158 471,158 471,158 472,158 472,158 472,158 472,158 472,158 473,158 473,158 473,158 473,158 473,158 474,158 474,158 474,158 474,158 474,158 475,158 475,158 475,158 475,158 476,158 476,158 476,158 476,158 476,158 477,158 477,158 477,158 477,158 477,158 478,158 478,158 478,158 478,158 478,158 479,158 479,158 479,158 479,158 479,158 480,158 480,158 480,158 480,158 480,158 481,158 481,158 481,158 481,158 481,158 482,158 482,158 482,158 482,158 482,158 483,158 483,158 483,158 483,158 483,158 484,158 484,158 484,158 484,158 484,158 485,158 485,158 485,158 485,158 485,158 486,158 486,158 486,158 486,158 487,158 487,158 487,158 487,158 487,158 488,158 488,158 488,158 488,158 488,158 489,158 489,158 489,158 489,158 489,158 490,158 490,158 490,158 490,158 490,158 491,158 491,158 491,158 491,158 491,158 492,158 492,158 492,158 492,158 492,158 493,158 493,158 493,158 493,158 493,158 494,158 494,158 494,158 494,158 494,158 495,158 495,158 495,158 495,158 495,158 496,158 496,158 496,158 496,158 496,158 497,158 497,158 497,158 497,158 497,158 498,158 498,158 498,158 498,158 499,158 499,158 499,158 499,158 499,158 500,158 500,158 500,158 500,158 500,158 501,158 501,158 501,158 501,158 501,158 502,158 502,158 502,158 502,158 502,158 503,158 503,158 503,158 503,158 503,158 504,158 504,158 504,158 504,158 504,158 505,158 505,158 505,158 505,158 505,158 506,158 506,158 506,158 506,158 506,158 507,158 507,158 507,158 507,158 507,158 508,158 508,158 508,158 508,158 508,158 509,158 509,158 509,158 509,158 509,158 510,158 510,158 510,158 510,158 511,158 511,158 511,158 511,158 511,158 512,158 512,158 512,158 512,158 512,158 513,158 513,158 513,158 513,158 513,158 514,158 514,158 514,158 514,158 514,158 515,158 515,158 515,158 515,158 515,158 516,158 516,158 516,158 516,158 516,158 517,158 517,158 517,158 517,158 517,158 518,158 518,158 518,158 518,158 518,158 519,158 519,158 519,158 519,158 519,158 520,158 520,158 520,158 520,158 520,158 521,158 521,158 521,158 521,158 521,158 420,158 421,158 422,158 "
     id="polygon21"
     transform="translate(145.02893,-1.3581789e-4)" />
  <polygon
     opacity="1"
     fill="#1f78b4"
     points="409,131 409,131 409,131 409,131 410,131 410,131 410,131 410,131 410,131 411,131 411,131 411,131 411,131 411,131 411,131 412,131 412,131 412,131 412,131 412,131 412,131 413,131 413,131 413,131 413,131 413,131 413,131 414,131 414,131 414,131 414,131 414,131 415,131 415,131 415,131 415,131 415,131 415,131 416,131 416,131 416,131 416,131 416,131 416,131 417,131 417,131 417,131 417,131 417,131 417,131 418,131 418,131 418,131 418,131 418,131 419,131 419,131 419,131 419,131 419,131 419,131 420,131 420,131 420,131 420,131 420,131 420,131 421,131 421,131 421,131 421,131 421,131 421,131 422,131 422,131 422,131 422,131 422,131 423,131 423,131 423,131 423,131 423,131 423,131 424,131 424,130 424,130 424,130 424,130 424,130 425,130 425,130 425,130 425,130 425,130 426,130 426,130 426,130 426,130 426,130 426,130 427,130 427,130 427,130 427,130 427,130 427,130 428,130 428,130 428,129 428,129 428,129 428,129 429,129 429,129 429,129 429,129 429,129 430,129 430,129 430,129 430,129 430,129 430,129 431,129 431,129 431,129 431,129 431,129 431,129 432,129 432,128 432,128 432,128 432,128 432,128 433,128 433,128 433,128 433,128 433,128 434,128 434,128 434,128 434,128 434,128 434,128 435,128 435,128 435,128 435,127 435,127 435,127 436,127 436,127 436,127 436,127 436,127 437,127 437,127 437,127 437,126 437,126 437,126 438,126 438,126 438,126 438,125 438,125 438,125 439,125 439,125 439,125 439,124 439,124 439,124 440,124 440,124 440,123 440,123 440,123 441,123 441,122 441,122 441,122 441,122 441,121 442,121 442,121 442,121 442,120 442,120 442,120 443,120 443,120 443,119 443,119 443,119 443,119 444,119 444,119 444,118 444,118 444,118 445,118 445,118 445,118 445,118 445,118 445,118 446,118 446,118 446,118 446,118 446,118 446,118 447,119 447,119 447,119 447,119 447,119 447,119 448,120 448,120 448,120 448,120 448,121 449,121 449,121 449,122 449,122 449,122 449,123 450,123 450,123 450,123 450,124 450,124 450,124 451,125 451,125 451,125 451,126 451,126 452,126 452,126 452,127 452,127 452,127 452,127 453,128 453,128 453,128 453,128 453,128 453,129 454,129 454,129 454,129 454,129 454,129 454,129 455,130 455,130 455,130 455,130 455,130 456,130 456,130 456,130 456,130 456,130 456,130 457,130 457,131 457,131 457,131 457,131 457,131 458,131 458,131 458,131 458,131 458,131 458,131 459,131 459,131 459,131 459,131 459,131 460,131 460,131 460,131 460,131 460,131 460,131 461,131 461,131 461,131 461,131 461,131 461,131 462,131 462,131 462,131 462,131 462,131 462,131 463,131 463,131 463,131 463,131 463,131 464,131 464,131 464,131 464,131 464,131 464,131 465,131 465,131 465,131 465,131 465,131 465,131 466,131 466,131 466,131 466,131 466,131 467,131 467,131 467,131 467,131 467,131 467,131 468,131 468,131 468,131 468,131 468,131 468,131 469,131 469,131 469,131 469,131 469,131 469,131 470,131 470,131 470,131 470,131 470,131 471,131 471,131 471,131 471,131 471,131 471,131 472,131 472,131 472,131 472,131 472,131 472,131 473,131 473,131 473,131 473,131 473,131 473,131 474,131 474,131 474,131 474,131 474,131 475,131 475,131 475,131 475,131 475,131 475,131 476,131 476,131 476,131 476,131 476,131 476,131 477,131 477,131 477,131 477,131 477,131 478,131 478,131 478,131 478,131 478,131 478,131 479,131 479,131 479,131 479,131 479,131 479,131 480,131 480,131 480,131 480,131 480,131 480,131 481,131 481,131 481,131 481,131 481,131 482,131 482,131 482,131 482,131 482,131 482,131 483,131 483,131 483,131 483,131 483,131 483,131 484,131 484,131 484,131 484,131 484,131 484,131 485,131 485,131 485,131 485,131 485,131 486,131 486,131 486,131 486,131 486,131 486,131 487,131 487,131 487,131 487,131 487,131 487,131 488,131 488,131 488,131 488,131 488,131 488,131 489,131 489,131 489,131 489,131 489,131 490,131 490,131 490,131 490,131 490,131 490,131 491,131 491,131 491,131 491,131 491,131 491,131 492,131 492,131 492,131 492,131 492,131 493,131 493,131 493,131 493,131 493,131 493,131 494,131 494,131 494,131 407,131 408,131 409,131 "
     id="polygon22"
     transform="translate(145.02893,-1.3581789e-4)" />
  <polygon
     opacity="1"
     fill="#1f78b4"
     points="409,131 409,131 409,131 409,131 410,131 410,131 410,131 410,131 410,131 411,131 411,131 411,131 411,131 411,131 411,131 412,131 412,131 412,131 412,131 412,131 412,131 413,131 413,131 413,131 413,131 413,131 413,131 414,131 414,131 414,131 414,131 414,131 415,131 415,131 415,131 415,131 415,131 415,132 416,132 416,132 416,132 416,132 416,132 416,132 417,132 417,132 417,132 417,132 417,132 417,132 418,132 418,132 418,132 418,132 418,132 419,132 419,132 419,132 419,132 419,132 419,132 420,132 420,132 420,132 420,132 420,132 420,132 421,132 421,132 421,132 421,132 421,132 421,132 422,132 422,132 422,132 422,132 422,132 423,132 423,132 423,132 423,132 423,132 423,132 424,132 424,132 424,132 424,132 424,132 424,132 425,132 425,132 425,132 425,132 425,132 426,132 426,132 426,132 426,132 426,133 426,133 427,133 427,133 427,133 427,133 427,133 427,133 428,133 428,133 428,133 428,133 428,133 428,133 429,133 429,133 429,133 429,133 429,133 430,133 430,133 430,134 430,134 430,134 430,134 431,134 431,134 431,134 431,134 431,134 431,134 432,134 432,134 432,134 432,134 432,134 432,134 433,134 433,134 433,134 433,134 433,134 434,134 434,135 434,135 434,135 434,135 434,135 435,135 435,135 435,135 435,135 435,135 435,135 436,135 436,135 436,135 436,136 436,136 437,136 437,136 437,136 437,136 437,136 437,136 438,137 438,137 438,137 438,137 438,137 438,137 439,138 439,138 439,138 439,138 439,138 439,139 440,139 440,139 440,139 440,139 440,140 441,140 441,140 441,140 441,141 441,141 441,141 442,141 442,142 442,142 442,142 442,142 442,143 443,143 443,143 443,143 443,143 443,143 443,144 444,144 444,144 444,144 444,144 444,144 445,144 445,144 445,144 445,144 445,144 445,144 446,144 446,144 446,144 446,144 446,144 446,144 447,144 447,144 447,144 447,143 447,143 447,143 448,143 448,143 448,142 448,142 448,142 449,141 449,141 449,141 449,141 449,140 449,140 450,140 450,139 450,139 450,139 450,138 450,138 451,138 451,138 451,137 451,137 451,137 452,136 452,136 452,136 452,136 452,135 452,135 453,135 453,135 453,135 453,134 453,134 453,134 454,134 454,134 454,133 454,133 454,133 454,133 455,133 455,133 455,133 455,133 455,133 456,132 456,132 456,132 456,132 456,132 456,132 457,132 457,132 457,132 457,132 457,132 457,132 458,132 458,132 458,132 458,132 458,132 458,132 459,132 459,132 459,131 459,131 459,131 460,131 460,131 460,131 460,131 460,131 460,131 461,131 461,131 461,131 461,131 461,131 461,131 462,131 462,131 462,131 462,131 462,131 462,131 463,131 463,131 463,131 463,131 463,131 464,131 464,131 464,131 464,131 464,131 464,131 465,131 465,131 465,131 465,131 465,131 465,131 466,131 466,131 466,131 466,131 466,131 467,131 467,131 467,131 467,131 467,131 467,131 468,131 468,131 468,131 468,131 468,131 468,131 469,131 469,131 469,131 469,131 469,131 469,131 470,131 470,131 470,131 470,131 470,131 471,131 471,131 471,131 471,131 471,131 471,131 472,131 472,131 472,131 472,131 472,131 472,131 473,131 473,131 473,131 473,131 473,131 473,131 474,131 474,131 474,131 474,131 474,131 475,131 475,131 475,131 475,131 475,131 475,131 476,131 476,131 476,131 476,131 476,131 476,131 477,131 477,131 477,131 477,131 477,131 478,131 478,131 478,131 478,131 478,131 478,131 479,131 479,131 479,131 479,131 479,131 479,131 480,131 480,131 480,131 480,131 480,131 480,131 481,131 481,131 481,131 481,131 481,131 482,131 482,131 482,131 482,131 482,131 482,131 483,131 483,131 483,131 483,131 483,131 483,131 484,131 484,131 484,131 484,131 484,131 484,131 485,131 485,131 485,131 485,131 485,131 486,131 486,131 486,131 486,131 486,131 486,131 487,131 487,131 487,131 487,131 487,131 487,131 488,131 488,131 488,131 488,131 488,131 488,131 489,131 489,131 489,131 489,131 489,131 490,131 490,131 490,131 490,131 490,131 490,131 491,131 491,131 491,131 491,131 491,131 491,131 492,131 492,131 492,131 492,131 492,131 493,131 493,131 493,131 493,131 493,131 493,131 494,131 494,131 494,131 407,131 408,131 409,131 "
     id="polygon23"
     transform="translate(145.02893,-1.3581789e-4)" />
  <polygon
     opacity="1"
     fill="#1f78b4"
     points="670,105 671,105 671,105 672,105 672,105 673,105 673,105 674,105 675,105 675,105 676,105 676,105 677,105 677,105 678,105 679,105 679,105 680,105 680,105 681,105 681,105 682,105 682,105 683,105 684,105 684,105 685,105 685,105 686,105 686,105 687,105 688,105 688,105 689,105 689,105 690,105 690,105 691,105 692,105 692,105 693,105 693,105 694,105 694,105 695,105 696,105 696,105 697,105 697,105 698,105 698,105 699,105 700,105 700,105 701,105 701,105 702,105 702,105 703,105 704,105 704,105 705,105 705,105 706,105 706,105 707,105 708,105 708,105 709,105 709,105 710,105 710,105 711,105 712,105 712,105 713,105 713,105 714,105 714,105 715,105 715,105 716,105 717,105 717,105 718,105 718,105 719,105 719,105 720,105 721,105 721,104 722,104 722,104 723,104 723,104 724,104 725,104 725,104 726,104 726,104 727,104 727,104 728,104 729,104 729,104 730,104 730,104 731,104 731,104 732,104 733,104 733,104 734,104 734,104 735,104 735,104 736,104 737,104 737,104 738,104 738,104 739,104 739,104 740,104 741,104 741,104 742,104 742,104 743,104 743,104 744,104 745,104 745,104 746,104 746,104 747,104 747,104 748,104 748,104 749,104 750,104 750,104 751,104 751,104 752,104 752,104 753,104 754,104 754,104 755,104 755,104 756,104 756,104 757,104 758,104 758,104 759,104 759,104 760,104 760,104 761,104 762,104 762,104 763,104 763,104 764,104 764,104 765,104 766,104 766,104 767,104 767,104 768,104 768,104 769,104 770,104 770,104 771,104 771,104 772,104 772,104 773,104 774,104 774,104 775,104 775,104 776,104 776,104 777,104 778,104 778,104 779,104 779,104 780,104 780,104 781,104 781,104 782,103 783,103 783,103 784,103 784,103 785,103 785,103 786,103 787,103 787,103 788,103 788,103 789,103 789,103 790,103 791,103 791,103 792,103 792,103 793,102 793,102 794,102 795,102 795,102 796,102 796,102 797,102 797,102 798,102 799,102 799,101 800,101 800,101 801,101 801,101 802,101 803,101 803,100 804,100 804,100 805,100 805,100 806,100 807,99 807,99 808,99 808,99 809,99 809,98 810,98 811,98 811,98 812,97 812,97 813,97 813,97 814,96 814,96 815,96 816,96 816,96 817,95 817,95 818,95 818,95 819,94 820,94 820,94 821,94 821,94 822,93 822,93 823,93 824,93 824,93 825,92 825,92 826,92 826,92 827,92 828,92 828,92 829,92 829,92 830,92 830,92 831,92 832,92 832,91 833,92 833,92 834,92 834,92 835,92 836,92 836,92 837,92 837,92 838,92 838,92 839,93 840,93 840,93 841,93 841,93 842,93 842,94 843,94 844,94 844,94 845,95 845,95 846,95 846,95 847,96 847,96 848,96 849,96 849,97 850,97 850,97 851,98 851,98 852,98 853,98 853,99 854,99 854,99 855,99 855,100 856,100 857,100 857,100 858,101 858,101 859,101 859,101 860,101 861,102 861,102 862,102 862,102 863,102 863,102 864,103 865,103 865,103 866,103 866,103 867,103 867,103 868,103 869,104 869,104 870,104 870,104 871,104 871,104 872,104 873,104 873,104 874,104 874,104 875,104 875,104 876,104 877,104 877,104 878,104 878,104 879,104 879,104 880,104 880,105 881,105 882,105 882,105 883,105 883,105 884,105 884,105 885,105 886,105 886,105 887,105 887,105 888,105 888,105 889,105 890,105 890,105 891,105 891,105 892,105 892,105 893,105 894,105 894,105 895,105 895,105 896,105 896,105 897,105 898,105 898,105 899,105 899,105 900,105 900,105 901,105 902,105 902,105 903,105 903,105 904,105 904,105 905,105 906,105 906,105 907,105 907,105 908,105 908,105 909,105 910,105 910,105 911,105 911,105 912,105 912,105 913,105 914,105 914,105 915,105 915,105 916,105 916,105 917,105 917,105 918,105 919,105 919,105 920,105 920,105 921,105 921,105 922,105 923,105 923,105 924,105 924,105 925,105 925,105 926,105 927,105 927,105 928,105 928,105 929,105 929,105 930,105 931,105 931,105 932,105 932,105 933,105 933,105 934,105 935,105 935,105 936,105 936,105 937,105 937,105 938,105 939,105 939,105 940,105 940,105 941,105 941,105 942,105 943,105 943,105 944,105 944,105 945,105 945,105 946,105 947,105 947,105 663,105 664,105 665,105 666,105 667,105 668,105 669,105 "
     id="polygon24"
     transform="translate(145.02893,-1.3581789e-4)" />
  <polygon
     opacity="1"
     fill="#1f78b4"
     points="670,105 671,105 671,105 672,105 672,105 673,105 673,105 674,105 675,105 675,105 676,105 676,105 677,105 677,105 678,105 679,105 679,105 680,105 680,105 681,105 681,105 682,105 682,105 683,105 684,105 684,105 685,105 685,105 686,105 686,105 687,105 688,105 688,105 689,105 689,105 690,105 690,105 691,105 692,105 692,105 693,105 693,105 694,105 694,105 695,105 696,105 696,105 697,105 697,105 698,105 698,105 699,105 700,105 700,105 701,105 701,105 702,105 702,105 703,105 704,105 704,105 705,105 705,105 706,105 706,105 707,105 708,105 708,105 709,105 709,105 710,105 710,105 711,105 712,105 712,105 713,105 713,105 714,105 714,105 715,105 715,105 716,105 717,105 717,105 718,105 718,105 719,105 719,105 720,105 721,105 721,105 722,105 722,105 723,105 723,105 724,105 725,105 725,105 726,105 726,105 727,105 727,105 728,105 729,105 729,105 730,105 730,105 731,105 731,105 732,105 733,105 733,105 734,105 734,105 735,105 735,105 736,105 737,105 737,105 738,105 738,105 739,105 739,105 740,105 741,105 741,105 742,105 742,105 743,105 743,105 744,105 745,105 745,105 746,105 746,105 747,105 747,105 748,105 748,105 749,105 750,105 750,105 751,105 751,105 752,105 752,105 753,105 754,105 754,105 755,105 755,105 756,105 756,105 757,105 758,105 758,105 759,105 759,105 760,105 760,105 761,105 762,105 762,105 763,105 763,105 764,105 764,105 765,105 766,105 766,105 767,105 767,105 768,105 768,105 769,105 770,105 770,105 771,105 771,105 772,105 772,105 773,106 774,106 774,106 775,106 775,106 776,106 776,106 777,106 778,106 778,106 779,106 779,106 780,106 780,106 781,106 781,106 782,106 783,106 783,106 784,106 784,106 785,106 785,106 786,106 787,106 787,106 788,106 788,107 789,107 789,107 790,107 791,107 791,107 792,107 792,107 793,107 793,107 794,107 795,107 795,107 796,107 796,108 797,108 797,108 798,108 799,108 799,108 800,108 800,108 801,108 801,109 802,109 803,109 803,109 804,109 804,109 805,110 805,110 806,110 807,110 807,110 808,111 808,111 809,111 809,111 810,111 811,112 811,112 812,112 812,112 813,113 813,113 814,113 814,113 815,113 816,114 816,114 817,114 817,114 818,115 818,115 819,115 820,115 820,116 821,116 821,116 822,116 822,116 823,117 824,117 824,117 825,117 825,117 826,117 826,117 827,118 828,118 828,118 829,118 829,118 830,118 830,118 831,118 832,118 832,118 833,118 833,118 834,118 834,118 835,118 836,118 836,118 837,118 837,117 838,117 838,117 839,117 840,117 840,117 841,116 841,116 842,116 842,116 843,116 844,115 844,115 845,115 845,115 846,114 846,114 847,114 847,114 848,113 849,113 849,113 850,112 850,112 851,112 851,112 852,111 853,111 853,111 854,111 854,110 855,110 855,110 856,110 857,109 857,109 858,109 858,109 859,108 859,108 860,108 861,108 861,108 862,108 862,107 863,107 863,107 864,107 865,107 865,107 866,107 866,106 867,106 867,106 868,106 869,106 869,106 870,106 870,106 871,106 871,106 872,106 873,105 873,105 874,105 874,105 875,105 875,105 876,105 877,105 877,105 878,105 878,105 879,105 879,105 880,105 880,105 881,105 882,105 882,105 883,105 883,105 884,105 884,105 885,105 886,105 886,105 887,105 887,105 888,105 888,105 889,105 890,105 890,105 891,105 891,105 892,105 892,105 893,105 894,105 894,105 895,105 895,105 896,105 896,105 897,105 898,105 898,105 899,105 899,105 900,105 900,105 901,105 902,105 902,105 903,105 903,105 904,105 904,105 905,105 906,105 906,105 907,105 907,105 908,105 908,105 909,105 910,105 910,105 911,105 911,105 912,105 912,105 913,105 914,105 914,105 915,105 915,105 916,105 916,105 917,105 917,105 918,105 919,105 919,105 920,105 920,105 921,105 921,105 922,105 923,105 923,105 924,105 924,105 925,105 925,105 926,105 927,105 927,105 928,105 928,105 929,105 929,105 930,105 931,105 931,105 932,105 932,105 933,105 933,105 934,105 935,105 935,105 936,105 936,105 937,105 937,105 938,105 939,105 939,105 940,105 940,105 941,105 941,105 942,105 943,105 943,105 944,105 944,105 945,105 945,105 946,105 947,105 947,105 663,105 664,105 665,105 666,105 667,105 668,105 669,105 "
     id="polygon25"
     transform="translate(145.02893,-1.3581789e-4)" />
  <polygon
     opacity="1"
     fill="#1f78b4"
     points="736,78 736,78 737,78 737,78 737,78 738,78 738,78 739,78 739,78 739,78 740,78 740,78 740,78 741,78 741,78 742,78 742,78 742,78 743,78 743,78 743,78 744,78 744,78 745,78 745,78 745,78 746,78 746,78 746,78 747,78 747,78 748,78 748,78 748,78 749,78 749,78 749,78 750,78 750,78 751,78 751,78 751,78 752,78 752,78 752,78 753,78 753,78 754,78 754,78 754,78 755,78 755,78 755,78 756,78 756,78 757,78 757,78 757,78 758,78 758,78 758,78 759,78 759,78 760,78 760,78 760,78 761,78 761,78 761,78 762,78 762,78 763,78 763,78 763,78 764,78 764,78 764,78 765,78 765,78 766,78 766,78 766,78 767,78 767,78 767,78 768,78 768,78 769,78 769,78 769,78 770,78 770,78 770,78 771,78 771,78 772,78 772,78 772,78 773,78 773,78 774,78 774,78 774,78 775,78 775,78 775,78 776,78 776,78 777,78 777,78 777,78 778,78 778,78 778,78 779,78 779,78 780,78 780,78 780,78 781,78 781,78 781,78 782,78 782,78 783,78 783,78 783,78 784,78 784,78 784,78 785,78 785,78 786,78 786,78 786,78 787,78 787,78 787,78 788,78 788,78 789,78 789,78 789,78 790,78 790,78 790,78 791,78 791,78 792,78 792,78 792,78 793,78 793,78 793,78 794,78 794,78 795,78 795,78 795,78 796,78 796,78 796,78 797,78 797,78 798,78 798,78 798,78 799,78 799,78 799,78 800,78 800,78 801,78 801,78 801,78 802,78 802,78 802,78 803,78 803,78 804,78 804,78 804,78 805,78 805,78 805,78 806,78 806,78 807,78 807,78 807,78 808,78 808,78 808,78 809,78 809,78 810,78 810,78 810,78 811,78 811,78 811,78 812,78 812,78 813,78 813,78 813,78 814,78 814,78 814,78 815,78 815,78 816,78 816,78 816,78 817,78 817,78 817,78 818,78 818,78 819,78 819,78 819,78 820,78 820,78 820,77 821,77 821,77 822,77 822,77 822,77 823,77 823,77 823,77 824,77 824,76 825,76 825,76 825,76 826,76 826,76 826,76 827,75 827,75 828,75 828,75 828,75 829,74 829,74 829,74 830,74 830,73 831,73 831,73 831,73 832,72 832,72 832,72 833,72 833,72 834,71 834,71 834,71 835,71 835,70 836,70 836,70 836,70 837,70 837,69 837,69 838,69 838,69 839,69 839,68 839,68 840,68 840,68 840,68 841,68 841,68 842,67 842,67 842,67 843,67 843,67 843,67 844,67 844,67 845,67 845,66 845,66 846,66 846,66 846,66 847,66 847,66 848,66 848,66 848,66 849,66 849,66 849,65 850,65 850,65 851,65 851,65 851,65 852,65 852,65 852,65 853,65 853,65 854,65 854,65 854,65 855,65 855,65 855,65 856,65 856,65 857,65 857,65 857,66 858,66 858,66 858,66 859,66 859,66 860,67 860,67 860,67 861,67 861,67 861,68 862,68 862,68 863,69 863,69 863,69 864,69 864,70 864,70 865,70 865,71 866,71 866,71 866,71 867,72 867,72 867,72 868,73 868,73 869,73 869,73 869,74 870,74 870,74 870,74 871,75 871,75 872,75 872,75 872,75 873,75 873,76 873,76 874,76 874,76 875,76 875,76 875,76 876,76 876,77 876,77 877,77 877,77 878,77 878,77 878,77 879,77 879,77 879,77 880,77 880,77 881,77 881,77 881,77 882,77 882,77 882,77 883,77 883,77 884,77 884,77 884,77 885,77 885,77 885,77 886,77 886,77 887,77 887,77 887,77 888,77 888,77 888,77 889,78 889,78 890,78 890,78 890,78 891,78 891,78 891,78 892,78 892,78 893,78 893,78 893,78 894,78 894,78 894,78 895,78 895,78 896,78 896,78 896,78 897,78 897,78 898,78 898,78 898,78 899,78 899,78 899,78 900,78 900,78 901,78 901,78 901,78 902,78 902,78 902,78 903,78 903,78 904,78 904,78 904,78 905,78 905,78 905,78 906,78 906,78 907,78 907,78 907,78 908,78 908,78 908,78 909,78 909,78 910,78 910,78 910,78 911,78 911,78 911,78 912,78 912,78 913,78 913,78 913,78 914,78 914,78 914,78 915,78 915,78 916,78 916,78 916,78 917,78 917,78 917,78 918,78 918,78 919,78 919,78 731,78 732,78 733,78 734,78 735,78 736,78 "
     id="polygon26"
     transform="translate(145.02893,-1.3581789e-4)" />
  <polygon
     opacity="1"
     fill="#1f78b4"
     points="736,78 736,78 737,78 737,78 737,78 738,78 738,78 739,78 739,78 739,78 740,78 740,78 740,78 741,78 741,78 742,78 742,78 742,78 743,78 743,78 743,78 744,78 744,78 745,78 745,78 745,78 746,78 746,78 746,78 747,78 747,78 748,78 748,78 748,78 749,79 749,79 749,79 750,79 750,79 751,79 751,79 751,79 752,79 752,79 752,79 753,79 753,79 754,79 754,79 754,79 755,78 755,78 755,78 756,78 756,78 757,78 757,78 757,78 758,78 758,78 758,78 759,78 759,78 760,78 760,78 760,78 761,78 761,78 761,78 762,78 762,78 763,78 763,78 763,78 764,78 764,78 764,78 765,78 765,78 766,78 766,78 766,78 767,78 767,78 767,78 768,78 768,78 769,78 769,78 769,78 770,78 770,78 770,78 771,78 771,78 772,78 772,78 772,78 773,78 773,78 774,78 774,78 774,78 775,78 775,78 775,78 776,78 776,78 777,78 777,78 777,78 778,78 778,78 778,78 779,78 779,78 780,78 780,78 780,78 781,78 781,78 781,78 782,78 782,78 783,78 783,78 783,78 784,78 784,78 784,78 785,78 785,78 786,78 786,78 786,78 787,78 787,78 787,78 788,78 788,78 789,78 789,78 789,78 790,78 790,78 790,78 791,78 791,78 792,78 792,78 792,78 793,78 793,78 793,78 794,78 794,78 795,78 795,78 795,78 796,78 796,78 796,78 797,78 797,78 798,78 798,78 798,78 799,78 799,78 799,78 800,78 800,78 801,78 801,78 801,78 802,78 802,78 802,78 803,78 803,78 804,78 804,78 804,78 805,78 805,78 805,78 806,78 806,78 807,78 807,78 807,78 808,78 808,78 808,78 809,78 809,78 810,78 810,78 810,78 811,78 811,78 811,78 812,78 812,78 813,78 813,78 813,78 814,78 814,78 814,78 815,78 815,78 816,78 816,79 816,79 817,79 817,79 817,79 818,79 818,79 819,79 819,79 819,79 820,79 820,79 820,79 821,79 821,79 822,79 822,79 822,79 823,80 823,80 823,80 824,80 824,80 825,80 825,80 825,80 826,81 826,81 826,81 827,81 827,81 828,82 828,82 828,82 829,82 829,82 829,83 830,83 830,83 831,83 831,84 831,84 832,84 832,84 832,84 833,85 833,85 834,85 834,85 834,86 835,86 835,86 836,86 836,87 836,87 837,87 837,87 837,87 838,88 838,88 839,88 839,88 839,88 840,88 840,88 840,89 841,89 841,89 842,89 842,89 842,89 843,89 843,89 843,90 844,90 844,90 845,90 845,90 845,90 846,90 846,90 846,90 847,90 847,91 848,91 848,91 848,91 849,91 849,91 849,91 850,91 850,91 851,91 851,91 851,91 852,91 852,91 852,91 853,91 853,91 854,91 854,91 854,91 855,91 855,91 855,91 856,91 856,91 857,91 857,91 857,91 858,91 858,91 858,90 859,90 859,90 860,90 860,90 860,90 861,89 861,89 861,89 862,89 862,88 863,88 863,88 863,87 864,87 864,87 864,87 865,86 865,86 866,86 866,85 866,85 867,85 867,85 867,84 868,84 868,84 869,83 869,83 869,83 870,83 870,82 870,82 871,82 871,82 872,82 872,81 872,81 873,81 873,81 873,81 874,81 874,80 875,80 875,80 875,80 876,80 876,80 876,80 877,80 877,80 878,80 878,80 878,80 879,80 879,79 879,79 880,79 880,79 881,79 881,79 881,79 882,79 882,79 882,79 883,79 883,79 884,79 884,79 884,79 885,79 885,79 885,79 886,79 886,79 887,79 887,79 887,79 888,79 888,79 888,79 889,79 889,79 890,79 890,79 890,79 891,79 891,79 891,79 892,79 892,79 893,79 893,79 893,79 894,79 894,79 894,79 895,79 895,79 896,79 896,79 896,79 897,79 897,79 898,79 898,79 898,79 899,79 899,79 899,79 900,79 900,79 901,79 901,79 901,79 902,79 902,79 902,79 903,79 903,79 904,79 904,78 904,78 905,78 905,78 905,78 906,78 906,78 907,78 907,78 907,78 908,78 908,78 908,78 909,78 909,78 910,78 910,78 910,78 911,78 911,78 911,78 912,78 912,78 913,78 913,78 913,78 914,78 914,78 914,78 915,78 915,78 916,78 916,78 916,78 917,78 917,78 917,78 918,78 918,78 919,78 919,78 731,78 732,78 733,78 734,78 735,78 736,78 "
     id="polygon27"
     transform="translate(145.02893,-1.3581789e-4)" />
  <polygon
     opacity="1"
     fill="#1f78b4"
     points="496,52 496,52 496,52 496,52 496,52 496,52 496,52 496,52 496,52 496,52 496,52 496,52 496,52 496,52 496,52 496,52 496,52 496,52 496,52 496,52 496,52 496,52 496,52 496,52 496,52 496,52 496,52 496,52 496,52 497,52 497,52 497,52 497,52 497,52 497,52 497,52 497,51 497,51 497,51 497,51 497,51 497,51 497,51 497,51 497,51 497,51 497,51 497,51 497,51 497,51 497,51 497,51 497,51 497,51 497,51 497,51 497,51 497,51 498,51 498,51 498,51 498,51 498,50 498,50 498,50 498,50 498,50 498,50 498,50 498,50 498,50 498,50 498,50 498,50 498,49 498,49 498,49 498,49 498,49 498,49 498,49 498,49 498,48 498,48 498,48 498,48 498,48 499,48 499,48 499,47 499,47 499,47 499,47 499,47 499,47 499,46 499,46 499,46 499,46 499,46 499,45 499,45 499,45 499,45 499,45 499,44 499,44 499,44 499,44 499,44 499,44 499,43 499,43 499,43 499,43 499,43 500,42 500,42 500,42 500,42 500,42 500,41 500,41 500,41 500,41 500,41 500,41 500,40 500,40 500,40 500,40 500,40 500,40 500,40 500,40 500,39 500,39 500,39 500,39 500,39 500,39 500,39 500,39 500,39 500,39 500,39 501,39 501,39 501,39 501,39 501,39 501,39 501,38 501,39 501,39 501,39 501,39 501,39 501,39 501,39 501,39 501,39 501,39 501,39 501,39 501,39 501,39 501,39 501,39 501,39 501,39 501,39 501,40 501,40 501,40 502,40 502,40 502,40 502,40 502,40 502,41 502,41 502,41 502,41 502,41 502,41 502,41 502,41 502,42 502,42 502,42 502,42 502,42 502,42 502,42 502,43 502,43 502,43 502,43 502,43 502,43 502,43 502,43 502,44 503,44 503,44 503,44 503,44 503,44 503,44 503,44 503,45 503,45 503,45 503,45 503,45 503,45 503,45 503,45 503,45 503,45 503,46 503,46 503,46 503,46 503,46 503,46 503,46 503,46 503,46 503,46 503,46 503,46 504,47 504,47 504,47 504,47 504,47 504,47 504,47 504,47 504,47 504,47 504,47 504,47 504,47 504,47 504,47 504,48 504,48 504,48 504,48 504,48 504,48 504,48 504,48 504,48 504,48 504,48 504,48 504,48 504,48 505,48 505,48 505,48 505,48 505,48 505,49 505,49 505,49 505,49 505,49 505,49 505,49 505,49 505,49 505,49 505,49 505,49 505,49 505,49 505,49 505,49 505,49 505,49 505,49 505,49 505,49 505,49 505,49 505,49 505,49 506,49 506,49 506,49 506,49 506,49 506,49 506,49 506,49 506,49 506,49 506,49 506,49 506,49 506,49 506,49 506,49 506,49 506,49 506,49 506,49 506,49 506,49 506,49 506,49 506,49 506,49 506,49 506,49 506,49 507,49 507,49 507,49 507,49 507,49 507,49 507,49 507,49 507,49 507,49 507,49 507,49 507,49 507,49 507,49 507,49 507,49 507,49 507,49 507,49 507,49 507,49 507,49 507,49 507,50 507,50 507,50 507,50 507,50 508,50 508,50 508,50 508,50 508,50 508,50 508,50 508,50 508,50 508,50 508,50 508,50 508,50 508,50 508,50 508,50 508,50 508,50 508,50 508,50 508,50 508,50 508,51 508,51 508,51 508,51 508,51 508,51 508,51 509,51 509,51 509,51 509,51 509,51 509,51 509,51 509,51 509,51 509,51 509,51 509,51 509,51 509,51 509,51 509,51 509,51 509,51 509,51 509,51 509,51 509,51 509,51 509,51 509,51 509,51 509,51 509,51 509,51 510,51 510,51 510,51 510,51 510,51 510,51 510,51 510,51 510,51 510,51 510,51 510,51 510,51 510,52 510,52 510,52 510,52 510,52 510,52 510,52 510,52 510,52 510,52 510,52 510,52 510,52 510,52 510,52 510,52 510,52 511,52 511,52 511,52 511,52 511,52 511,52 511,52 511,52 511,52 511,52 511,52 511,52 511,52 511,52 511,52 511,52 511,52 511,52 511,52 511,52 511,52 511,52 511,52 511,52 511,52 511,52 511,52 511,52 511,52 512,52 512,52 512,52 512,52 512,52 512,52 512,52 512,52 512,52 512,52 512,52 512,52 512,52 512,52 512,52 512,52 512,52 512,52 512,52 512,52 512,52 495,52 "
     id="polygon28"
     transform="translate(145.02893,-1.3581789e-4)" />
  <polygon
     opacity="1"
     fill="#1f78b4"
     points="496,52 496,52 496,52 496,52 496,52 496,52 496,52 496,52 496,52 496,52 496,52 496,52 496,52 496,52 496,52 496,52 496,52 496,52 496,52 496,52 496,52 496,52 496,52 496,52 496,52 496,52 496,52 496,52 496,52 497,52 497,52 497,52 497,52 497,52 497,52 497,52 497,52 497,52 497,52 497,52 497,52 497,52 497,52 497,52 497,52 497,52 497,52 497,52 497,52 497,52 497,52 497,52 497,52 497,53 497,53 497,53 497,53 497,53 498,53 498,53 498,53 498,53 498,53 498,53 498,53 498,53 498,53 498,53 498,53 498,54 498,54 498,54 498,54 498,54 498,54 498,54 498,54 498,54 498,55 498,55 498,55 498,55 498,55 498,55 498,55 498,55 498,56 499,56 499,56 499,56 499,56 499,56 499,57 499,57 499,57 499,57 499,57 499,57 499,58 499,58 499,58 499,58 499,58 499,59 499,59 499,59 499,59 499,59 499,60 499,60 499,60 499,60 499,60 499,61 499,61 499,61 500,61 500,61 500,62 500,62 500,62 500,62 500,62 500,62 500,63 500,63 500,63 500,63 500,63 500,63 500,63 500,64 500,64 500,64 500,64 500,64 500,64 500,64 500,64 500,64 500,65 500,65 500,65 500,65 500,65 500,65 501,65 501,65 501,65 501,65 501,65 501,65 501,65 501,65 501,65 501,65 501,65 501,65 501,65 501,65 501,65 501,65 501,65 501,65 501,65 501,65 501,64 501,64 501,64 501,64 501,64 501,64 501,64 501,64 501,64 502,64 502,63 502,63 502,63 502,63 502,63 502,63 502,63 502,63 502,62 502,62 502,62 502,62 502,62 502,62 502,62 502,62 502,61 502,61 502,61 502,61 502,61 502,61 502,61 502,60 502,60 502,60 502,60 502,60 503,60 503,60 503,60 503,59 503,59 503,59 503,59 503,59 503,59 503,59 503,59 503,59 503,58 503,58 503,58 503,58 503,58 503,58 503,58 503,58 503,58 503,58 503,58 503,57 503,57 503,57 503,57 503,57 503,57 504,57 504,57 504,57 504,57 504,57 504,57 504,57 504,56 504,56 504,56 504,56 504,56 504,56 504,56 504,56 504,56 504,56 504,56 504,56 504,56 504,56 504,56 504,56 504,56 504,55 504,55 504,55 504,55 504,55 505,55 505,55 505,55 505,55 505,55 505,55 505,55 505,55 505,55 505,55 505,55 505,55 505,55 505,55 505,55 505,55 505,55 505,55 505,55 505,55 505,55 505,54 505,54 505,54 505,54 505,54 505,54 505,54 505,54 505,54 506,54 506,54 506,54 506,54 506,54 506,54 506,54 506,54 506,54 506,54 506,54 506,54 506,54 506,54 506,54 506,54 506,54 506,54 506,54 506,54 506,54 506,54 506,54 506,54 506,54 506,54 506,54 506,54 506,54 507,54 507,54 507,54 507,54 507,54 507,54 507,54 507,54 507,54 507,54 507,54 507,54 507,54 507,54 507,54 507,54 507,54 507,54 507,54 507,54 507,54 507,54 507,54 507,54 507,54 507,54 507,54 507,54 507,54 508,54 508,54 508,54 508,54 508,54 508,54 508,54 508,54 508,54 508,53 508,53 508,53 508,53 508,53 508,53 508,53 508,53 508,53 508,53 508,53 508,53 508,53 508,53 508,53 508,53 508,53 508,53 508,53 508,53 509,53 509,53 509,53 509,53 509,53 509,53 509,53 509,53 509,53 509,52 509,52 509,52 509,52 509,52 509,52 509,52 509,52 509,52 509,52 509,52 509,52 509,52 509,52 509,52 509,52 509,52 509,52 509,52 509,52 510,52 510,52 510,52 510,52 510,52 510,52 510,52 510,52 510,52 510,52 510,52 510,52 510,52 510,52 510,52 510,52 510,52 510,52 510,52 510,52 510,52 510,52 510,52 510,52 510,52 510,52 510,52 510,52 510,52 510,52 511,52 511,52 511,52 511,52 511,52 511,52 511,52 511,52 511,52 511,52 511,52 511,52 511,52 511,52 511,52 511,52 511,52 511,52 511,52 511,52 511,52 511,52 511,52 511,52 511,52 511,52 511,52 511,52 511,52 512,52 512,52 512,52 512,52 512,52 512,52 512,52 512,52 512,52 512,52 512,52 512,52 512,52 512,52 512,52 512,52 512,52 512,52 512,52 512,52 512,52 495,52 "
     id="polygon29"
     transform="translate(145.02893,-1.3581789e-4)" />
</svg>
