<?xml version="1.0" encoding="UTF-8" standalone="no"?>
<svg
   width="1122.053"
   height="250.98399"
   viewBox="0 0 1122.053 250.984"
   version="1.1"
   id="svg31"
   sodipodi:docname="violin-1.svg"
   inkscape:version="1.4.4 (dcaf3e7d9e, 2026-05-05)"
   xmlns:inkscape="http://www.inkscape.org/namespaces/inkscape"
   xmlns:sodipodi="http://sodipodi.sourceforge.net/DTD/sodipodi-0.dtd"
   xmlns="http://www.w3.org/2000/svg"
   xmlns:svg="http://www.w3.org/2000/svg">
  <defs
     id="defs31" />
  <sodipodi:namedview
     id="namedview31"
     pagecolor="#ffffff"
     bordercolor="#000000"
     borderopacity="0.25"
     inkscape:showpageshadow="2"
     inkscape:pageopacity="0.0"
     inkscape:pagecheckerboard="false"
     inkscape:deskcolor="#d1d1d1"
     labelstyle="default"
     inkscape:zoom="1.5234375"
     inkscape:cx="614.4"
     inkscape:cy="-7.8769231"
     inkscape:window-width="3072"
     inkscape:window-height="1659"
     inkscape:window-x="0"
     inkscape:window-y="0"
     inkscape:window-maximized="1"
     inkscape:current-layer="svg31"
     showgrid="false" />
  <rect
     style="fill:#ffffff"
     id="rect_bg"
     width="100%"
     height="100%"
     x="0"
     y="0"
     inkscape:label="rect_bg" />
  <text
     x="647.15973"
     y="5.0806909"
     dy="12.258064"
     text-anchor="middle"
     font-family="sans-serif"
     font-size="16.129px"
     opacity="1"
     fill="#000000"
     id="text1">Log Level Comparison (Info Level - Bench Configs): Violin plot</text>
  <text
     x="-118.0807"
     y="4.5545797"
     dy="7.3548388"
     text-anchor="middle"
     font-family="sans-serif"
     font-size="9.67742px"
     opacity="1"
     fill="#000000"
     transform="rotate(-90)"
     id="text2">Input</text>
  <text
     x="695.15973"
     y="246.08069"
     dy="-2.4193549"
     text-anchor="middle"
     font-family="sans-serif"
     font-size="9.67742px"
     opacity="1"
     fill="#000000"
     id="text3">Average time (ns)</text>
  <polyline
     fill="none"
     opacity="1"
     stroke="#000000"
     stroke-width="1"
     points="107,38 107,197 "
     id="polyline3"
     transform="translate(167.15971,0.08069093)" />
  <text
     x="265.15973"
     y="184.08069"
     dy="2.016129"
     text-anchor="end"
     font-family="sans-serif"
     font-size="8.06452px"
     opacity="1"
     fill="#000000"
     id="text4">Log Level Comparison (Info Level - Bench Configs)/tracing</text>
  <polyline
     fill="none"
     opacity="1"
     stroke="#000000"
     stroke-width="1"
     points="102,184 107,184 "
     id="polyline4"
     transform="translate(167.15971,0.08069093)" />
  <text
     x="265.15973"
     y="158.08069"
     dy="2.016129"
     text-anchor="end"
     font-family="sans-serif"
     font-size="8.06452px"
     opacity="1"
     fill="#000000"
     id="text5">Log Level Comparison (Info Level - Bench Configs)/slog</text>
  <polyline
     fill="none"
     opacity="1"
     stroke="#000000"
     stroke-width="1"
     points="102,158 107,158 "
     id="polyline5"
     transform="translate(167.15971,0.08069093)" />
  <text
     x="265.15973"
     y="131.0807"
     dy="2.016129"
     text-anchor="end"
     font-family="sans-serif"
     font-size="8.06452px"
     opacity="1"
     fill="#000000"
     id="text6"
     style="fill:#00aa00"><tspan
       style="font-weight:bold"
       id="tspan31">Log Level Comparison (Info Level - Bench Configs)/rasant</tspan></text>
  <polyline
     fill="none"
     opacity="1"
     stroke="#000000"
     stroke-width="1"
     points="102,131 107,131 "
     id="polyline6"
     transform="translate(167.15971,0.08069093)" />
  <text
     x="265.15973"
     y="105.0807"
     dy="2.016129"
     text-anchor="end"
     font-family="sans-serif"
     font-size="8.06452px"
     opacity="1"
     fill="#000000"
     id="text7">Log Level Comparison (Info Level - Bench Configs)/log4rs</text>
  <polyline
     fill="none"
     opacity="1"
     stroke="#000000"
     stroke-width="1"
     points="102,105 107,105 "
     id="polyline7"
     transform="translate(167.15971,0.08069093)" />
  <text
     x="265.15973"
     y="78.080688"
     dy="2.016129"
     text-anchor="end"
     font-family="sans-serif"
     font-size="8.06452px"
     opacity="1"
     fill="#000000"
     id="text8">Log Level Comparison (Info Level - Bench Configs)/fern</text>
  <polyline
     fill="none"
     opacity="1"
     stroke="#000000"
     stroke-width="1"
     points="102,78 107,78 "
     id="polyline8"
     transform="translate(167.15971,0.08069093)" />
  <text
     x="265.15973"
     y="52.080688"
     dy="2.016129"
     text-anchor="end"
     font-family="sans-serif"
     font-size="8.06452px"
     opacity="1"
     fill="#000000"
     id="text9">Log Level Comparison (Info Level - Bench Configs)/env_logger</text>
  <polyline
     fill="none"
     opacity="1"
     stroke="#000000"
     stroke-width="1"
     points="102,52 107,52 "
     id="polyline9"
     transform="translate(167.15971,0.08069093)" />
  <polyline
     fill="none"
     opacity="1"
     stroke="#000000"
     stroke-width="1"
     points="108,198 947,198 "
     id="polyline10"
     transform="translate(167.15971,0.08069093)" />
  <text
     x="275.15973"
     y="208.08069"
     dy="7.3548388"
     text-anchor="middle"
     font-family="sans-serif"
     font-size="9.67742px"
     opacity="1"
     fill="#000000"
     id="text10">0.0</text>
  <polyline
     fill="none"
     opacity="1"
     stroke="#000000"
     stroke-width="1"
     points="108,198 108,203 "
     id="polyline11"
     transform="translate(167.15971,0.08069093)" />
  <text
     x="367.15973"
     y="208.08069"
     dy="7.3548388"
     text-anchor="middle"
     font-family="sans-serif"
     font-size="9.67742px"
     opacity="1"
     fill="#000000"
     id="text11">50.0</text>
  <polyline
     fill="none"
     opacity="1"
     stroke="#000000"
     stroke-width="1"
     points="200,198 200,203 "
     id="polyline12"
     transform="translate(167.15971,0.08069093)" />
  <text
     x="459.15973"
     y="208.08069"
     dy="7.3548388"
     text-anchor="middle"
     font-family="sans-serif"
     font-size="9.67742px"
     opacity="1"
     fill="#000000"
     id="text12">100.0</text>
  <polyline
     fill="none"
     opacity="1"
     stroke="#000000"
     stroke-width="1"
     points="292,198 292,203 "
     id="polyline13"
     transform="translate(167.15971,0.08069093)" />
  <text
     x="551.15973"
     y="208.08069"
     dy="7.3548388"
     text-anchor="middle"
     font-family="sans-serif"
     font-size="9.67742px"
     opacity="1"
     fill="#000000"
     id="text13">150.0</text>
  <polyline
     fill="none"
     opacity="1"
     stroke="#000000"
     stroke-width="1"
     points="384,198 384,203 "
     id="polyline14"
     transform="translate(167.15971,0.08069093)" />
  <text
     x="644.15973"
     y="208.08069"
     dy="7.3548388"
     text-anchor="middle"
     font-family="sans-serif"
     font-size="9.67742px"
     opacity="1"
     fill="#000000"
     id="text14">200.0</text>
  <polyline
     fill="none"
     opacity="1"
     stroke="#000000"
     stroke-width="1"
     points="477,198 477,203 "
     id="polyline15"
     transform="translate(167.15971,0.08069093)" />
  <text
     x="736.15973"
     y="208.08069"
     dy="7.3548388"
     text-anchor="middle"
     font-family="sans-serif"
     font-size="9.67742px"
     opacity="1"
     fill="#000000"
     id="text15">250.0</text>
  <polyline
     fill="none"
     opacity="1"
     stroke="#000000"
     stroke-width="1"
     points="569,198 569,203 "
     id="polyline16"
     transform="translate(167.15971,0.08069093)" />
  <text
     x="828.15973"
     y="208.08069"
     dy="7.3548388"
     text-anchor="middle"
     font-family="sans-serif"
     font-size="9.67742px"
     opacity="1"
     fill="#000000"
     id="text16">300.0</text>
  <polyline
     fill="none"
     opacity="1"
     stroke="#000000"
     stroke-width="1"
     points="661,198 661,203 "
     id="polyline17"
     transform="translate(167.15971,0.08069093)" />
  <text
     x="921.15973"
     y="208.08069"
     dy="7.3548388"
     text-anchor="middle"
     font-family="sans-serif"
     font-size="9.67742px"
     opacity="1"
     fill="#000000"
     id="text17">350.0</text>
  <polyline
     fill="none"
     opacity="1"
     stroke="#000000"
     stroke-width="1"
     points="754,198 754,203 "
     id="polyline18"
     transform="translate(167.15971,0.08069093)" />
  <text
     x="1013.1597"
     y="208.08069"
     dy="7.3548388"
     text-anchor="middle"
     font-family="sans-serif"
     font-size="9.67742px"
     opacity="1"
     fill="#000000"
     id="text18">400.0</text>
  <polyline
     fill="none"
     opacity="1"
     stroke="#000000"
     stroke-width="1"
     points="846,198 846,203 "
     id="polyline19"
     transform="translate(167.15971,0.08069093)" />
  <text
     x="1105.1597"
     y="208.08069"
     dy="7.3548388"
     text-anchor="middle"
     font-family="sans-serif"
     font-size="9.67742px"
     opacity="1"
     fill="#000000"
     id="text19">450.0</text>
  <polyline
     fill="none"
     opacity="1"
     stroke="#000000"
     stroke-width="1"
     points="938,198 938,203 "
     id="polyline20"
     transform="translate(167.15971,0.08069093)" />
  <polygon
     opacity="1"
     fill="#1f78b4"
     points="873,184 873,184 874,184 874,184 874,184 874,184 874,184 874,183 875,183 875,183 875,183 875,183 875,183 875,183 875,183 876,183 876,183 876,183 876,183 876,183 876,183 877,183 877,182 877,182 877,182 877,182 877,182 878,182 878,182 878,182 878,182 878,182 878,181 879,181 879,181 879,181 879,181 879,181 879,181 879,181 880,180 880,180 880,180 880,180 880,180 880,180 881,180 881,180 881,180 881,179 881,179 881,179 882,179 882,179 882,179 882,179 882,179 882,179 883,178 883,178 883,178 883,178 883,178 883,178 883,178 884,178 884,178 884,178 884,178 884,178 884,178 885,177 885,177 885,177 885,177 885,177 885,177 886,177 886,177 886,177 886,177 886,177 886,177 887,177 887,177 887,177 887,177 887,177 887,177 888,177 888,177 888,177 888,177 888,177 888,177 888,177 889,176 889,176 889,176 889,176 889,176 889,176 890,176 890,176 890,176 890,176 890,176 890,176 891,176 891,176 891,176 891,176 891,176 891,176 892,176 892,176 892,176 892,176 892,176 892,176 892,176 893,175 893,175 893,175 893,175 893,175 893,175 894,175 894,175 894,175 894,175 894,175 894,175 895,174 895,174 895,174 895,174 895,174 895,174 896,174 896,174 896,173 896,173 896,173 896,173 896,173 897,173 897,173 897,173 897,172 897,172 897,172 898,172 898,172 898,172 898,172 898,172 898,172 899,172 899,171 899,171 899,171 899,171 899,171 900,171 900,171 900,171 900,171 900,171 900,171 900,171 901,171 901,171 901,171 901,171 901,171 901,171 902,171 902,171 902,171 902,171 902,171 902,172 903,172 903,172 903,172 903,172 903,172 903,172 904,172 904,172 904,173 904,173 904,173 904,173 904,173 905,173 905,173 905,174 905,174 905,174 905,174 906,174 906,174 906,175 906,175 906,175 906,175 907,175 907,175 907,176 907,176 907,176 907,176 908,176 908,176 908,177 908,177 908,177 908,177 909,177 909,177 909,177 909,178 909,178 909,178 909,178 910,178 910,178 910,178 910,179 910,179 910,179 911,179 911,179 911,179 911,179 911,179 911,179 912,180 912,180 912,180 912,180 912,180 912,180 913,180 913,180 913,180 913,180 913,180 913,180 913,181 914,181 914,181 914,181 914,181 914,181 914,181 915,181 915,181 915,181 915,181 915,181 915,181 916,181 916,181 916,181 916,181 916,181 916,182 917,182 917,182 917,182 917,182 917,182 917,182 917,182 918,182 918,182 918,182 918,182 918,182 918,182 919,182 919,182 919,182 919,182 919,182 919,182 920,183 920,183 920,183 920,183 920,183 920,183 921,183 921,183 921,183 921,183 921,183 921,183 921,183 922,183 922,183 922,183 922,183 922,183 922,183 923,183 923,183 923,184 923,184 923,184 923,184 924,184 924,184 924,184 924,184 924,184 924,184 925,184 925,184 925,184 925,184 925,184 925,184 925,184 926,184 926,184 926,184 926,184 926,184 926,184 927,184 927,184 927,184 927,184 927,184 927,184 928,184 928,184 928,184 928,184 928,184 928,184 929,184 929,184 929,184 929,184 929,184 929,184 930,184 930,184 930,184 930,184 930,184 930,184 930,184 931,184 931,184 931,184 931,184 931,184 931,184 932,184 932,184 932,184 932,184 932,184 932,184 933,184 933,184 933,184 933,184 933,184 933,184 934,184 934,184 934,184 934,184 934,184 934,184 934,184 935,184 935,184 935,184 935,184 935,184 935,184 936,184 936,184 936,184 936,184 936,184 936,184 937,184 937,184 937,184 937,184 937,184 937,184 938,184 938,184 938,184 938,184 938,184 938,184 938,184 939,184 939,184 939,184 939,184 939,184 939,184 940,184 940,184 940,184 940,184 940,184 940,184 941,184 941,184 941,184 941,184 941,184 941,184 942,184 942,184 942,184 942,184 942,184 942,184 942,184 943,184 943,184 943,184 943,184 943,184 943,184 944,184 944,184 944,184 944,184 944,184 944,184 945,184 945,184 945,184 945,184 945,184 945,184 946,184 946,184 946,184 946,184 946,184 946,184 947,184 947,184 866,184 867,184 868,184 869,184 870,184 871,184 872,184 873,184 "
     id="polygon20"
     transform="translate(167.15971,0.08069093)" />
  <polygon
     opacity="1"
     fill="#1f78b4"
     points="873,185 873,185 874,185 874,185 874,185 874,185 874,185 874,185 875,185 875,185 875,185 875,185 875,185 875,185 875,185 876,186 876,186 876,186 876,186 876,186 876,186 877,186 877,186 877,186 877,186 877,186 877,186 878,187 878,187 878,187 878,187 878,187 878,187 879,187 879,187 879,187 879,188 879,188 879,188 879,188 880,188 880,188 880,188 880,188 880,189 880,189 881,189 881,189 881,189 881,189 881,189 881,189 882,189 882,190 882,190 882,190 882,190 882,190 883,190 883,190 883,190 883,190 883,190 883,190 883,191 884,191 884,191 884,191 884,191 884,191 884,191 885,191 885,191 885,191 885,191 885,191 885,191 886,191 886,191 886,191 886,192 886,192 886,192 887,192 887,192 887,192 887,192 887,192 887,192 888,192 888,192 888,192 888,192 888,192 888,192 888,192 889,192 889,192 889,192 889,192 889,192 889,192 890,192 890,192 890,192 890,192 890,192 890,192 891,192 891,192 891,192 891,192 891,193 891,193 892,193 892,193 892,193 892,193 892,193 892,193 892,193 893,193 893,193 893,193 893,193 893,193 893,193 894,193 894,194 894,194 894,194 894,194 894,194 895,194 895,194 895,194 895,194 895,195 895,195 896,195 896,195 896,195 896,195 896,195 896,195 896,196 897,196 897,196 897,196 897,196 897,196 897,196 898,196 898,196 898,197 898,197 898,197 898,197 899,197 899,197 899,197 899,197 899,197 899,197 900,197 900,197 900,197 900,197 900,197 900,197 900,197 901,197 901,197 901,197 901,197 901,197 901,197 902,197 902,197 902,197 902,197 902,197 902,197 903,197 903,197 903,197 903,197 903,196 903,196 904,196 904,196 904,196 904,196 904,196 904,195 904,195 905,195 905,195 905,195 905,195 905,195 905,194 906,194 906,194 906,194 906,194 906,194 906,193 907,193 907,193 907,193 907,193 907,193 907,192 908,192 908,192 908,192 908,192 908,192 908,191 909,191 909,191 909,191 909,191 909,191 909,191 909,190 910,190 910,190 910,190 910,190 910,190 910,190 911,190 911,189 911,189 911,189 911,189 911,189 912,189 912,189 912,189 912,189 912,189 912,189 913,188 913,188 913,188 913,188 913,188 913,188 913,188 914,188 914,188 914,188 914,188 914,188 914,188 915,188 915,188 915,187 915,187 915,187 915,187 916,187 916,187 916,187 916,187 916,187 916,187 917,187 917,187 917,187 917,187 917,187 917,187 917,187 918,187 918,187 918,186 918,186 918,186 918,186 919,186 919,186 919,186 919,186 919,186 919,186 920,186 920,186 920,186 920,186 920,186 920,186 921,186 921,186 921,186 921,185 921,185 921,185 921,185 922,185 922,185 922,185 922,185 922,185 922,185 923,185 923,185 923,185 923,185 923,185 923,185 924,185 924,185 924,185 924,185 924,185 924,185 925,185 925,185 925,185 925,185 925,185 925,185 925,185 926,185 926,185 926,185 926,185 926,184 926,184 927,184 927,184 927,184 927,184 927,184 927,184 928,184 928,184 928,184 928,184 928,184 928,184 929,184 929,184 929,184 929,184 929,184 929,184 930,184 930,184 930,184 930,184 930,184 930,184 930,184 931,184 931,185 931,185 931,185 931,185 931,185 932,185 932,185 932,185 932,185 932,185 932,185 933,185 933,185 933,185 933,185 933,185 933,185 934,185 934,185 934,185 934,185 934,185 934,185 934,185 935,185 935,185 935,185 935,185 935,185 935,185 936,185 936,185 936,185 936,185 936,185 936,184 937,184 937,184 937,184 937,184 937,184 937,184 938,184 938,184 938,184 938,184 938,184 938,184 938,184 939,184 939,184 939,184 939,184 939,184 939,184 940,184 940,184 940,184 940,184 940,184 940,184 941,184 941,184 941,184 941,184 941,184 941,184 942,184 942,184 942,184 942,184 942,184 942,184 942,184 943,184 943,184 943,184 943,184 943,184 943,184 944,184 944,184 944,184 944,184 944,184 944,184 945,184 945,184 945,184 945,184 945,184 945,184 946,184 946,184 946,184 946,184 946,184 946,184 947,184 947,184 866,184 867,184 868,184 869,184 870,184 871,184 872,184 872,185 873,185 "
     id="polygon21"
     transform="translate(167.15971,0.08069093)" />
  <polygon
     opacity="1"
     fill="#1f78b4"
     points="719,157 720,157 720,157 720,157 721,157 721,157 721,157 722,157 722,157 723,157 723,156 723,156 724,156 724,156 724,156 725,156 725,156 725,156 726,156 726,156 727,156 727,156 727,155 728,155 728,155 728,155 729,155 729,155 729,155 730,155 730,154 731,154 731,154 731,154 732,154 732,153 732,153 733,153 733,153 733,153 734,152 734,152 735,152 735,151 735,151 736,151 736,150 736,150 737,150 737,149 737,149 738,149 738,148 739,148 739,148 739,147 740,147 740,147 740,146 741,146 741,146 741,146 742,145 742,145 743,145 743,145 743,145 744,145 744,145 744,145 745,144 745,145 745,145 746,145 746,145 747,145 747,145 747,145 748,146 748,146 748,146 749,147 749,147 749,147 750,148 750,148 750,148 751,149 751,149 752,150 752,150 752,151 753,151 753,151 753,152 754,152 754,153 754,153 755,153 755,154 756,154 756,154 756,155 757,155 757,155 757,155 758,156 758,156 758,156 759,156 759,156 760,157 760,157 760,157 761,157 761,157 761,157 762,157 762,157 762,157 763,157 763,157 764,157 764,157 764,158 765,158 765,158 765,158 766,158 766,158 766,158 767,158 767,158 768,158 768,158 768,158 769,158 769,158 769,158 770,158 770,158 770,158 771,158 771,158 772,158 772,158 772,158 773,158 773,158 773,158 774,158 774,158 774,158 775,158 775,158 776,158 776,158 776,158 777,158 777,158 777,158 778,158 778,158 778,158 779,158 779,158 779,158 780,158 780,158 781,158 781,158 781,158 782,158 782,158 782,158 783,158 783,158 783,158 784,158 784,158 785,158 785,158 785,158 786,158 786,158 786,158 787,158 787,158 787,158 788,158 788,158 789,158 789,158 789,158 790,158 790,158 790,158 791,158 791,158 791,158 792,158 792,158 793,158 793,158 793,158 794,158 794,158 794,158 795,158 795,158 795,158 796,158 796,158 797,158 797,158 797,158 798,158 798,158 798,158 799,158 799,158 799,158 800,158 800,158 801,158 801,158 801,158 802,158 802,158 802,158 803,158 803,158 803,158 804,158 804,158 805,158 805,158 805,158 806,158 806,158 806,158 807,158 807,158 807,158 808,158 808,158 809,158 809,158 809,158 810,158 810,158 810,158 811,158 811,158 811,158 812,158 812,158 812,158 813,158 813,158 814,158 814,158 814,158 815,158 815,158 815,158 816,158 816,158 816,158 817,158 817,158 818,158 818,158 818,158 819,158 819,158 819,158 820,158 820,158 820,158 821,158 821,158 822,158 822,158 822,158 823,158 823,158 823,158 824,158 824,158 824,158 825,158 825,158 826,158 826,158 826,158 827,158 827,158 827,158 828,158 828,158 828,158 829,158 829,158 830,158 830,158 830,158 831,158 831,158 831,158 832,158 832,158 832,158 833,158 833,158 834,158 834,158 834,158 835,158 835,158 835,158 836,158 836,158 836,158 837,158 837,158 838,158 838,158 838,158 839,158 839,158 839,158 840,158 840,158 840,158 841,158 841,158 841,158 842,158 842,158 843,158 843,158 843,158 844,158 844,158 844,158 845,158 845,158 845,158 846,158 846,158 847,158 847,158 847,158 848,158 848,158 848,158 849,158 849,158 849,158 850,158 850,158 851,158 851,158 851,158 852,158 852,158 852,158 853,158 853,158 853,158 854,158 854,158 855,158 855,158 855,158 856,158 856,158 856,158 857,158 857,158 857,158 858,158 858,158 859,158 859,158 859,158 860,158 860,158 860,158 861,158 861,158 861,158 862,158 862,158 863,158 863,158 863,158 864,158 864,158 864,158 865,158 865,158 865,158 866,158 866,158 867,158 867,158 867,158 868,158 868,158 868,158 869,158 869,158 869,158 870,158 870,158 871,158 871,158 871,158 872,158 872,158 872,158 873,158 873,158 873,158 874,158 874,158 874,158 875,158 875,158 876,158 876,158 876,158 877,158 877,158 877,158 878,158 878,158 878,158 879,158 879,158 880,158 880,158 880,158 881,158 881,158 881,158 882,158 882,158 882,158 883,158 883,158 884,158 884,158 884,158 885,158 885,158 885,158 704,158 705,158 706,158 707,158 708,158 709,158 710,158 711,158 712,158 713,158 714,158 715,157 716,157 717,157 718,157 719,157 "
     id="polygon22"
     transform="translate(167.15971,0.08069093)" />
  <polygon
     opacity="1"
     fill="#1f78b4"
     points="719,159 720,159 720,159 720,159 721,159 721,159 721,159 722,159 722,159 723,159 723,159 723,159 724,159 724,159 724,159 725,159 725,159 725,160 726,160 726,160 727,160 727,160 727,160 728,160 728,160 728,160 729,160 729,161 729,161 730,161 730,161 731,161 731,161 731,162 732,162 732,162 732,162 733,162 733,163 733,163 734,163 734,163 735,164 735,164 735,164 736,165 736,165 736,165 737,166 737,166 737,166 738,167 738,167 739,167 739,168 739,168 740,168 740,169 740,169 741,169 741,170 741,170 742,170 742,170 743,170 743,171 743,171 744,171 744,171 744,171 745,171 745,171 745,171 746,171 746,171 747,171 747,170 747,170 748,170 748,170 748,169 749,169 749,169 749,168 750,168 750,167 750,167 751,167 751,166 752,166 752,165 752,165 753,164 753,164 753,164 754,163 754,163 754,162 755,162 755,162 756,161 756,161 756,161 757,161 757,160 757,160 758,160 758,160 758,159 759,159 759,159 760,159 760,159 760,159 761,159 761,159 761,158 762,158 762,158 762,158 763,158 763,158 764,158 764,158 764,158 765,158 765,158 765,158 766,158 766,158 766,158 767,158 767,158 768,158 768,158 768,158 769,158 769,158 769,158 770,158 770,158 770,158 771,158 771,158 772,158 772,158 772,158 773,158 773,158 773,158 774,158 774,158 774,158 775,158 775,158 776,158 776,158 776,158 777,158 777,158 777,158 778,158 778,158 778,158 779,158 779,158 779,158 780,158 780,158 781,158 781,158 781,158 782,158 782,158 782,158 783,158 783,158 783,158 784,158 784,158 785,158 785,158 785,158 786,158 786,158 786,158 787,158 787,158 787,158 788,158 788,158 789,158 789,158 789,158 790,158 790,158 790,158 791,158 791,158 791,158 792,158 792,158 793,158 793,158 793,158 794,158 794,158 794,158 795,158 795,158 795,158 796,158 796,158 797,158 797,158 797,158 798,158 798,158 798,158 799,158 799,158 799,158 800,158 800,158 801,158 801,158 801,158 802,158 802,158 802,158 803,158 803,158 803,158 804,158 804,158 805,158 805,158 805,158 806,158 806,158 806,158 807,158 807,158 807,158 808,158 808,158 809,158 809,158 809,158 810,158 810,158 810,158 811,158 811,158 811,158 812,158 812,158 812,158 813,158 813,158 814,158 814,158 814,158 815,158 815,158 815,158 816,158 816,158 816,158 817,158 817,158 818,158 818,158 818,158 819,158 819,158 819,158 820,158 820,158 820,158 821,158 821,158 822,158 822,158 822,158 823,158 823,158 823,158 824,158 824,158 824,158 825,158 825,158 826,158 826,158 826,158 827,158 827,158 827,158 828,158 828,158 828,158 829,158 829,158 830,158 830,158 830,158 831,158 831,158 831,158 832,158 832,158 832,158 833,158 833,158 834,158 834,158 834,158 835,158 835,158 835,158 836,158 836,158 836,158 837,158 837,158 838,158 838,158 838,158 839,158 839,158 839,158 840,158 840,158 840,158 841,158 841,158 841,158 842,158 842,158 843,158 843,158 843,158 844,158 844,158 844,158 845,158 845,158 845,158 846,158 846,158 847,158 847,158 847,158 848,158 848,158 848,158 849,158 849,158 849,158 850,158 850,158 851,158 851,158 851,158 852,158 852,158 852,158 853,158 853,158 853,158 854,158 854,158 855,158 855,158 855,158 856,158 856,158 856,158 857,158 857,158 857,158 858,158 858,158 859,158 859,158 859,158 860,158 860,158 860,158 861,158 861,158 861,158 862,158 862,158 863,158 863,158 863,158 864,158 864,158 864,158 865,158 865,158 865,158 866,158 866,158 867,158 867,158 867,158 868,158 868,158 868,158 869,158 869,158 869,158 870,158 870,158 871,158 871,158 871,158 872,158 872,158 872,158 873,158 873,158 873,158 874,158 874,158 874,158 875,158 875,158 876,158 876,158 876,158 877,158 877,158 877,158 878,158 878,158 878,158 879,158 879,158 880,158 880,158 880,158 881,158 881,158 881,158 882,158 882,158 882,158 883,158 883,158 884,158 884,158 884,158 885,158 885,158 885,158 704,158 705,158 706,158 707,158 708,158 709,158 710,158 711,158 712,158 713,158 714,158 715,158 716,158 717,158 718,158 719,158 "
     id="polygon23"
     transform="translate(167.15971,0.08069093)" />
  <polygon
     opacity="1"
     fill="#1F78B4"
     points="443,131 443,131 443,131 443,131 443,131 444,131 444,131 444,131 444,131 444,131 444,131 445,131 445,131 445,131 445,130 445,130 445,130 445,130 446,130 446,130 446,130 446,130 446,130 446,130 447,130 447,130 447,130 447,130 447,130 447,130 448,130 448,130 448,130 448,130 448,130 448,130 448,129 449,129 449,129 449,129 449,129 449,129 449,129 450,129 450,129 450,129 450,129 450,129 450,129 451,129 451,129 451,129 451,129 451,129 451,129 451,129 452,129 452,129 452,128 452,128 452,128 452,128 453,128 453,128 453,128 453,128 453,128 453,128 454,128 454,128 454,128 454,128 454,128 454,128 454,128 455,128 455,128 455,128 455,128 455,128 455,128 456,128 456,128 456,128 456,128 456,128 456,128 457,128 457,129 457,129 457,129 457,129 457,129 457,129 458,129 458,129 458,129 458,129 458,129 458,129 459,129 459,129 459,129 459,129 459,129 459,129 460,129 460,129 460,129 460,129 460,129 460,129 460,129 461,129 461,129 461,129 461,129 461,130 461,130 462,130 462,130 462,130 462,130 462,130 462,130 463,130 463,130 463,130 463,130 463,130 463,130 463,130 464,130 464,130 464,130 464,130 464,130 464,130 465,130 465,130 465,130 465,130 465,130 465,130 466,130 466,130 466,130 466,130 466,130 466,130 466,130 467,130 467,130 467,130 467,130 467,130 467,130 468,130 468,130 468,129 468,129 468,129 468,129 469,129 469,129 469,129 469,129 469,129 469,129 469,129 470,129 470,129 470,129 470,129 470,129 470,129 471,129 471,129 471,129 471,129 471,128 471,128 472,128 472,128 472,128 472,128 472,128 472,128 472,128 473,128 473,128 473,128 473,128 473,127 473,127 474,127 474,127 474,127 474,127 474,127 474,127 475,127 475,127 475,126 475,126 475,126 475,126 475,126 476,126 476,126 476,126 476,125 476,125 476,125 477,125 477,125 477,125 477,125 477,124 477,124 478,124 478,124 478,124 478,124 478,124 478,123 478,123 479,123 479,123 479,123 479,123 479,122 479,122 480,122 480,122 480,122 480,122 480,122 480,121 481,121 481,121 481,121 481,121 481,121 481,120 481,120 482,120 482,120 482,120 482,120 482,120 482,119 483,119 483,119 483,119 483,119 483,119 483,119 484,119 484,119 484,119 484,118 484,118 484,118 484,118 485,118 485,118 485,118 485,118 485,118 485,118 486,118 486,118 486,118 486,118 486,118 486,118 487,118 487,118 487,118 487,118 487,118 487,118 487,118 488,118 488,119 488,119 488,119 488,119 488,119 489,119 489,119 489,119 489,119 489,120 489,120 490,120 490,120 490,120 490,120 490,121 490,121 490,121 491,121 491,121 491,121 491,122 491,122 491,122 492,122 492,122 492,122 492,123 492,123 492,123 493,123 493,123 493,124 493,124 493,124 493,124 493,124 494,124 494,125 494,125 494,125 494,125 494,125 495,125 495,126 495,126 495,126 495,126 495,126 496,126 496,127 496,127 496,127 496,127 496,127 496,127 497,127 497,127 497,128 497,128 497,128 497,128 498,128 498,128 498,128 498,128 498,129 498,129 499,129 499,129 499,129 499,129 499,129 499,129 499,129 500,129 500,129 500,129 500,130 500,130 500,130 501,130 501,130 501,130 501,130 501,130 501,130 502,130 502,130 502,130 502,130 502,130 502,130 502,130 503,130 503,130 503,130 503,131 503,131 503,131 504,131 504,131 504,131 504,131 504,131 504,131 505,131 505,131 505,131 505,131 505,131 505,131 505,131 506,131 506,131 506,131 506,131 506,131 506,131 507,131 507,131 507,131 507,131 507,131 507,131 508,131 508,131 508,131 508,131 508,131 508,131 508,131 509,131 509,131 509,131 509,131 509,131 509,131 510,131 510,131 510,131 510,131 510,131 510,131 511,131 511,131 511,131 511,131 511,131 511,131 511,131 512,131 512,131 512,131 512,131 512,131 512,131 513,131 513,131 513,131 513,131 513,131 513,131 514,131 514,131 514,131 514,131 514,131 514,131 515,131 515,131 515,131 515,131 515,131 436,131 437,131 438,131 439,131 440,131 441,131 442,131 443,131 "
     id="polygon24"
     style="fill:#00aa00"
     transform="translate(167.15971,0.08069093)" />
  <polygon
     opacity="1"
     fill="#1F78B4"
     points="443,132 443,132 443,132 443,132 443,132 444,132 444,132 444,132 444,132 444,132 444,132 445,132 445,132 445,132 445,132 445,132 445,132 445,132 446,132 446,132 446,132 446,132 446,132 446,132 447,132 447,132 447,133 447,133 447,133 447,133 448,133 448,133 448,133 448,133 448,133 448,133 448,133 449,133 449,133 449,133 449,133 449,133 449,133 450,133 450,133 450,133 450,134 450,134 450,134 451,134 451,134 451,134 451,134 451,134 451,134 451,134 452,134 452,134 452,134 452,134 452,134 452,134 453,134 453,134 453,134 453,134 453,134 453,134 454,134 454,134 454,134 454,134 454,134 454,134 454,134 455,134 455,134 455,134 455,134 455,134 455,134 456,134 456,134 456,134 456,134 456,134 456,134 457,134 457,134 457,134 457,134 457,134 457,134 457,134 458,134 458,134 458,134 458,134 458,134 458,134 459,134 459,134 459,134 459,133 459,133 459,133 460,133 460,133 460,133 460,133 460,133 460,133 460,133 461,133 461,133 461,133 461,133 461,133 461,133 462,133 462,133 462,133 462,133 462,133 462,133 463,133 463,133 463,133 463,133 463,133 463,133 463,133 464,133 464,133 464,133 464,133 464,133 464,133 465,133 465,133 465,133 465,133 465,133 465,133 466,133 466,133 466,133 466,133 466,133 466,133 466,133 467,133 467,133 467,133 467,133 467,133 467,133 468,133 468,133 468,133 468,133 468,133 468,133 469,133 469,133 469,133 469,133 469,133 469,133 469,133 470,133 470,133 470,134 470,134 470,134 470,134 471,134 471,134 471,134 471,134 471,134 471,134 472,134 472,134 472,134 472,134 472,134 472,135 472,135 473,135 473,135 473,135 473,135 473,135 473,135 474,135 474,135 474,135 474,136 474,136 474,136 475,136 475,136 475,136 475,136 475,136 475,136 475,137 476,137 476,137 476,137 476,137 476,137 476,137 477,137 477,138 477,138 477,138 477,138 477,138 478,138 478,138 478,139 478,139 478,139 478,139 478,139 479,139 479,140 479,140 479,140 479,140 479,140 480,140 480,141 480,141 480,141 480,141 480,141 481,141 481,141 481,142 481,142 481,142 481,142 481,142 482,142 482,143 482,143 482,143 482,143 482,143 483,143 483,143 483,143 483,144 483,144 483,144 484,144 484,144 484,144 484,144 484,144 484,144 484,144 485,144 485,144 485,144 485,144 485,144 485,144 486,144 486,144 486,144 486,144 486,144 486,144 487,144 487,144 487,144 487,144 487,144 487,144 487,144 488,144 488,144 488,144 488,144 488,144 488,144 489,143 489,143 489,143 489,143 489,143 489,143 490,143 490,142 490,142 490,142 490,142 490,142 490,142 491,141 491,141 491,141 491,141 491,141 491,141 492,140 492,140 492,140 492,140 492,140 492,140 493,139 493,139 493,139 493,139 493,139 493,138 493,138 494,138 494,138 494,138 494,138 494,137 494,137 495,137 495,137 495,137 495,137 495,136 495,136 496,136 496,136 496,136 496,136 496,136 496,135 496,135 497,135 497,135 497,135 497,135 497,135 497,135 498,134 498,134 498,134 498,134 498,134 498,134 499,134 499,134 499,134 499,134 499,133 499,133 499,133 500,133 500,133 500,133 500,133 500,133 500,133 501,133 501,133 501,133 501,133 501,133 501,132 502,132 502,132 502,132 502,132 502,132 502,132 502,132 503,132 503,132 503,132 503,132 503,132 503,132 504,132 504,132 504,132 504,132 504,132 504,132 505,132 505,132 505,132 505,132 505,132 505,132 505,132 506,132 506,132 506,132 506,132 506,132 506,131 507,131 507,131 507,131 507,131 507,131 507,131 508,131 508,131 508,131 508,131 508,131 508,131 508,131 509,131 509,131 509,131 509,131 509,131 509,131 510,131 510,131 510,131 510,131 510,131 510,131 511,131 511,131 511,131 511,131 511,131 511,131 511,131 512,131 512,131 512,131 512,131 512,131 512,131 513,131 513,131 513,131 513,131 513,131 513,131 514,131 514,131 514,131 514,131 514,131 514,131 515,131 515,131 515,131 515,131 515,131 436,131 437,131 438,131 439,131 440,131 441,131 442,131 442,132 443,132 "
     id="polygon25"
     style="fill:#00aa00"
     transform="translate(167.15971,0.08069093)" />
  <polygon
     opacity="1"
     fill="#1f78b4"
     points="773,104 773,104 773,104 773,104 773,104 774,104 774,104 774,104 774,104 774,104 774,104 774,104 774,104 774,104 774,104 774,104 774,104 774,103 774,103 774,103 774,103 774,103 774,103 774,103 775,103 775,103 775,103 775,102 775,102 775,102 775,102 775,102 775,102 775,102 775,101 775,101 775,101 775,101 775,101 775,101 775,100 775,100 776,100 776,100 776,100 776,100 776,99 776,99 776,99 776,99 776,98 776,98 776,98 776,98 776,98 776,97 776,97 776,97 776,97 776,96 776,96 777,96 777,96 777,96 777,95 777,95 777,95 777,95 777,95 777,94 777,94 777,94 777,94 777,94 777,93 777,93 777,93 777,93 777,93 777,93 778,93 778,92 778,92 778,92 778,92 778,92 778,92 778,92 778,92 778,92 778,92 778,92 778,92 778,92 778,92 778,92 778,92 778,91 778,91 779,92 779,92 779,92 779,92 779,92 779,92 779,92 779,92 779,92 779,92 779,92 779,92 779,92 779,92 779,92 779,92 779,92 779,92 780,92 780,93 780,93 780,93 780,93 780,93 780,93 780,93 780,93 780,93 780,93 780,94 780,94 780,94 780,94 780,94 780,94 780,94 780,94 781,94 781,94 781,95 781,95 781,95 781,95 781,95 781,95 781,95 781,95 781,95 781,95 781,95 781,96 781,96 781,96 781,96 781,96 781,96 782,96 782,96 782,96 782,96 782,96 782,97 782,97 782,97 782,97 782,97 782,97 782,97 782,97 782,97 782,97 782,97 782,97 782,97 783,98 783,98 783,98 783,98 783,98 783,98 783,98 783,98 783,98 783,98 783,98 783,98 783,98 783,98 783,99 783,99 783,99 783,99 783,99 784,99 784,99 784,99 784,99 784,99 784,99 784,99 784,99 784,99 784,99 784,99 784,100 784,100 784,100 784,100 784,100 784,100 784,100 784,100 785,100 785,100 785,100 785,100 785,100 785,100 785,100 785,100 785,100 785,100 785,100 785,101 785,101 785,101 785,101 785,101 785,101 785,101 786,101 786,101 786,101 786,101 786,101 786,101 786,101 786,101 786,101 786,101 786,101 786,101 786,101 786,101 786,101 786,101 786,101 786,101 786,101 787,102 787,102 787,102 787,102 787,102 787,102 787,102 787,102 787,102 787,102 787,102 787,102 787,102 787,102 787,102 787,102 787,102 787,102 787,102 788,102 788,102 788,102 788,102 788,102 788,102 788,102 788,102 788,102 788,102 788,102 788,102 788,102 788,102 788,102 788,102 788,102 788,102 789,102 789,102 789,102 789,102 789,103 789,103 789,103 789,103 789,103 789,103 789,103 789,103 789,103 789,103 789,103 789,103 789,103 789,103 789,103 790,103 790,103 790,103 790,103 790,103 790,103 790,103 790,103 790,103 790,103 790,103 790,103 790,103 790,103 790,103 790,103 790,103 790,103 790,103 791,103 791,103 791,103 791,103 791,104 791,104 791,104 791,104 791,104 791,104 791,104 791,104 791,104 791,104 791,104 791,104 791,104 791,104 792,104 792,104 792,104 792,104 792,104 792,104 792,104 792,104 792,104 792,104 792,104 792,104 792,104 792,104 792,104 792,104 792,104 792,104 792,104 793,104 793,104 793,104 793,104 793,104 793,104 793,104 793,104 793,104 793,104 793,104 793,104 793,104 793,104 793,104 793,104 793,104 793,104 793,104 794,104 794,104 794,104 794,104 794,104 794,104 794,104 794,104 794,104 794,104 794,105 794,105 794,105 794,105 794,105 794,105 794,105 794,105 794,105 795,105 795,105 795,105 795,105 795,105 795,105 795,105 795,105 795,105 795,105 795,105 795,105 795,105 795,105 795,105 795,105 795,105 795,105 796,105 796,105 796,105 796,105 796,105 796,105 796,105 796,105 796,105 796,105 796,105 796,105 796,105 796,105 796,105 796,105 796,105 796,105 796,105 797,105 797,105 797,105 797,105 797,105 797,105 797,105 797,105 797,105 797,105 797,105 797,105 797,105 797,105 797,105 797,105 797,105 797,105 797,105 798,105 798,105 798,105 798,105 798,105 771,105 772,105 773,105 773,104 "
     id="polygon26"
     transform="translate(167.15971,0.08069093)" />
  <polygon
     opacity="1"
     fill="#1f78b4"
     points="773,105 773,105 773,105 773,105 773,105 774,105 774,105 774,105 774,105 774,105 774,106 774,106 774,106 774,106 774,106 774,106 774,106 774,106 774,106 774,106 774,106 774,106 774,106 774,107 775,107 775,107 775,107 775,107 775,107 775,107 775,107 775,108 775,108 775,108 775,108 775,108 775,108 775,109 775,109 775,109 775,109 775,109 776,109 776,110 776,110 776,110 776,110 776,110 776,111 776,111 776,111 776,111 776,111 776,112 776,112 776,112 776,112 776,113 776,113 776,113 776,113 777,113 777,114 777,114 777,114 777,114 777,115 777,115 777,115 777,115 777,115 777,115 777,116 777,116 777,116 777,116 777,116 777,116 777,117 777,117 778,117 778,117 778,117 778,117 778,117 778,117 778,118 778,118 778,118 778,118 778,118 778,118 778,118 778,118 778,118 778,118 778,118 778,118 778,118 779,118 779,118 779,118 779,118 779,118 779,118 779,118 779,118 779,118 779,118 779,118 779,118 779,117 779,117 779,117 779,117 779,117 779,117 780,117 780,117 780,117 780,117 780,117 780,117 780,116 780,116 780,116 780,116 780,116 780,116 780,116 780,116 780,116 780,116 780,115 780,115 780,115 781,115 781,115 781,115 781,115 781,115 781,115 781,115 781,114 781,114 781,114 781,114 781,114 781,114 781,114 781,114 781,114 781,114 781,114 781,113 782,113 782,113 782,113 782,113 782,113 782,113 782,113 782,113 782,113 782,113 782,113 782,112 782,112 782,112 782,112 782,112 782,112 782,112 783,112 783,112 783,112 783,112 783,112 783,112 783,111 783,111 783,111 783,111 783,111 783,111 783,111 783,111 783,111 783,111 783,111 783,111 783,111 784,111 784,111 784,111 784,110 784,110 784,110 784,110 784,110 784,110 784,110 784,110 784,110 784,110 784,110 784,110 784,110 784,110 784,110 784,110 785,110 785,109 785,109 785,109 785,109 785,109 785,109 785,109 785,109 785,109 785,109 785,109 785,109 785,109 785,109 785,109 785,109 785,109 786,109 786,109 786,109 786,109 786,109 786,108 786,108 786,108 786,108 786,108 786,108 786,108 786,108 786,108 786,108 786,108 786,108 786,108 786,108 787,108 787,108 787,108 787,108 787,108 787,108 787,108 787,108 787,108 787,108 787,108 787,108 787,108 787,108 787,108 787,108 787,108 787,108 787,107 788,107 788,107 788,107 788,107 788,107 788,107 788,107 788,107 788,107 788,107 788,107 788,107 788,107 788,107 788,107 788,107 788,107 788,107 789,107 789,107 789,107 789,107 789,107 789,107 789,107 789,107 789,107 789,107 789,107 789,107 789,107 789,107 789,107 789,107 789,107 789,107 789,107 790,107 790,107 790,107 790,107 790,107 790,107 790,106 790,106 790,106 790,106 790,106 790,106 790,106 790,106 790,106 790,106 790,106 790,106 790,106 791,106 791,106 791,106 791,106 791,106 791,106 791,106 791,106 791,106 791,106 791,106 791,106 791,106 791,106 791,106 791,106 791,106 791,106 792,106 792,106 792,106 792,106 792,106 792,106 792,105 792,105 792,105 792,105 792,105 792,105 792,105 792,105 792,105 792,105 792,105 792,105 792,105 793,105 793,105 793,105 793,105 793,105 793,105 793,105 793,105 793,105 793,105 793,105 793,105 793,105 793,105 793,105 793,105 793,105 793,105 793,105 794,105 794,105 794,105 794,105 794,105 794,105 794,105 794,105 794,105 794,105 794,105 794,105 794,105 794,105 794,105 794,105 794,105 794,105 794,105 795,105 795,105 795,105 795,105 795,105 795,105 795,105 795,105 795,105 795,105 795,105 795,105 795,105 795,105 795,105 795,105 795,105 795,105 796,105 796,105 796,105 796,105 796,105 796,105 796,105 796,105 796,105 796,105 796,105 796,105 796,105 796,105 796,105 796,105 796,105 796,105 796,105 797,105 797,105 797,105 797,105 797,105 797,105 797,105 797,105 797,105 797,105 797,105 797,105 797,105 797,105 797,105 797,105 797,105 797,105 797,105 798,105 798,105 798,105 798,105 798,105 771,105 772,105 773,105 "
     id="polygon27"
     transform="translate(167.15971,0.08069093)" />
  <polygon
     opacity="1"
     fill="#1f78b4"
     points="770,76 771,75 771,75 771,75 772,75 772,75 772,74 773,74 773,74 773,74 774,73 774,73 774,73 775,72 775,72 775,72 776,72 776,71 776,71 777,71 777,70 777,70 778,70 778,69 778,69 779,69 779,69 779,68 780,68 780,68 780,67 781,67 781,67 781,67 782,67 782,66 782,66 783,66 783,66 783,66 784,66 784,65 784,65 784,65 785,65 785,65 785,65 786,65 786,65 786,65 787,65 787,65 787,65 788,65 788,65 788,65 789,65 789,66 789,66 790,66 790,66 790,66 791,66 791,67 791,67 792,67 792,67 792,67 793,68 793,68 793,68 794,68 794,69 794,69 795,69 795,69 795,70 796,70 796,70 796,70 797,71 797,71 797,71 798,71 798,72 798,72 799,72 799,72 799,73 800,73 800,73 800,73 800,74 801,74 801,74 801,74 802,74 802,75 802,75 803,75 803,75 803,75 804,75 804,76 804,76 805,76 805,76 805,76 806,76 806,76 806,76 807,77 807,77 807,77 808,77 808,77 808,77 809,77 809,77 809,77 810,77 810,77 810,77 811,77 811,78 811,78 812,78 812,78 812,78 813,78 813,78 813,78 814,78 814,78 814,78 815,78 815,78 815,78 815,78 816,78 816,78 816,78 817,78 817,78 817,78 818,78 818,78 818,78 819,78 819,78 819,78 820,78 820,78 820,78 821,78 821,78 821,78 822,78 822,78 822,78 823,78 823,78 823,78 824,78 824,78 824,78 825,78 825,78 825,78 826,78 826,78 826,78 827,78 827,78 827,78 828,78 828,78 828,78 829,78 829,78 829,78 830,78 830,78 830,78 831,78 831,78 831,78 831,78 832,78 832,78 832,78 833,78 833,78 833,78 834,78 834,78 834,78 835,78 835,78 835,78 836,78 836,78 836,78 837,78 837,78 837,78 838,78 838,78 838,78 839,78 839,78 839,78 840,78 840,78 840,78 841,78 841,78 841,78 842,78 842,78 842,78 843,78 843,78 843,78 844,78 844,78 844,78 845,78 845,78 845,78 846,78 846,78 846,78 847,78 847,78 847,78 847,78 848,78 848,78 848,78 849,78 849,78 849,78 850,78 850,78 850,78 851,78 851,78 851,78 852,78 852,78 852,78 853,78 853,78 853,78 854,78 854,78 854,78 855,78 855,78 855,78 856,78 856,78 856,78 857,78 857,78 857,78 858,78 858,78 858,78 859,78 859,78 859,78 860,78 860,78 860,78 861,78 861,78 861,78 862,78 862,78 862,78 863,78 863,78 863,78 863,78 864,78 864,78 864,78 865,78 865,78 865,78 866,78 866,78 866,78 867,78 867,78 867,78 868,78 868,78 868,78 869,78 869,78 869,78 870,78 870,78 870,78 871,78 871,78 871,78 872,78 872,78 872,78 873,78 873,78 873,78 874,78 874,78 874,78 875,78 875,78 875,78 876,78 876,78 876,78 877,78 877,78 877,78 878,78 878,78 878,78 878,78 879,78 879,78 879,78 880,78 880,78 880,78 881,78 881,78 881,78 882,78 882,78 882,78 883,78 883,78 883,78 884,78 884,78 884,78 885,78 885,78 885,78 886,78 886,78 886,78 887,78 887,78 887,78 888,78 888,78 888,78 889,78 889,78 889,78 890,78 890,78 890,78 891,78 891,78 891,78 892,78 892,78 892,78 893,78 893,78 893,78 894,78 894,78 894,78 894,78 895,78 895,78 895,78 896,78 896,78 896,78 897,78 897,78 897,78 898,78 898,78 898,78 899,78 899,78 899,78 900,78 900,78 900,78 901,78 901,78 901,78 902,78 902,78 902,78 903,78 903,78 903,78 904,78 904,78 904,78 905,78 905,78 905,78 906,78 906,78 906,78 907,78 907,78 907,78 908,78 908,78 908,78 909,78 909,78 909,78 910,78 910,78 910,78 910,78 911,78 911,78 911,78 912,78 912,78 912,78 913,78 913,78 913,78 914,78 914,78 914,78 915,78 915,78 915,78 916,78 916,78 916,78 917,78 917,78 917,78 918,78 918,78 918,78 919,78 919,78 919,78 920,78 920,78 757,78 758,78 759,78 760,78 761,78 762,78 763,78 764,78 765,78 766,77 767,77 768,77 769,76 770,76 "
     id="polygon28"
     transform="translate(167.15971,0.08069093)" />
  <polygon
     opacity="1"
     fill="#1f78b4"
     points="770,81 771,81 771,81 771,82 772,82 772,82 772,82 773,82 773,83 773,83 774,83 774,84 774,84 775,84 775,84 775,85 776,85 776,85 776,86 777,86 777,86 777,86 778,87 778,87 778,87 779,88 779,88 779,88 780,88 780,89 780,89 781,89 781,90 781,90 782,90 782,90 782,90 783,91 783,91 783,91 784,91 784,91 784,91 784,91 785,91 785,91 785,91 786,91 786,91 786,91 787,91 787,91 787,91 788,91 788,91 788,91 789,91 789,91 789,91 790,91 790,90 790,90 791,90 791,90 791,90 792,89 792,89 792,89 793,89 793,89 793,88 794,88 794,88 794,88 795,87 795,87 795,87 796,87 796,86 796,86 797,86 797,86 797,85 798,85 798,85 798,85 799,84 799,84 799,84 800,84 800,83 800,83 800,83 801,83 801,83 801,82 802,82 802,82 802,82 803,82 803,81 803,81 804,81 804,81 804,81 805,81 805,81 805,80 806,80 806,80 806,80 807,80 807,80 807,80 808,80 808,80 808,79 809,79 809,79 809,79 810,79 810,79 810,79 811,79 811,79 811,79 812,79 812,79 812,79 813,79 813,79 813,79 814,79 814,79 814,79 815,79 815,79 815,79 815,78 816,78 816,78 816,78 817,78 817,78 817,78 818,78 818,78 818,78 819,78 819,78 819,78 820,78 820,78 820,78 821,78 821,78 821,78 822,78 822,78 822,78 823,78 823,78 823,78 824,78 824,78 824,78 825,78 825,78 825,78 826,78 826,78 826,78 827,78 827,78 827,78 828,78 828,78 828,78 829,78 829,78 829,78 830,78 830,78 830,78 831,78 831,78 831,78 831,78 832,78 832,78 832,78 833,78 833,78 833,78 834,78 834,78 834,78 835,78 835,78 835,78 836,78 836,78 836,78 837,78 837,78 837,78 838,78 838,78 838,78 839,78 839,78 839,78 840,78 840,78 840,78 841,78 841,78 841,78 842,78 842,78 842,78 843,78 843,78 843,78 844,79 844,79 844,79 845,79 845,79 845,79 846,79 846,79 846,79 847,79 847,79 847,79 847,79 848,79 848,79 848,79 849,79 849,79 849,79 850,79 850,79 850,79 851,79 851,79 851,79 852,79 852,79 852,79 853,79 853,79 853,79 854,79 854,79 854,79 855,79 855,79 855,79 856,79 856,79 856,79 857,79 857,79 857,79 858,79 858,79 858,79 859,79 859,79 859,79 860,79 860,79 860,78 861,78 861,78 861,78 862,78 862,78 862,78 863,78 863,78 863,78 863,78 864,78 864,78 864,78 865,78 865,78 865,78 866,78 866,78 866,78 867,78 867,78 867,78 868,78 868,78 868,78 869,78 869,78 869,78 870,78 870,78 870,78 871,78 871,78 871,78 872,78 872,78 872,78 873,78 873,78 873,78 874,78 874,78 874,78 875,78 875,78 875,78 876,78 876,78 876,78 877,78 877,78 877,78 878,78 878,78 878,78 878,78 879,78 879,78 879,78 880,78 880,78 880,78 881,78 881,78 881,78 882,78 882,78 882,78 883,78 883,78 883,78 884,78 884,78 884,78 885,78 885,78 885,78 886,78 886,78 886,78 887,78 887,78 887,78 888,78 888,78 888,78 889,78 889,78 889,78 890,78 890,78 890,78 891,78 891,78 891,78 892,78 892,78 892,78 893,78 893,78 893,78 894,78 894,78 894,78 894,78 895,78 895,78 895,78 896,78 896,78 896,78 897,78 897,78 897,78 898,78 898,78 898,78 899,78 899,78 899,78 900,78 900,78 900,78 901,78 901,78 901,78 902,78 902,78 902,78 903,78 903,78 903,78 904,78 904,78 904,78 905,78 905,78 905,78 906,78 906,78 906,78 907,78 907,78 907,78 908,78 908,78 908,78 909,78 909,78 909,78 910,78 910,78 910,78 910,78 911,78 911,78 911,78 912,78 912,78 912,78 913,78 913,78 913,78 914,78 914,78 914,78 915,78 915,78 915,78 916,78 916,78 916,78 917,78 917,78 917,78 918,78 918,78 918,78 919,78 919,78 919,78 920,78 920,78 757,78 758,78 759,78 760,78 761,78 762,78 762,79 763,79 764,79 765,79 766,79 767,79 768,80 769,80 770,81 "
     id="polygon29"
     transform="translate(167.15971,0.08069093)" />
  <polygon
     opacity="1"
     fill="#1f78b4"
     points="771,51 771,51 771,51 771,51 771,51 771,51 772,51 772,51 772,51 772,51 772,51 772,51 772,51 773,51 773,51 773,51 773,51 773,51 773,51 774,50 774,50 774,50 774,50 774,50 774,50 774,50 775,50 775,50 775,50 775,49 775,49 775,49 775,49 776,49 776,49 776,49 776,49 776,48 776,48 776,48 777,48 777,48 777,48 777,47 777,47 777,47 778,47 778,47 778,47 778,46 778,46 778,46 778,46 779,46 779,46 779,45 779,45 779,45 779,45 779,45 780,45 780,45 780,44 780,44 780,44 780,44 780,44 781,44 781,43 781,43 781,43 781,43 781,43 782,43 782,42 782,42 782,42 782,42 782,42 782,42 783,41 783,41 783,41 783,41 783,41 783,41 783,40 784,40 784,40 784,40 784,40 784,40 784,40 784,39 785,39 785,39 785,39 785,39 785,39 785,39 786,39 786,39 786,39 786,39 786,39 786,39 786,38 787,39 787,39 787,39 787,39 787,39 787,39 787,39 788,39 788,39 788,39 788,39 788,39 788,40 788,40 789,40 789,40 789,40 789,41 789,41 789,41 790,41 790,41 790,42 790,42 790,42 790,42 790,43 791,43 791,43 791,43 791,44 791,44 791,44 791,44 792,45 792,45 792,45 792,45 792,46 792,46 792,46 793,46 793,47 793,47 793,47 793,47 793,47 794,47 794,48 794,48 794,48 794,48 794,48 794,48 795,48 795,49 795,49 795,49 795,49 795,49 795,49 796,49 796,49 796,49 796,49 796,49 796,49 796,50 797,50 797,50 797,50 797,50 797,50 797,50 798,50 798,50 798,50 798,50 798,50 798,50 798,50 799,50 799,50 799,50 799,50 799,50 799,50 799,50 800,50 800,50 800,51 800,51 800,51 800,51 800,51 801,51 801,51 801,51 801,51 801,51 801,51 802,51 802,51 802,51 802,51 802,51 802,51 802,51 803,51 803,51 803,51 803,51 803,51 803,51 803,51 804,51 804,51 804,51 804,51 804,51 804,51 804,51 805,51 805,51 805,51 805,51 805,51 805,51 805,51 806,51 806,51 806,51 806,51 806,51 806,51 807,51 807,51 807,51 807,51 807,51 807,51 807,51 808,51 808,51 808,51 808,51 808,51 808,51 808,51 809,51 809,51 809,51 809,51 809,51 809,51 809,51 810,51 810,51 810,51 810,51 810,51 810,51 811,51 811,51 811,51 811,51 811,51 811,51 811,51 812,51 812,51 812,51 812,51 812,51 812,51 812,51 813,51 813,51 813,51 813,51 813,51 813,51 813,51 814,51 814,51 814,51 814,51 814,51 814,51 815,51 815,51 815,51 815,51 815,51 815,51 815,51 816,52 816,52 816,52 816,52 816,52 816,52 816,52 817,52 817,52 817,52 817,52 817,52 817,52 817,52 818,52 818,52 818,52 818,52 818,52 818,52 819,52 819,52 819,52 819,52 819,52 819,52 819,52 820,52 820,52 820,52 820,52 820,52 820,52 820,52 821,52 821,52 821,52 821,52 821,52 821,52 821,52 822,52 822,52 822,52 822,52 822,52 822,52 823,52 823,52 823,52 823,52 823,52 823,52 823,52 824,52 824,52 824,52 824,52 824,52 824,52 824,52 825,52 825,52 825,52 825,52 825,52 825,52 825,52 826,52 826,52 826,52 826,52 826,52 826,52 827,52 827,52 827,52 827,52 827,52 827,52 827,52 828,52 828,52 828,52 828,52 828,52 828,52 828,52 829,52 829,52 829,52 829,52 829,52 829,52 829,52 830,52 830,52 830,52 830,52 830,52 830,52 831,52 831,52 831,52 831,52 831,52 831,52 831,52 832,52 832,52 832,52 832,52 832,52 832,52 832,52 833,52 833,52 833,52 833,52 833,52 833,52 833,52 834,52 834,52 834,52 834,52 834,52 834,52 835,52 835,52 835,52 835,52 835,52 835,52 835,52 836,52 836,52 836,52 836,52 836,52 836,52 836,52 837,52 837,52 837,52 837,52 837,52 837,52 837,52 838,52 838,52 838,52 838,52 838,52 838,52 838,52 765,52 766,52 767,52 768,52 769,52 770,52 770,51 771,51 "
     id="polygon30"
     transform="translate(167.15971,0.08069093)" />
  <polygon
     opacity="1"
     fill="#1f78b4"
     points="771,52 771,52 771,52 771,52 771,52 771,52 772,52 772,52 772,52 772,52 772,52 772,52 772,53 773,53 773,53 773,53 773,53 773,53 773,53 774,53 774,53 774,53 774,53 774,53 774,53 774,54 775,54 775,54 775,54 775,54 775,54 775,54 775,54 776,55 776,55 776,55 776,55 776,55 776,55 776,55 777,56 777,56 777,56 777,56 777,56 777,56 778,57 778,57 778,57 778,57 778,57 778,57 778,58 779,58 779,58 779,58 779,58 779,58 779,59 779,59 780,59 780,59 780,59 780,59 780,59 780,60 780,60 781,60 781,60 781,60 781,60 781,61 781,61 782,61 782,61 782,61 782,61 782,62 782,62 782,62 783,62 783,62 783,62 783,63 783,63 783,63 783,63 784,63 784,63 784,64 784,64 784,64 784,64 784,64 785,64 785,64 785,64 785,65 785,65 785,65 786,65 786,65 786,65 786,65 786,65 786,65 786,65 787,65 787,65 787,65 787,65 787,65 787,65 787,65 788,65 788,64 788,64 788,64 788,64 788,64 788,64 789,64 789,63 789,63 789,63 789,63 789,63 790,62 790,62 790,62 790,62 790,61 790,61 790,61 791,61 791,60 791,60 791,60 791,60 791,59 791,59 792,59 792,59 792,58 792,58 792,58 792,58 792,57 793,57 793,57 793,57 793,57 793,56 793,56 794,56 794,56 794,56 794,56 794,55 794,55 794,55 795,55 795,55 795,55 795,55 795,55 795,55 795,54 796,54 796,54 796,54 796,54 796,54 796,54 796,54 797,54 797,54 797,54 797,54 797,54 797,54 798,54 798,54 798,54 798,53 798,53 798,53 798,53 799,53 799,53 799,53 799,53 799,53 799,53 799,53 800,53 800,53 800,53 800,53 800,53 800,53 800,53 801,53 801,53 801,53 801,53 801,53 801,53 802,53 802,53 802,52 802,52 802,52 802,52 802,52 803,52 803,52 803,52 803,52 803,52 803,52 803,52 804,52 804,52 804,52 804,52 804,52 804,52 804,52 805,52 805,52 805,52 805,52 805,52 805,52 805,52 806,52 806,52 806,52 806,52 806,52 806,52 807,52 807,52 807,52 807,52 807,52 807,52 807,52 808,52 808,52 808,52 808,52 808,52 808,52 808,52 809,52 809,52 809,52 809,52 809,52 809,52 809,52 810,52 810,52 810,52 810,52 810,52 810,52 811,52 811,52 811,52 811,52 811,52 811,52 811,52 812,52 812,52 812,52 812,52 812,52 812,52 812,52 813,52 813,52 813,52 813,52 813,52 813,52 813,52 814,52 814,52 814,52 814,52 814,52 814,52 815,52 815,52 815,52 815,52 815,52 815,52 815,52 816,52 816,52 816,52 816,52 816,52 816,52 816,52 817,52 817,52 817,52 817,52 817,52 817,52 817,52 818,52 818,52 818,52 818,52 818,52 818,52 819,52 819,52 819,52 819,52 819,52 819,52 819,52 820,52 820,52 820,52 820,52 820,52 820,52 820,52 821,52 821,52 821,52 821,52 821,52 821,52 821,52 822,52 822,52 822,52 822,52 822,52 822,52 823,52 823,52 823,52 823,52 823,52 823,52 823,52 824,52 824,52 824,52 824,52 824,52 824,52 824,52 825,52 825,52 825,52 825,52 825,52 825,52 825,52 826,52 826,52 826,52 826,52 826,52 826,52 827,52 827,52 827,52 827,52 827,52 827,52 827,52 828,52 828,52 828,52 828,52 828,52 828,52 828,52 829,52 829,52 829,52 829,52 829,52 829,52 829,52 830,52 830,52 830,52 830,52 830,52 830,52 831,52 831,52 831,52 831,52 831,52 831,52 831,52 832,52 832,52 832,52 832,52 832,52 832,52 832,52 833,52 833,52 833,52 833,52 833,52 833,52 833,52 834,52 834,52 834,52 834,52 834,52 834,52 835,52 835,52 835,52 835,52 835,52 835,52 835,52 836,52 836,52 836,52 836,52 836,52 836,52 836,52 837,52 837,52 837,52 837,52 837,52 837,52 837,52 838,52 838,52 838,52 838,52 838,52 838,52 838,52 765,52 766,52 767,52 768,52 769,52 770,52 771,52 "
     id="polygon31"
     transform="translate(167.15971,0.08069093)" />
</svg>
